<ttFont>
    <TTGlyph name="A" xMin="77" yMin="-20" xMax="723" yMax="744">
      <contour>
        <pt x="723" y="3" on="1"/>
        <pt x="571" y="-20" on="1"/>
        <pt x="555" y="31" on="0"/>
        <pt x="523" y="132" on="0"/>
        <pt x="508" y="183" on="1"/>
        <pt x="262" y="174" on="1"/>
        <pt x="231" y="41" on="1"/>
        <pt x="77" y="41" on="1"/>
        <pt x="91" y="211" on="0"/>
        <pt x="121" y="547" on="0"/>
        <pt x="135" y="716" on="1"/>
        <pt x="207" y="728" on="0"/>
        <pt x="350" y="744" on="0"/>
        <pt x="423" y="744" on="1"/>
        <pt x="512" y="744" on="0"/>
        <pt x="601" y="741" on="1"/>
        <pt x="617" y="637" on="0"/>
        <pt x="648" y="430" on="0"/>
        <pt x="665" y="326" on="1"/>
        <pt x="677" y="244" on="0"/>
        <pt x="706" y="84" on="0"/>
      </contour>
      <contour>
        <pt x="473" y="319" on="1"/>
        <pt x="472" y="328" on="0"/>
        <pt x="464" y="377" on="0"/>
        <pt x="454" y="432" on="0"/>
        <pt x="441" y="477" on="0"/>
        <pt x="435" y="481" on="1"/>
        <pt x="433" y="482" on="0"/>
        <pt x="418" y="484" on="0"/>
        <pt x="401" y="486" on="0"/>
        <pt x="385" y="486" on="0"/>
        <pt x="382" y="486" on="1"/>
        <pt x="377" y="486" on="0"/>
        <pt x="360" y="486" on="0"/>
        <pt x="341" y="485" on="0"/>
        <pt x="324" y="481" on="0"/>
        <pt x="321" y="478" on="1"/>
        <pt x="319" y="477" on="0"/>
        <pt x="313" y="453" on="0"/>
        <pt x="304" y="418" on="0"/>
        <pt x="295" y="378" on="0"/>
        <pt x="287" y="342" on="0"/>
        <pt x="282" y="316" on="0"/>
        <pt x="281" y="314" on="1"/>
      </contour>
    </TTGlyph>
    <TTGlyph name="AE" xMin="-31" yMin="-25" xMax="992" yMax="769">
      <contour>
        <pt x="992" y="588" on="1"/>
        <pt x="944" y="585" on="0"/>
        <pt x="849" y="577" on="0"/>
        <pt x="801" y="570" on="1"/>
        <pt x="761" y="565" on="0"/>
        <pt x="679" y="556" on="0"/>
        <pt x="639" y="552" on="1"/>
        <pt x="650" y="410" on="1"/>
        <pt x="715" y="408" on="0"/>
        <pt x="841" y="401" on="0"/>
        <pt x="905" y="395" on="1"/>
        <pt x="905" y="272" on="1"/>
        <pt x="843" y="261" on="0"/>
        <pt x="721" y="237" on="0"/>
        <pt x="658" y="226" on="1"/>
        <pt x="662" y="136" on="1"/>
        <pt x="827" y="119" on="1"/>
        <pt x="857" y="115" on="0"/>
        <pt x="915" y="108" on="0"/>
        <pt x="938" y="104" on="1"/>
        <pt x="964" y="100" on="0"/>
        <pt x="988" y="96" on="1"/>
        <pt x="987" y="81" on="0"/>
        <pt x="987" y="69" on="1"/>
        <pt x="986" y="58" on="0"/>
        <pt x="986" y="36" on="0"/>
        <pt x="986" y="30" on="1"/>
        <pt x="986" y="-10" on="1"/>
        <pt x="853" y="-13" on="0"/>
        <pt x="590" y="-19" on="0"/>
        <pt x="456" y="-24" on="1"/>
        <pt x="458" y="199" on="1"/>
        <pt x="266" y="203" on="1"/>
        <pt x="151" y="-9" on="1"/>
        <pt x="-31" y="-25" on="1"/>
        <pt x="-1" y="58" on="0"/>
        <pt x="62" y="222" on="0"/>
        <pt x="95" y="303" on="1"/>
        <pt x="183" y="522" on="0"/>
        <pt x="269" y="741" on="1"/>
        <pt x="326" y="743" on="0"/>
        <pt x="440" y="743" on="0"/>
        <pt x="497" y="743" on="1"/>
        <pt x="617" y="743" on="0"/>
        <pt x="855" y="760" on="0"/>
        <pt x="975" y="769" on="1"/>
        <pt x="982" y="724" on="0"/>
        <pt x="990" y="634" on="0"/>
      </contour>
      <contour>
        <pt x="464" y="435" on="1"/>
        <pt x="464" y="461" on="0"/>
        <pt x="462" y="511" on="0"/>
        <pt x="462" y="536" on="1"/>
        <pt x="402" y="539" on="1"/>
        <pt x="380" y="495" on="0"/>
        <pt x="343" y="406" on="0"/>
        <pt x="325" y="360" on="1"/>
        <pt x="461" y="364" on="1"/>
        <pt x="464" y="398" on="0"/>
      </contour>
    </TTGlyph>
    <TTGlyph name="Aacute" xMin="77" yMin="-20" xMax="723" yMax="1037">
      <component glyphName="A" x="0" y="0" flags="0x204"/>
      <component glyphName="acute" x="-71" y="174" flags="0x4"/>
    </TTGlyph>
    <TTGlyph name="Acircumflex" xMin="77" yMin="-20" xMax="723" yMax="1064">
      <component glyphName="A" x="0" y="0" flags="0x204"/>
      <component glyphName="circumflex" x="-112" y="215" flags="0x4"/>
    </TTGlyph>
    <TTGlyph name="Adieresis" xMin="77" yMin="-20" xMax="723" yMax="1024">
      <component glyphName="A" x="0" y="0" flags="0x204"/>
      <component glyphName="dieresis" x="-112" y="205" flags="0x4"/>
    </TTGlyph>
    <TTGlyph name="Agrave" xMin="77" yMin="-20" xMax="723" yMax="1047">
      <component glyphName="A" x="0" y="0" flags="0x204"/>
      <component glyphName="grave" x="-132" y="184" flags="0x4"/>
    </TTGlyph>
    <TTGlyph name="Aring" xMin="77" yMin="-20" xMax="723" yMax="949">
      <contour>
        <pt x="473" y="319" on="1"/>
        <pt x="472" y="328" on="0"/>
        <pt x="464" y="377" on="0"/>
        <pt x="454" y="432" on="0"/>
        <pt x="441" y="477" on="0"/>
        <pt x="435" y="481" on="1"/>
        <pt x="433" y="482" on="0"/>
        <pt x="418" y="484" on="0"/>
        <pt x="401" y="486" on="0"/>
        <pt x="385" y="486" on="0"/>
        <pt x="382" y="486" on="1"/>
        <pt x="377" y="486" on="0"/>
        <pt x="360" y="486" on="0"/>
        <pt x="341" y="485" on="0"/>
        <pt x="324" y="481" on="0"/>
        <pt x="321" y="478" on="1"/>
        <pt x="319" y="477" on="0"/>
        <pt x="313" y="453" on="0"/>
        <pt x="304" y="418" on="0"/>
        <pt x="295" y="378" on="0"/>
        <pt x="287" y="342" on="0"/>
        <pt x="282" y="316" on="0"/>
        <pt x="281" y="314" on="1"/>
      </contour>
      <contour>
        <pt x="510" y="845" on="1"/>
        <pt x="510" y="809" on="0"/>
        <pt x="469" y="758" on="0"/>
        <pt x="439" y="744" on="1"/>
        <pt x="520" y="744" on="0"/>
        <pt x="601" y="741" on="1"/>
        <pt x="617" y="637" on="0"/>
        <pt x="648" y="430" on="0"/>
        <pt x="665" y="326" on="1"/>
        <pt x="677" y="244" on="0"/>
        <pt x="706" y="84" on="0"/>
        <pt x="723" y="3" on="1"/>
        <pt x="571" y="-20" on="1"/>
        <pt x="555" y="31" on="0"/>
        <pt x="523" y="132" on="0"/>
        <pt x="508" y="183" on="1"/>
        <pt x="262" y="174" on="1"/>
        <pt x="231" y="41" on="1"/>
        <pt x="77" y="41" on="1"/>
        <pt x="91" y="211" on="0"/>
        <pt x="121" y="547" on="0"/>
        <pt x="135" y="716" on="1"/>
        <pt x="178" y="724" on="0"/>
        <pt x="263" y="735" on="0"/>
        <pt x="306" y="739" on="1"/>
        <pt x="272" y="750" on="0"/>
        <pt x="218" y="794" on="0"/>
        <pt x="218" y="826" on="1"/>
        <pt x="218" y="831" on="0"/>
        <pt x="219" y="834" on="1"/>
        <pt x="224" y="861" on="0"/>
        <pt x="254" y="904" on="0"/>
        <pt x="296" y="933" on="0"/>
        <pt x="348" y="949" on="0"/>
        <pt x="374" y="949" on="1"/>
        <pt x="397" y="949" on="0"/>
        <pt x="446" y="936" on="0"/>
        <pt x="485" y="910" on="0"/>
        <pt x="510" y="871" on="0"/>
      </contour>
      <contour>
        <pt x="442" y="831" on="1"/>
        <pt x="442" y="852" on="0"/>
        <pt x="437" y="878" on="0"/>
        <pt x="423" y="892" on="0"/>
        <pt x="397" y="897" on="0"/>
        <pt x="376" y="897" on="1"/>
        <pt x="371" y="897" on="0"/>
        <pt x="355" y="896" on="0"/>
        <pt x="338" y="895" on="0"/>
        <pt x="323" y="892" on="0"/>
        <pt x="319" y="889" on="1"/>
        <pt x="314" y="886" on="0"/>
        <pt x="309" y="870" on="0"/>
        <pt x="305" y="851" on="0"/>
        <pt x="304" y="832" on="0"/>
        <pt x="304" y="827" on="1"/>
        <pt x="304" y="797" on="0"/>
        <pt x="323" y="783" on="0"/>
        <pt x="352" y="783" on="1"/>
        <pt x="357" y="783" on="0"/>
        <pt x="381" y="785" on="0"/>
        <pt x="406" y="788" on="0"/>
        <pt x="429" y="793" on="0"/>
        <pt x="433" y="796" on="1"/>
        <pt x="440" y="801" on="0"/>
        <pt x="442" y="823" on="0"/>
      </contour>
    </TTGlyph>
    <TTGlyph name="Atilde" xMin="77" yMin="-20" xMax="723" yMax="983">
      <component glyphName="A" x="0" y="0" flags="0x204"/>
      <component glyphName="tilde" x="-101" y="164" flags="0x4"/>
    </TTGlyph>
    <TTGlyph name="B" xMin="31" yMin="-5" xMax="822" yMax="772">
      <contour>
        <pt x="822" y="495" on="1"/>
        <pt x="822" y="478" on="0"/>
        <pt x="818" y="448" on="0"/>
        <pt x="813" y="432" on="1"/>
        <pt x="807" y="415" on="0"/>
        <pt x="773" y="384" on="0"/>
        <pt x="731" y="357" on="0"/>
        <pt x="687" y="338" on="0"/>
        <pt x="672" y="333" on="1"/>
        <pt x="677" y="332" on="0"/>
        <pt x="707" y="327" on="0"/>
        <pt x="740" y="319" on="0"/>
        <pt x="768" y="308" on="0"/>
        <pt x="772" y="302" on="1"/>
        <pt x="779" y="290" on="0"/>
        <pt x="788" y="255" on="0"/>
        <pt x="792" y="216" on="0"/>
        <pt x="794" y="179" on="0"/>
        <pt x="794" y="165" on="1"/>
        <pt x="794" y="160" on="0"/>
        <pt x="794" y="149" on="0"/>
        <pt x="793" y="144" on="1"/>
        <pt x="791" y="134" on="0"/>
        <pt x="767" y="101" on="0"/>
        <pt x="735" y="67" on="0"/>
        <pt x="704" y="38" on="0"/>
        <pt x="696" y="32" on="1"/>
        <pt x="685" y="24" on="0"/>
        <pt x="664" y="12" on="0"/>
        <pt x="652" y="7" on="1"/>
        <pt x="643" y="3" on="0"/>
        <pt x="584" y="-1" on="0"/>
        <pt x="518" y="-4" on="0"/>
        <pt x="460" y="-5" on="0"/>
        <pt x="450" y="-5" on="1"/>
        <pt x="370" y="-5" on="0"/>
        <pt x="214" y="0" on="0"/>
        <pt x="134" y="4" on="1"/>
        <pt x="136" y="75" on="0"/>
        <pt x="138" y="216" on="0"/>
        <pt x="138" y="288" on="1"/>
        <pt x="138" y="369" on="0"/>
        <pt x="128" y="529" on="0"/>
        <pt x="122" y="609" on="1"/>
        <pt x="45" y="616" on="1"/>
        <pt x="40" y="656" on="0"/>
        <pt x="35" y="733" on="0"/>
        <pt x="31" y="772" on="1"/>
        <pt x="113" y="770" on="0"/>
        <pt x="277" y="766" on="0"/>
        <pt x="359" y="764" on="1"/>
        <pt x="394" y="763" on="0"/>
        <pt x="502" y="752" on="0"/>
        <pt x="615" y="734" on="0"/>
        <pt x="716" y="708" on="0"/>
        <pt x="745" y="692" on="1"/>
        <pt x="767" y="680" on="0"/>
        <pt x="796" y="632" on="0"/>
        <pt x="814" y="575" on="0"/>
        <pt x="822" y="517" on="0"/>
      </contour>
      <contour>
        <pt x="556" y="499" on="1"/>
        <pt x="556" y="509" on="0"/>
        <pt x="554" y="540" on="0"/>
        <pt x="548" y="572" on="0"/>
        <pt x="538" y="600" on="0"/>
        <pt x="531" y="609" on="1"/>
        <pt x="529" y="612" on="0"/>
        <pt x="511" y="616" on="0"/>
        <pt x="490" y="618" on="0"/>
        <pt x="470" y="618" on="0"/>
        <pt x="467" y="618" on="1"/>
        <pt x="417" y="618" on="0"/>
        <pt x="319" y="607" on="0"/>
        <pt x="270" y="599" on="1"/>
        <pt x="276" y="550" on="0"/>
        <pt x="286" y="452" on="0"/>
        <pt x="293" y="403" on="1"/>
        <pt x="305" y="403" on="0"/>
        <pt x="375" y="407" on="0"/>
        <pt x="454" y="413" on="0"/>
        <pt x="522" y="422" on="0"/>
        <pt x="532" y="428" on="1"/>
        <pt x="549" y="439" on="0"/>
        <pt x="556" y="481" on="0"/>
      </contour>
      <contour>
        <pt x="548" y="217" on="1"/>
        <pt x="548" y="232" on="0"/>
        <pt x="540" y="263" on="0"/>
        <pt x="528" y="273" on="1"/>
        <pt x="525" y="276" on="0"/>
        <pt x="503" y="280" on="0"/>
        <pt x="479" y="281" on="0"/>
        <pt x="457" y="282" on="0"/>
        <pt x="453" y="282" on="1"/>
        <pt x="410" y="282" on="0"/>
        <pt x="326" y="273" on="0"/>
        <pt x="284" y="268" on="1"/>
        <pt x="300" y="141" on="1"/>
        <pt x="305" y="141" on="0"/>
        <pt x="342" y="143" on="0"/>
        <pt x="391" y="146" on="0"/>
        <pt x="446" y="150" on="0"/>
        <pt x="494" y="156" on="0"/>
        <pt x="528" y="163" on="0"/>
        <pt x="532" y="168" on="1"/>
        <pt x="541" y="179" on="0"/>
        <pt x="548" y="203" on="0"/>
      </contour>
    </TTGlyph>
    <TTGlyph name="C" xMin="31" yMin="34" xMax="707" yMax="762">
      <contour>
        <pt x="707" y="237" on="1"/>
        <pt x="706" y="81" on="1"/>
        <pt x="660" y="72" on="0"/>
        <pt x="570" y="56" on="0"/>
        <pt x="524" y="50" on="1"/>
        <pt x="476" y="44" on="0"/>
        <pt x="380" y="34" on="0"/>
        <pt x="332" y="34" on="1"/>
        <pt x="318" y="34" on="0"/>
        <pt x="264" y="36" on="0"/>
        <pt x="206" y="42" on="0"/>
        <pt x="154" y="51" on="0"/>
        <pt x="142" y="58" on="1"/>
        <pt x="131" y="65" on="0"/>
        <pt x="111" y="84" on="0"/>
        <pt x="103" y="94" on="1"/>
        <pt x="82" y="120" on="0"/>
        <pt x="54" y="182" on="0"/>
        <pt x="38" y="248" on="0"/>
        <pt x="31" y="316" on="0"/>
        <pt x="31" y="349" on="1"/>
        <pt x="31" y="389" on="0"/>
        <pt x="40" y="475" on="0"/>
        <pt x="60" y="559" on="0"/>
        <pt x="93" y="637" on="0"/>
        <pt x="117" y="670" on="1"/>
        <pt x="124" y="679" on="0"/>
        <pt x="146" y="705" on="0"/>
        <pt x="157" y="711" on="1"/>
        <pt x="184" y="726" on="0"/>
        <pt x="251" y="746" on="0"/>
        <pt x="323" y="757" on="0"/>
        <pt x="394" y="762" on="0"/>
        <pt x="424" y="762" on="1"/>
        <pt x="481" y="762" on="0"/>
        <pt x="595" y="749" on="0"/>
        <pt x="649" y="733" on="1"/>
        <pt x="647" y="706" on="0"/>
        <pt x="645" y="651" on="0"/>
        <pt x="645" y="624" on="1"/>
        <pt x="645" y="559" on="0"/>
        <pt x="648" y="493" on="1"/>
        <pt x="603" y="510" on="0"/>
        <pt x="505" y="525" on="0"/>
        <pt x="457" y="525" on="1"/>
        <pt x="447" y="525" on="0"/>
        <pt x="409" y="522" on="0"/>
        <pt x="361" y="517" on="0"/>
        <pt x="310" y="509" on="0"/>
        <pt x="266" y="497" on="0"/>
        <pt x="233" y="481" on="0"/>
        <pt x="228" y="472" on="1"/>
        <pt x="224" y="464" on="0"/>
        <pt x="219" y="435" on="0"/>
        <pt x="216" y="403" on="0"/>
        <pt x="215" y="373" on="0"/>
        <pt x="215" y="364" on="1"/>
        <pt x="215" y="355" on="0"/>
        <pt x="219" y="301" on="0"/>
        <pt x="225" y="240" on="0"/>
        <pt x="234" y="190" on="0"/>
        <pt x="239" y="186" on="1"/>
        <pt x="244" y="183" on="0"/>
        <pt x="267" y="182" on="0"/>
        <pt x="271" y="182" on="1"/>
        <pt x="320" y="182" on="0"/>
        <pt x="432" y="192" on="0"/>
        <pt x="547" y="209" on="0"/>
        <pt x="659" y="228" on="0"/>
      </contour>
    </TTGlyph>
    <TTGlyph name="Ccedilla" xMin="31" yMin="-310" xMax="707" yMax="762">
      <contour>
        <pt x="536" y="-164" on="1"/>
        <pt x="536" y="-176" on="0"/>
        <pt x="531" y="-209" on="0"/>
        <pt x="520" y="-241" on="0"/>
        <pt x="504" y="-268" on="0"/>
        <pt x="493" y="-274" on="1"/>
        <pt x="482" y="-280" on="0"/>
        <pt x="432" y="-291" on="0"/>
        <pt x="375" y="-301" on="0"/>
        <pt x="322" y="-308" on="0"/>
        <pt x="307" y="-310" on="1"/>
        <pt x="303" y="-217" on="1"/>
        <pt x="311" y="-216" on="0"/>
        <pt x="349" y="-209" on="0"/>
        <pt x="390" y="-201" on="0"/>
        <pt x="425" y="-193" on="0"/>
        <pt x="429" y="-190" on="1"/>
        <pt x="440" y="-185" on="0"/>
        <pt x="446" y="-169" on="0"/>
        <pt x="446" y="-158" on="1"/>
        <pt x="446" y="-131" on="0"/>
        <pt x="425" y="-117" on="1"/>
        <pt x="420" y="-114" on="0"/>
        <pt x="386" y="-111" on="0"/>
        <pt x="345" y="-110" on="0"/>
        <pt x="307" y="-111" on="0"/>
        <pt x="299" y="-111" on="1"/>
        <pt x="299" y="-20" on="1"/>
        <pt x="299" y="-6" on="0"/>
        <pt x="300" y="21" on="0"/>
        <pt x="300" y="35" on="1"/>
        <pt x="281" y="36" on="0"/>
        <pt x="234" y="39" on="0"/>
        <pt x="189" y="44" on="0"/>
        <pt x="152" y="52" on="0"/>
        <pt x="142" y="58" on="1"/>
        <pt x="131" y="65" on="0"/>
        <pt x="111" y="84" on="0"/>
        <pt x="103" y="94" on="1"/>
        <pt x="82" y="120" on="0"/>
        <pt x="54" y="182" on="0"/>
        <pt x="38" y="248" on="0"/>
        <pt x="31" y="316" on="0"/>
        <pt x="31" y="349" on="1"/>
        <pt x="31" y="389" on="0"/>
        <pt x="40" y="475" on="0"/>
        <pt x="60" y="559" on="0"/>
        <pt x="93" y="637" on="0"/>
        <pt x="117" y="670" on="1"/>
        <pt x="124" y="679" on="0"/>
        <pt x="146" y="705" on="0"/>
        <pt x="157" y="711" on="1"/>
        <pt x="184" y="726" on="0"/>
        <pt x="251" y="746" on="0"/>
        <pt x="323" y="757" on="0"/>
        <pt x="394" y="762" on="0"/>
        <pt x="424" y="762" on="1"/>
        <pt x="481" y="762" on="0"/>
        <pt x="595" y="749" on="0"/>
        <pt x="649" y="733" on="1"/>
        <pt x="647" y="706" on="0"/>
        <pt x="645" y="651" on="0"/>
        <pt x="645" y="624" on="1"/>
        <pt x="645" y="559" on="0"/>
        <pt x="648" y="493" on="1"/>
        <pt x="603" y="510" on="0"/>
        <pt x="505" y="525" on="0"/>
        <pt x="457" y="525" on="1"/>
        <pt x="447" y="525" on="0"/>
        <pt x="409" y="522" on="0"/>
        <pt x="361" y="517" on="0"/>
        <pt x="310" y="509" on="0"/>
        <pt x="266" y="497" on="0"/>
        <pt x="233" y="481" on="0"/>
        <pt x="228" y="472" on="1"/>
        <pt x="224" y="464" on="0"/>
        <pt x="219" y="435" on="0"/>
        <pt x="216" y="403" on="0"/>
        <pt x="215" y="373" on="0"/>
        <pt x="215" y="364" on="1"/>
        <pt x="215" y="355" on="0"/>
        <pt x="219" y="301" on="0"/>
        <pt x="225" y="240" on="0"/>
        <pt x="234" y="190" on="0"/>
        <pt x="239" y="186" on="1"/>
        <pt x="244" y="183" on="0"/>
        <pt x="267" y="182" on="0"/>
        <pt x="271" y="182" on="1"/>
        <pt x="320" y="182" on="0"/>
        <pt x="432" y="192" on="0"/>
        <pt x="547" y="209" on="0"/>
        <pt x="659" y="228" on="0"/>
        <pt x="707" y="237" on="1"/>
        <pt x="706" y="81" on="1"/>
        <pt x="660" y="72" on="0"/>
        <pt x="570" y="56" on="0"/>
        <pt x="524" y="50" on="1"/>
        <pt x="472" y="43" on="0"/>
        <pt x="417" y="38" on="1"/>
        <pt x="417" y="-51" on="1"/>
        <pt x="442" y="-54" on="0"/>
        <pt x="482" y="-67" on="0"/>
        <pt x="512" y="-89" on="0"/>
        <pt x="530" y="-126" on="0"/>
        <pt x="535" y="-153" on="1"/>
        <pt x="535" y="-156" on="0"/>
        <pt x="536" y="-161" on="0"/>
      </contour>
    </TTGlyph>
    <TTGlyph name="D" xMin="77" yMin="1" xMax="788" yMax="728">
      <contour>
        <pt x="788" y="359" on="1"/>
        <pt x="788" y="330" on="0"/>
        <pt x="788" y="266" on="0"/>
        <pt x="781" y="237" on="1"/>
        <pt x="776" y="215" on="0"/>
        <pt x="764" y="182" on="0"/>
        <pt x="746" y="155" on="0"/>
        <pt x="720" y="132" on="0"/>
        <pt x="701" y="121" on="1"/>
        <pt x="695" y="117" on="0"/>
        <pt x="643" y="104" on="0"/>
        <pt x="566" y="86" on="0"/>
        <pt x="471" y="66" on="0"/>
        <pt x="372" y="47" on="0"/>
        <pt x="275" y="28" on="0"/>
        <pt x="196" y="13" on="0"/>
        <pt x="141" y="2" on="0"/>
        <pt x="132" y="1" on="1"/>
        <pt x="115" y="184" on="0"/>
        <pt x="85" y="544" on="0"/>
        <pt x="77" y="728" on="1"/>
        <pt x="161" y="725" on="0"/>
        <pt x="327" y="718" on="0"/>
        <pt x="412" y="712" on="1"/>
        <pt x="434" y="710" on="0"/>
        <pt x="519" y="704" on="0"/>
        <pt x="611" y="693" on="0"/>
        <pt x="692" y="677" on="0"/>
        <pt x="710" y="665" on="1"/>
        <pt x="733" y="648" on="0"/>
        <pt x="769" y="590" on="0"/>
        <pt x="777" y="562" on="1"/>
        <pt x="781" y="549" on="0"/>
        <pt x="785" y="494" on="0"/>
        <pt x="787" y="432" on="0"/>
        <pt x="788" y="374" on="0"/>
      </contour>
      <contour>
        <pt x="539" y="346" on="1"/>
        <pt x="539" y="357" on="0"/>
        <pt x="538" y="382" on="0"/>
        <pt x="537" y="393" on="1"/>
        <pt x="535" y="409" on="0"/>
        <pt x="528" y="444" on="0"/>
        <pt x="516" y="477" on="0"/>
        <pt x="498" y="506" on="0"/>
        <pt x="485" y="517" on="1"/>
        <pt x="478" y="523" on="0"/>
        <pt x="424" y="530" on="0"/>
        <pt x="360" y="533" on="0"/>
        <pt x="304" y="534" on="0"/>
        <pt x="296" y="534" on="1"/>
        <pt x="255" y="534" on="1"/>
        <pt x="263" y="456" on="0"/>
        <pt x="276" y="305" on="0"/>
        <pt x="281" y="227" on="1"/>
        <pt x="300" y="228" on="0"/>
        <pt x="371" y="237" on="0"/>
        <pt x="445" y="252" on="0"/>
        <pt x="509" y="275" on="0"/>
        <pt x="523" y="291" on="1"/>
        <pt x="534" y="303" on="0"/>
        <pt x="539" y="330" on="0"/>
      </contour>
    </TTGlyph>
    <TTGlyph name="E" xMin="61" yMin="-8" xMax="636" yMax="750">
      <contour>
        <pt x="636" y="609" on="1"/>
        <pt x="538" y="604" on="0"/>
        <pt x="345" y="593" on="0"/>
        <pt x="247" y="585" on="1"/>
        <pt x="245" y="506" on="1"/>
        <pt x="503" y="521" on="1"/>
        <pt x="508" y="487" on="0"/>
        <pt x="513" y="421" on="0"/>
        <pt x="513" y="387" on="1"/>
        <pt x="513" y="373" on="0"/>
        <pt x="512" y="343" on="0"/>
        <pt x="512" y="329" on="1"/>
        <pt x="272" y="286" on="1"/>
        <pt x="287" y="162" on="1"/>
        <pt x="363" y="167" on="0"/>
        <pt x="514" y="186" on="0"/>
        <pt x="591" y="193" on="1"/>
        <pt x="598" y="143" on="0"/>
        <pt x="612" y="42" on="0"/>
        <pt x="625" y="-6" on="1"/>
        <pt x="483" y="-5" on="0"/>
        <pt x="203" y="-8" on="0"/>
        <pt x="61" y="-8" on="1"/>
        <pt x="64" y="109" on="0"/>
        <pt x="72" y="341" on="0"/>
        <pt x="72" y="459" on="1"/>
        <pt x="72" y="478" on="1"/>
        <pt x="72" y="546" on="0"/>
        <pt x="68" y="681" on="0"/>
        <pt x="66" y="750" on="1"/>
        <pt x="145" y="749" on="0"/>
        <pt x="302" y="750" on="0"/>
        <pt x="382" y="750" on="1"/>
        <pt x="443" y="750" on="0"/>
        <pt x="564" y="745" on="0"/>
        <pt x="625" y="742" on="1"/>
      </contour>
    </TTGlyph>
    <TTGlyph name="Eacute" xMin="61" yMin="-8" xMax="636" yMax="1047">
      <component glyphName="E" x="0" y="0" flags="0x204"/>
      <component glyphName="acute" x="-81" y="184" flags="0x4"/>
    </TTGlyph>
    <TTGlyph name="Ecircumflex" xMin="61" yMin="-8" xMax="636" yMax="1064">
      <component glyphName="E" x="0" y="0" flags="0x204"/>
      <component glyphName="circumflex" x="-122" y="215" flags="0x4"/>
    </TTGlyph>
    <TTGlyph name="Edieresis" xMin="61" yMin="-8" xMax="636" yMax="1024">
      <component glyphName="E" x="0" y="0" flags="0x204"/>
      <component glyphName="dieresis" x="-132" y="205" flags="0x4"/>
    </TTGlyph>
    <TTGlyph name="Egrave" xMin="61" yMin="-8" xMax="636" yMax="1047">
      <component glyphName="E" x="0" y="0" flags="0x204"/>
      <component glyphName="grave" x="-132" y="184" flags="0x4"/>
    </TTGlyph>
    <TTGlyph name="Eth" xMin="41" yMin="1" xMax="804" yMax="728">
      <contour>
        <pt x="117" y="349" on="1"/>
        <pt x="41" y="349" on="1"/>
        <pt x="45" y="430" on="1"/>
        <pt x="62" y="431" on="0"/>
        <pt x="94" y="431" on="0"/>
        <pt x="111" y="432" on="1"/>
        <pt x="105" y="506" on="0"/>
        <pt x="95" y="653" on="0"/>
        <pt x="92" y="728" on="1"/>
        <pt x="177" y="725" on="0"/>
        <pt x="342" y="718" on="0"/>
        <pt x="427" y="712" on="1"/>
        <pt x="449" y="710" on="0"/>
        <pt x="534" y="704" on="0"/>
        <pt x="627" y="693" on="0"/>
        <pt x="708" y="677" on="0"/>
        <pt x="725" y="665" on="1"/>
        <pt x="748" y="648" on="0"/>
        <pt x="785" y="590" on="0"/>
        <pt x="793" y="562" on="1"/>
        <pt x="797" y="549" on="0"/>
        <pt x="801" y="494" on="0"/>
        <pt x="803" y="432" on="0"/>
        <pt x="804" y="374" on="0"/>
        <pt x="804" y="359" on="1"/>
        <pt x="804" y="330" on="0"/>
        <pt x="803" y="266" on="0"/>
        <pt x="797" y="237" on="1"/>
        <pt x="792" y="215" on="0"/>
        <pt x="780" y="182" on="0"/>
        <pt x="762" y="155" on="0"/>
        <pt x="736" y="132" on="0"/>
        <pt x="717" y="121" on="1"/>
        <pt x="711" y="117" on="0"/>
        <pt x="659" y="104" on="0"/>
        <pt x="582" y="86" on="0"/>
        <pt x="487" y="66" on="0"/>
        <pt x="387" y="47" on="0"/>
        <pt x="291" y="28" on="0"/>
        <pt x="211" y="13" on="0"/>
        <pt x="156" y="2" on="0"/>
        <pt x="147" y="1" on="1"/>
        <pt x="139" y="89" on="0"/>
        <pt x="124" y="261" on="0"/>
      </contour>
      <contour>
        <pt x="426" y="349" on="1"/>
        <pt x="288" y="349" on="1"/>
        <pt x="290" y="318" on="0"/>
        <pt x="294" y="258" on="0"/>
        <pt x="296" y="227" on="1"/>
        <pt x="315" y="228" on="0"/>
        <pt x="386" y="237" on="0"/>
        <pt x="461" y="252" on="0"/>
        <pt x="525" y="275" on="0"/>
        <pt x="539" y="291" on="1"/>
        <pt x="550" y="303" on="0"/>
        <pt x="554" y="330" on="0"/>
        <pt x="554" y="346" on="1"/>
        <pt x="554" y="357" on="0"/>
        <pt x="553" y="382" on="0"/>
        <pt x="552" y="393" on="1"/>
        <pt x="550" y="409" on="0"/>
        <pt x="544" y="444" on="0"/>
        <pt x="532" y="477" on="0"/>
        <pt x="514" y="506" on="0"/>
        <pt x="501" y="517" on="1"/>
        <pt x="494" y="523" on="0"/>
        <pt x="439" y="530" on="0"/>
        <pt x="376" y="533" on="0"/>
        <pt x="320" y="534" on="0"/>
        <pt x="311" y="534" on="1"/>
        <pt x="270" y="534" on="1"/>
        <pt x="273" y="508" on="0"/>
        <pt x="279" y="459" on="0"/>
        <pt x="281" y="433" on="1"/>
        <pt x="418" y="433" on="1"/>
      </contour>
    </TTGlyph>
    <TTGlyph name="Euro" xMin="20" yMin="12" xMax="771" yMax="705">
      <contour>
        <pt x="771" y="80" on="1"/>
        <pt x="727" y="63" on="0"/>
        <pt x="651" y="38" on="0"/>
        <pt x="575" y="21" on="0"/>
        <pt x="495" y="12" on="0"/>
        <pt x="449" y="12" on="1"/>
        <pt x="428" y="12" on="0"/>
        <pt x="371" y="14" on="0"/>
        <pt x="313" y="22" on="0"/>
        <pt x="260" y="37" on="0"/>
        <pt x="243" y="50" on="1"/>
        <pt x="232" y="58" on="0"/>
        <pt x="202" y="103" on="0"/>
        <pt x="171" y="155" on="0"/>
        <pt x="145" y="203" on="0"/>
        <pt x="139" y="215" on="1"/>
        <pt x="30" y="218" on="1"/>
        <pt x="20" y="311" on="1"/>
        <pt x="133" y="314" on="1"/>
        <pt x="130" y="379" on="1"/>
        <pt x="27" y="376" on="1"/>
        <pt x="24" y="463" on="1"/>
        <pt x="143" y="469" on="1"/>
        <pt x="144" y="481" on="0"/>
        <pt x="152" y="533" on="0"/>
        <pt x="164" y="588" on="0"/>
        <pt x="181" y="637" on="0"/>
        <pt x="191" y="646" on="1"/>
        <pt x="208" y="662" on="0"/>
        <pt x="271" y="684" on="0"/>
        <pt x="341" y="698" on="0"/>
        <pt x="409" y="705" on="0"/>
        <pt x="432" y="705" on="1"/>
        <pt x="471" y="705" on="0"/>
        <pt x="553" y="699" on="0"/>
        <pt x="636" y="686" on="0"/>
        <pt x="716" y="666" on="0"/>
        <pt x="752" y="653" on="1"/>
        <pt x="742" y="521" on="1"/>
        <pt x="723" y="533" on="0"/>
        <pt x="675" y="548" on="0"/>
        <pt x="624" y="557" on="0"/>
        <pt x="572" y="560" on="0"/>
        <pt x="550" y="560" on="1"/>
        <pt x="533" y="560" on="0"/>
        <pt x="478" y="558" on="0"/>
        <pt x="418" y="552" on="0"/>
        <pt x="365" y="540" on="0"/>
        <pt x="352" y="530" on="1"/>
        <pt x="340" y="522" on="0"/>
        <pt x="323" y="490" on="0"/>
        <pt x="321" y="476" on="1"/>
        <pt x="507" y="472" on="1"/>
        <pt x="517" y="404" on="1"/>
        <pt x="304" y="389" on="1"/>
        <pt x="296" y="378" on="0"/>
        <pt x="298" y="340" on="0"/>
        <pt x="298" y="328" on="1"/>
        <pt x="558" y="331" on="1"/>
        <pt x="562" y="266" on="1"/>
        <pt x="316" y="238" on="1"/>
        <pt x="316" y="231" on="1"/>
        <pt x="316" y="217" on="0"/>
        <pt x="334" y="184" on="0"/>
        <pt x="349" y="179" on="1"/>
        <pt x="354" y="177" on="0"/>
        <pt x="379" y="177" on="0"/>
        <pt x="382" y="177" on="1"/>
        <pt x="419" y="177" on="0"/>
        <pt x="494" y="182" on="0"/>
        <pt x="531" y="185" on="1"/>
        <pt x="589" y="190" on="0"/>
        <pt x="704" y="202" on="0"/>
        <pt x="762" y="208" on="1"/>
      </contour>
    </TTGlyph>
    <TTGlyph name="F" xMin="72" yMin="-27" xMax="638" yMax="732">
      <contour>
        <pt x="638" y="527" on="1"/>
        <pt x="551" y="522" on="0"/>
        <pt x="382" y="516" on="0"/>
        <pt x="296" y="508" on="1"/>
        <pt x="304" y="422" on="1"/>
        <pt x="470" y="411" on="1"/>
        <pt x="498" y="311" on="1"/>
        <pt x="453" y="301" on="0"/>
        <pt x="362" y="290" on="0"/>
        <pt x="317" y="281" on="1"/>
        <pt x="327" y="206" on="0"/>
        <pt x="335" y="57" on="0"/>
        <pt x="335" y="-18" on="1"/>
        <pt x="72" y="-27" on="1"/>
        <pt x="77" y="90" on="0"/>
        <pt x="79" y="321" on="0"/>
        <pt x="79" y="438" on="1"/>
        <pt x="79" y="527" on="1"/>
        <pt x="79" y="728" on="1"/>
        <pt x="137" y="729" on="0"/>
        <pt x="250" y="732" on="0"/>
        <pt x="308" y="732" on="1"/>
        <pt x="386" y="732" on="0"/>
        <pt x="542" y="725" on="0"/>
        <pt x="621" y="721" on="1"/>
        <pt x="627" y="673" on="0"/>
        <pt x="638" y="576" on="0"/>
      </contour>
    </TTGlyph>
    <TTGlyph name="G" xMin="56" yMin="-16" xMax="724" yMax="742">
      <contour>
        <pt x="724" y="-16" on="1"/>
        <pt x="603" y="-14" on="0"/>
        <pt x="350" y="-6" on="0"/>
        <pt x="229" y="8" on="1"/>
        <pt x="215" y="10" on="0"/>
        <pt x="180" y="13" on="0"/>
        <pt x="166" y="18" on="1"/>
        <pt x="137" y="29" on="0"/>
        <pt x="104" y="56" on="0"/>
        <pt x="86" y="91" on="0"/>
        <pt x="78" y="134" on="0"/>
        <pt x="75" y="161" on="1"/>
        <pt x="66" y="231" on="0"/>
        <pt x="56" y="372" on="0"/>
        <pt x="56" y="443" on="1"/>
        <pt x="56" y="456" on="0"/>
        <pt x="57" y="493" on="0"/>
        <pt x="60" y="533" on="0"/>
        <pt x="66" y="569" on="0"/>
        <pt x="71" y="581" on="1"/>
        <pt x="95" y="633" on="0"/>
        <pt x="188" y="696" on="0"/>
        <pt x="300" y="731" on="0"/>
        <pt x="419" y="742" on="0"/>
        <pt x="469" y="742" on="1"/>
        <pt x="576" y="742" on="0"/>
        <pt x="683" y="721" on="1"/>
        <pt x="691" y="507" on="1"/>
        <pt x="589" y="539" on="0"/>
        <pt x="480" y="539" on="1"/>
        <pt x="460" y="539" on="0"/>
        <pt x="394" y="535" on="0"/>
        <pt x="325" y="524" on="0"/>
        <pt x="265" y="503" on="0"/>
        <pt x="253" y="485" on="1"/>
        <pt x="247" y="476" on="0"/>
        <pt x="238" y="444" on="0"/>
        <pt x="233" y="409" on="0"/>
        <pt x="231" y="375" on="0"/>
        <pt x="231" y="364" on="1"/>
        <pt x="231" y="341" on="0"/>
        <pt x="238" y="278" on="0"/>
        <pt x="248" y="212" on="0"/>
        <pt x="262" y="152" on="0"/>
        <pt x="270" y="133" on="1"/>
        <pt x="447" y="133" on="1"/>
        <pt x="438" y="326" on="1"/>
        <pt x="507" y="321" on="0"/>
        <pt x="646" y="322" on="0"/>
        <pt x="715" y="322" on="1"/>
        <pt x="722" y="237" on="0"/>
        <pt x="724" y="69" on="0"/>
      </contour>
    </TTGlyph>
    <TTGlyph name="H" xMin="77" yMin="-15" xMax="695" yMax="743">
      <contour>
        <pt x="695" y="3" on="1"/>
        <pt x="496" y="-2" on="1"/>
        <pt x="494" y="63" on="0"/>
        <pt x="492" y="191" on="0"/>
        <pt x="490" y="256" on="1"/>
        <pt x="302" y="247" on="1"/>
        <pt x="301" y="237" on="0"/>
        <pt x="301" y="218" on="0"/>
        <pt x="301" y="209" on="1"/>
        <pt x="301" y="153" on="0"/>
        <pt x="310" y="42" on="0"/>
        <pt x="315" y="-13" on="1"/>
        <pt x="295" y="-14" on="0"/>
        <pt x="254" y="-15" on="0"/>
        <pt x="234" y="-15" on="1"/>
        <pt x="195" y="-15" on="0"/>
        <pt x="116" y="-12" on="0"/>
        <pt x="77" y="-12" on="1"/>
        <pt x="79" y="81" on="0"/>
        <pt x="85" y="263" on="0"/>
        <pt x="87" y="356" on="1"/>
        <pt x="89" y="447" on="0"/>
        <pt x="90" y="625" on="0"/>
        <pt x="91" y="715" on="1"/>
        <pt x="258" y="715" on="1"/>
        <pt x="266" y="640" on="0"/>
        <pt x="272" y="491" on="0"/>
        <pt x="278" y="416" on="1"/>
        <pt x="326" y="417" on="0"/>
        <pt x="420" y="417" on="0"/>
        <pt x="469" y="418" on="1"/>
        <pt x="479" y="742" on="1"/>
        <pt x="493" y="743" on="0"/>
        <pt x="520" y="743" on="0"/>
        <pt x="534" y="743" on="1"/>
        <pt x="574" y="743" on="0"/>
        <pt x="651" y="739" on="0"/>
        <pt x="690" y="732" on="1"/>
        <pt x="695" y="549" on="0"/>
        <pt x="693" y="186" on="0"/>
      </contour>
    </TTGlyph>
    <TTGlyph name="I" xMin="26" yMin="-33" xMax="460" yMax="734">
      <contour>
        <pt x="460" y="734" on="1"/>
        <pt x="455" y="673" on="0"/>
        <pt x="457" y="552" on="0"/>
        <pt x="455" y="492" on="1"/>
        <pt x="344" y="496" on="1"/>
        <pt x="343" y="461" on="0"/>
        <pt x="342" y="393" on="0"/>
        <pt x="342" y="358" on="1"/>
        <pt x="342" y="316" on="0"/>
        <pt x="343" y="235" on="0"/>
        <pt x="344" y="193" on="1"/>
        <pt x="446" y="191" on="1"/>
        <pt x="444" y="162" on="0"/>
        <pt x="444" y="102" on="0"/>
        <pt x="444" y="72" on="1"/>
        <pt x="444" y="47" on="0"/>
        <pt x="447" y="-3" on="0"/>
        <pt x="452" y="-27" on="1"/>
        <pt x="93" y="-33" on="1"/>
        <pt x="93" y="16" on="0"/>
        <pt x="91" y="111" on="0"/>
        <pt x="88" y="160" on="1"/>
        <pt x="153" y="161" on="1"/>
        <pt x="148" y="255" on="0"/>
        <pt x="135" y="439" on="0"/>
        <pt x="128" y="532" on="1"/>
        <pt x="33" y="544" on="1"/>
        <pt x="31" y="586" on="0"/>
        <pt x="28" y="669" on="0"/>
        <pt x="26" y="711" on="1"/>
        <pt x="135" y="715" on="0"/>
        <pt x="350" y="726" on="0"/>
      </contour>
    </TTGlyph>
    <TTGlyph name="Iacute" xMin="26" yMin="-33" xMax="460" yMax="1037">
      <component glyphName="I" x="0" y="0" flags="0x204"/>
      <component glyphName="acute" x="-183" y="174" flags="0x4"/>
    </TTGlyph>
    <TTGlyph name="Icircumflex" xMin="26" yMin="-33" xMax="460" yMax="1054">
      <component glyphName="I" x="0" y="0" flags="0x204"/>
      <component glyphName="circumflex" x="-245" y="205" flags="0x4"/>
    </TTGlyph>
    <TTGlyph name="Idieresis" xMin="26" yMin="-33" xMax="467" yMax="1024">
      <component glyphName="I" x="0" y="0" flags="0x204"/>
      <component glyphName="dieresis" x="-224" y="205" flags="0x4"/>
    </TTGlyph>
    <TTGlyph name="Igrave" xMin="26" yMin="-33" xMax="460" yMax="1047">
      <component glyphName="I" x="0" y="0" flags="0x204"/>
      <component glyphName="grave" x="-265" y="184" flags="0x4"/>
    </TTGlyph>
    <TTGlyph name="J" xMin="10" yMin="-15" xMax="556" yMax="774">
      <contour>
        <pt x="556" y="345" on="1"/>
        <pt x="556" y="321" on="0"/>
        <pt x="552" y="253" on="0"/>
        <pt x="542" y="181" on="0"/>
        <pt x="525" y="115" on="0"/>
        <pt x="512" y="93" on="1"/>
        <pt x="490" y="55" on="0"/>
        <pt x="425" y="12" on="0"/>
        <pt x="350" y="-9" on="0"/>
        <pt x="268" y="-15" on="0"/>
        <pt x="228" y="-15" on="1"/>
        <pt x="194" y="-15" on="0"/>
        <pt x="143" y="-11" on="0"/>
        <pt x="96" y="-1" on="0"/>
        <pt x="47" y="19" on="0"/>
        <pt x="17" y="34" on="1"/>
        <pt x="13" y="81" on="0"/>
        <pt x="12" y="174" on="0"/>
        <pt x="10" y="222" on="1"/>
        <pt x="41" y="217" on="0"/>
        <pt x="91" y="207" on="0"/>
        <pt x="139" y="199" on="0"/>
        <pt x="189" y="194" on="0"/>
        <pt x="221" y="194" on="1"/>
        <pt x="241" y="194" on="0"/>
        <pt x="290" y="199" on="0"/>
        <pt x="306" y="212" on="1"/>
        <pt x="316" y="220" on="0"/>
        <pt x="328" y="256" on="0"/>
        <pt x="333" y="298" on="0"/>
        <pt x="334" y="338" on="0"/>
        <pt x="334" y="350" on="1"/>
        <pt x="334" y="425" on="0"/>
        <pt x="318" y="575" on="0"/>
        <pt x="306" y="649" on="1"/>
        <pt x="301" y="678" on="0"/>
        <pt x="293" y="736" on="0"/>
        <pt x="284" y="763" on="1"/>
        <pt x="295" y="762" on="0"/>
        <pt x="318" y="762" on="0"/>
        <pt x="331" y="762" on="1"/>
        <pt x="381" y="762" on="0"/>
        <pt x="479" y="767" on="0"/>
        <pt x="529" y="774" on="1"/>
        <pt x="540" y="681" on="0"/>
        <pt x="549" y="500" on="0"/>
        <pt x="554" y="407" on="1"/>
        <pt x="555" y="391" on="0"/>
        <pt x="556" y="361" on="0"/>
      </contour>
    </TTGlyph>
    <TTGlyph name="K" xMin="56" yMin="-33" xMax="838" yMax="742">
      <contour>
        <pt x="838" y="5" on="1"/>
        <pt x="790" y="-6" on="0"/>
        <pt x="695" y="-25" on="0"/>
        <pt x="646" y="-33" on="1"/>
        <pt x="586" y="58" on="0"/>
        <pt x="469" y="235" on="0"/>
        <pt x="406" y="323" on="1"/>
        <pt x="299" y="219" on="1"/>
        <pt x="289" y="-3" on="1"/>
        <pt x="266" y="-2" on="0"/>
        <pt x="221" y="-1" on="0"/>
        <pt x="199" y="-1" on="1"/>
        <pt x="178" y="-1" on="0"/>
        <pt x="138" y="-3" on="0"/>
        <pt x="118" y="-6" on="1"/>
        <pt x="106" y="86" on="0"/>
        <pt x="85" y="269" on="0"/>
        <pt x="77" y="362" on="1"/>
        <pt x="69" y="455" on="0"/>
        <pt x="60" y="640" on="0"/>
        <pt x="56" y="733" on="1"/>
        <pt x="131" y="731" on="0"/>
        <pt x="278" y="730" on="0"/>
        <pt x="353" y="728" on="1"/>
        <pt x="347" y="496" on="1"/>
        <pt x="401" y="552" on="0"/>
        <pt x="497" y="668" on="0"/>
        <pt x="548" y="728" on="1"/>
        <pt x="596" y="731" on="0"/>
        <pt x="694" y="738" on="0"/>
        <pt x="742" y="742" on="1"/>
        <pt x="738" y="668" on="1"/>
        <pt x="526" y="447" on="1"/>
        <pt x="602" y="334" on="0"/>
        <pt x="757" y="116" on="0"/>
      </contour>
    </TTGlyph>
    <TTGlyph name="L" xMin="61" yMin="-7" xMax="553" yMax="765">
      <contour>
        <pt x="553" y="25" on="1"/>
        <pt x="434" y="16" on="0"/>
        <pt x="199" y="0" on="0"/>
        <pt x="80" y="-7" on="1"/>
        <pt x="75" y="184" on="0"/>
        <pt x="69" y="561" on="0"/>
        <pt x="61" y="753" on="1"/>
        <pt x="128" y="754" on="0"/>
        <pt x="258" y="760" on="0"/>
        <pt x="324" y="765" on="1"/>
        <pt x="313" y="691" on="0"/>
        <pt x="294" y="542" on="0"/>
        <pt x="289" y="467" on="1"/>
        <pt x="285" y="404" on="0"/>
        <pt x="280" y="279" on="0"/>
        <pt x="278" y="216" on="1"/>
        <pt x="344" y="214" on="0"/>
        <pt x="473" y="214" on="0"/>
        <pt x="538" y="212" on="1"/>
      </contour>
    </TTGlyph>
    <TTGlyph name="Lslash" xMin="15" yMin="-7" xMax="565" yMax="765">
      <contour>
        <pt x="401" y="417" on="1"/>
        <pt x="297" y="379" on="1"/>
        <pt x="295" y="338" on="0"/>
        <pt x="293" y="257" on="0"/>
        <pt x="291" y="216" on="1"/>
        <pt x="357" y="214" on="0"/>
        <pt x="486" y="214" on="0"/>
        <pt x="551" y="212" on="1"/>
        <pt x="565" y="25" on="1"/>
        <pt x="447" y="16" on="0"/>
        <pt x="212" y="0" on="0"/>
        <pt x="93" y="-7" on="1"/>
        <pt x="91" y="71" on="0"/>
        <pt x="88" y="225" on="0"/>
        <pt x="86" y="302" on="1"/>
        <pt x="40" y="286" on="1"/>
        <pt x="15" y="362" on="1"/>
        <pt x="32" y="370" on="0"/>
        <pt x="67" y="383" on="0"/>
        <pt x="85" y="390" on="1"/>
        <pt x="83" y="481" on="0"/>
        <pt x="78" y="662" on="0"/>
        <pt x="75" y="753" on="1"/>
        <pt x="141" y="754" on="0"/>
        <pt x="271" y="760" on="0"/>
        <pt x="337" y="765" on="1"/>
        <pt x="327" y="692" on="0"/>
        <pt x="307" y="545" on="0"/>
        <pt x="302" y="471" on="1"/>
        <pt x="366" y="494" on="1"/>
      </contour>
    </TTGlyph>
    <TTGlyph name="M" xMin="77" yMin="-46" xMax="921" yMax="773">
      <contour>
        <pt x="921" y="-17" on="1"/>
        <pt x="902" y="-16" on="0"/>
        <pt x="884" y="-14" on="1"/>
        <pt x="869" y="-12" on="0"/>
        <pt x="840" y="-10" on="0"/>
        <pt x="833" y="-10" on="1"/>
        <pt x="794" y="-10" on="0"/>
        <pt x="716" y="-13" on="0"/>
        <pt x="678" y="-17" on="1"/>
        <pt x="679" y="25" on="0"/>
        <pt x="680" y="106" on="0"/>
        <pt x="680" y="148" on="1"/>
        <pt x="680" y="223" on="0"/>
        <pt x="675" y="371" on="0"/>
        <pt x="673" y="445" on="1"/>
        <pt x="463" y="-30" on="1"/>
        <pt x="417" y="95" on="0"/>
        <pt x="312" y="336" on="0"/>
        <pt x="255" y="456" on="1"/>
        <pt x="271" y="-38" on="1"/>
        <pt x="260" y="-38" on="0"/>
        <pt x="237" y="-37" on="0"/>
        <pt x="225" y="-37" on="1"/>
        <pt x="187" y="-37" on="0"/>
        <pt x="114" y="-43" on="0"/>
        <pt x="77" y="-46" on="1"/>
        <pt x="82" y="47" on="0"/>
        <pt x="92" y="231" on="0"/>
        <pt x="92" y="324" on="1"/>
        <pt x="92" y="433" on="0"/>
        <pt x="89" y="649" on="0"/>
        <pt x="88" y="758" on="1"/>
        <pt x="160" y="758" on="0"/>
        <pt x="297" y="766" on="0"/>
        <pt x="369" y="773" on="1"/>
        <pt x="393" y="693" on="0"/>
        <pt x="444" y="536" on="0"/>
        <pt x="473" y="458" on="1"/>
        <pt x="504" y="532" on="0"/>
        <pt x="583" y="674" on="0"/>
        <pt x="624" y="744" on="1"/>
        <pt x="692" y="746" on="0"/>
        <pt x="825" y="750" on="0"/>
        <pt x="893" y="751" on="1"/>
        <pt x="896" y="661" on="0"/>
        <pt x="905" y="485" on="0"/>
        <pt x="909" y="395" on="1"/>
        <pt x="912" y="324" on="0"/>
        <pt x="917" y="182" on="0"/>
        <pt x="919" y="112" on="1"/>
        <pt x="921" y="28" on="1"/>
      </contour>
    </TTGlyph>
    <TTGlyph name="N" xMin="77" yMin="-33" xMax="851" yMax="776">
      <contour>
        <pt x="851" y="322" on="1"/>
        <pt x="851" y="234" on="0"/>
        <pt x="850" y="63" on="0"/>
        <pt x="849" y="-25" on="1"/>
        <pt x="787" y="-22" on="0"/>
        <pt x="726" y="-22" on="1"/>
        <pt x="696" y="-22" on="0"/>
        <pt x="635" y="-28" on="0"/>
        <pt x="605" y="-33" on="1"/>
        <pt x="567" y="50" on="0"/>
        <pt x="491" y="213" on="0"/>
        <pt x="453" y="296" on="1"/>
        <pt x="425" y="357" on="0"/>
        <pt x="375" y="479" on="0"/>
        <pt x="350" y="541" on="1"/>
        <pt x="341" y="406" on="0"/>
        <pt x="322" y="139" on="0"/>
        <pt x="316" y="4" on="1"/>
        <pt x="100" y="10" on="1"/>
        <pt x="95" y="202" on="0"/>
        <pt x="87" y="582" on="0"/>
        <pt x="77" y="774" on="1"/>
        <pt x="468" y="776" on="1"/>
        <pt x="488" y="726" on="0"/>
        <pt x="523" y="625" on="0"/>
        <pt x="539" y="573" on="1"/>
        <pt x="562" y="494" on="0"/>
        <pt x="620" y="339" on="0"/>
        <pt x="649" y="261" on="1"/>
        <pt x="648" y="386" on="0"/>
        <pt x="641" y="634" on="0"/>
        <pt x="639" y="760" on="1"/>
        <pt x="841" y="736" on="1"/>
        <pt x="845" y="632" on="0"/>
        <pt x="851" y="426" on="0"/>
      </contour>
    </TTGlyph>
    <TTGlyph name="Ntilde" xMin="77" yMin="-33" xMax="851" yMax="1014">
      <component glyphName="N" x="0" y="0" flags="0x204"/>
      <component glyphName="tilde" x="10" y="195" flags="0x4"/>
    </TTGlyph>
    <TTGlyph name="O" xMin="61" yMin="1" xMax="895" yMax="778">
      <contour>
        <pt x="895" y="427" on="1"/>
        <pt x="895" y="414" on="0"/>
        <pt x="895" y="389" on="0"/>
        <pt x="894" y="377" on="1"/>
        <pt x="893" y="367" on="0"/>
        <pt x="890" y="317" on="0"/>
        <pt x="885" y="252" on="0"/>
        <pt x="878" y="180" on="0"/>
        <pt x="869" y="119" on="0"/>
        <pt x="859" y="75" on="0"/>
        <pt x="854" y="70" on="1"/>
        <pt x="824" y="40" on="0"/>
        <pt x="741" y="11" on="0"/>
        <pt x="651" y="1" on="0"/>
        <pt x="561" y="3" on="0"/>
        <pt x="522" y="3" on="1"/>
        <pt x="509" y="3" on="0"/>
        <pt x="447" y="4" on="0"/>
        <pt x="368" y="6" on="0"/>
        <pt x="282" y="11" on="0"/>
        <pt x="207" y="20" on="0"/>
        <pt x="152" y="33" on="0"/>
        <pt x="145" y="43" on="1"/>
        <pt x="137" y="54" on="0"/>
        <pt x="125" y="80" on="0"/>
        <pt x="120" y="92" on="1"/>
        <pt x="107" y="125" on="0"/>
        <pt x="85" y="200" on="0"/>
        <pt x="70" y="279" on="0"/>
        <pt x="61" y="357" on="0"/>
        <pt x="61" y="392" on="1"/>
        <pt x="61" y="411" on="0"/>
        <pt x="67" y="472" on="0"/>
        <pt x="77" y="543" on="0"/>
        <pt x="91" y="617" on="0"/>
        <pt x="108" y="681" on="0"/>
        <pt x="128" y="728" on="0"/>
        <pt x="140" y="736" on="1"/>
        <pt x="150" y="743" on="0"/>
        <pt x="204" y="755" on="0"/>
        <pt x="276" y="764" on="0"/>
        <pt x="358" y="771" on="0"/>
        <pt x="432" y="776" on="0"/>
        <pt x="492" y="778" on="0"/>
        <pt x="506" y="778" on="1"/>
        <pt x="525" y="778" on="0"/>
        <pt x="590" y="774" on="0"/>
        <pt x="666" y="765" on="0"/>
        <pt x="744" y="752" on="0"/>
        <pt x="811" y="734" on="0"/>
        <pt x="859" y="712" on="0"/>
        <pt x="865" y="699" on="1"/>
        <pt x="870" y="688" on="0"/>
        <pt x="879" y="647" on="0"/>
        <pt x="885" y="595" on="0"/>
        <pt x="890" y="537" on="0"/>
        <pt x="893" y="484" on="0"/>
        <pt x="895" y="440" on="0"/>
      </contour>
      <contour>
        <pt x="716" y="394" on="1"/>
        <pt x="716" y="414" on="0"/>
        <pt x="712" y="459" on="0"/>
        <pt x="701" y="476" on="1"/>
        <pt x="693" y="488" on="0"/>
        <pt x="632" y="502" on="0"/>
        <pt x="559" y="508" on="0"/>
        <pt x="491" y="509" on="0"/>
        <pt x="477" y="509" on="1"/>
        <pt x="466" y="509" on="0"/>
        <pt x="411" y="505" on="0"/>
        <pt x="350" y="496" on="0"/>
        <pt x="298" y="483" on="0"/>
        <pt x="292" y="474" on="1"/>
        <pt x="286" y="467" on="0"/>
        <pt x="279" y="428" on="0"/>
        <pt x="274" y="383" on="0"/>
        <pt x="272" y="342" on="0"/>
        <pt x="272" y="333" on="1"/>
        <pt x="272" y="325" on="0"/>
        <pt x="273" y="293" on="0"/>
        <pt x="277" y="259" on="0"/>
        <pt x="282" y="229" on="0"/>
        <pt x="287" y="222" on="1"/>
        <pt x="290" y="217" on="0"/>
        <pt x="320" y="209" on="0"/>
        <pt x="363" y="202" on="0"/>
        <pt x="411" y="198" on="0"/>
        <pt x="456" y="195" on="0"/>
        <pt x="491" y="194" on="0"/>
        <pt x="498" y="194" on="1"/>
        <pt x="510" y="194" on="0"/>
        <pt x="569" y="198" on="0"/>
        <pt x="634" y="207" on="0"/>
        <pt x="689" y="220" on="0"/>
        <pt x="697" y="229" on="1"/>
        <pt x="703" y="236" on="0"/>
        <pt x="711" y="281" on="0"/>
        <pt x="715" y="334" on="0"/>
        <pt x="716" y="383" on="0"/>
      </contour>
    </TTGlyph>
    <TTGlyph name="OE" xMin="61" yMin="-43" xMax="1245" yMax="750">
      <contour>
        <pt x="1245" y="586" on="1"/>
        <pt x="1146" y="581" on="0"/>
        <pt x="954" y="568" on="0"/>
        <pt x="856" y="560" on="1"/>
        <pt x="853" y="481" on="1"/>
        <pt x="1112" y="498" on="1"/>
        <pt x="1117" y="464" on="0"/>
        <pt x="1121" y="398" on="0"/>
        <pt x="1121" y="364" on="1"/>
        <pt x="1121" y="348" on="0"/>
        <pt x="1121" y="319" on="0"/>
        <pt x="1120" y="304" on="1"/>
        <pt x="881" y="262" on="1"/>
        <pt x="895" y="137" on="1"/>
        <pt x="972" y="143" on="0"/>
        <pt x="1123" y="163" on="0"/>
        <pt x="1199" y="168" on="1"/>
        <pt x="1206" y="118" on="0"/>
        <pt x="1221" y="18" on="0"/>
        <pt x="1233" y="-31" on="1"/>
        <pt x="1191" y="-30" on="0"/>
        <pt x="1109" y="-30" on="0"/>
        <pt x="1067" y="-30" on="1"/>
        <pt x="967" y="-30" on="0"/>
        <pt x="770" y="-32" on="0"/>
        <pt x="670" y="-32" on="1"/>
        <pt x="672" y="54" on="1"/>
        <pt x="667" y="48" on="0"/>
        <pt x="644" y="22" on="0"/>
        <pt x="618" y="-4" on="0"/>
        <pt x="592" y="-26" on="0"/>
        <pt x="584" y="-27" on="1"/>
        <pt x="554" y="-32" on="0"/>
        <pt x="485" y="-38" on="0"/>
        <pt x="414" y="-41" on="0"/>
        <pt x="344" y="-43" on="0"/>
        <pt x="314" y="-43" on="1"/>
        <pt x="306" y="-43" on="0"/>
        <pt x="282" y="-43" on="0"/>
        <pt x="256" y="-41" on="0"/>
        <pt x="233" y="-38" on="0"/>
        <pt x="226" y="-36" on="1"/>
        <pt x="195" y="-25" on="0"/>
        <pt x="147" y="31" on="0"/>
        <pt x="111" y="105" on="0"/>
        <pt x="85" y="192" on="0"/>
        <pt x="68" y="277" on="0"/>
        <pt x="61" y="356" on="0"/>
        <pt x="61" y="385" on="1"/>
        <pt x="61" y="421" on="0"/>
        <pt x="84" y="512" on="0"/>
        <pt x="122" y="603" on="0"/>
        <pt x="171" y="683" on="0"/>
        <pt x="197" y="709" on="1"/>
        <pt x="211" y="723" on="0"/>
        <pt x="269" y="739" on="0"/>
        <pt x="334" y="748" on="0"/>
        <pt x="396" y="750" on="0"/>
        <pt x="415" y="750" on="1"/>
        <pt x="430" y="750" on="0"/>
        <pt x="490" y="748" on="0"/>
        <pt x="554" y="742" on="0"/>
        <pt x="611" y="730" on="0"/>
        <pt x="623" y="721" on="1"/>
        <pt x="630" y="715" on="0"/>
        <pt x="645" y="697" on="0"/>
        <pt x="660" y="676" on="0"/>
        <pt x="673" y="655" on="0"/>
        <pt x="677" y="647" on="1"/>
        <pt x="675" y="726" on="1"/>
        <pt x="754" y="725" on="0"/>
        <pt x="912" y="726" on="0"/>
        <pt x="992" y="726" on="1"/>
        <pt x="1052" y="726" on="0"/>
        <pt x="1173" y="722" on="0"/>
        <pt x="1233" y="719" on="1"/>
      </contour>
      <contour>
        <pt x="634" y="332" on="1"/>
        <pt x="634" y="344" on="0"/>
        <pt x="631" y="402" on="0"/>
        <pt x="625" y="465" on="0"/>
        <pt x="614" y="518" on="0"/>
        <pt x="606" y="527" on="1"/>
        <pt x="599" y="535" on="0"/>
        <pt x="554" y="543" on="0"/>
        <pt x="502" y="547" on="0"/>
        <pt x="453" y="548" on="0"/>
        <pt x="443" y="548" on="1"/>
        <pt x="435" y="548" on="0"/>
        <pt x="391" y="547" on="0"/>
        <pt x="342" y="545" on="0"/>
        <pt x="300" y="541" on="0"/>
        <pt x="294" y="538" on="1"/>
        <pt x="286" y="533" on="0"/>
        <pt x="277" y="499" on="0"/>
        <pt x="273" y="459" on="0"/>
        <pt x="272" y="421" on="0"/>
        <pt x="272" y="413" on="1"/>
        <pt x="272" y="404" on="0"/>
        <pt x="274" y="358" on="0"/>
        <pt x="278" y="297" on="0"/>
        <pt x="285" y="231" on="0"/>
        <pt x="295" y="175" on="0"/>
        <pt x="309" y="136" on="0"/>
        <pt x="319" y="134" on="1"/>
        <pt x="333" y="130" on="0"/>
        <pt x="365" y="131" on="0"/>
        <pt x="379" y="131" on="1"/>
        <pt x="394" y="131" on="0"/>
        <pt x="464" y="134" on="0"/>
        <pt x="539" y="143" on="0"/>
        <pt x="601" y="159" on="0"/>
        <pt x="609" y="173" on="1"/>
        <pt x="617" y="186" on="0"/>
        <pt x="627" y="228" on="0"/>
        <pt x="632" y="273" on="0"/>
        <pt x="634" y="317" on="0"/>
      </contour>
    </TTGlyph>
    <TTGlyph name="Oacute" xMin="61" yMin="1" xMax="895" yMax="1078">
      <component glyphName="O" x="0" y="0" flags="0x204"/>
      <component glyphName="acute" x="72" y="215" flags="0x4"/>
    </TTGlyph>
    <TTGlyph name="Ocircumflex" xMin="61" yMin="1" xMax="895" yMax="1074">
      <component glyphName="O" x="0" y="0" flags="0x204"/>
      <component glyphName="circumflex" x="31" y="225" flags="0x4"/>
    </TTGlyph>
    <TTGlyph name="Odieresis" xMin="61" yMin="1" xMax="895" yMax="1044">
      <component glyphName="O" x="0" y="0" flags="0x204"/>
      <component glyphName="dieresis" x="31" y="225" flags="0x4"/>
    </TTGlyph>
    <TTGlyph name="Ograve" xMin="61" yMin="1" xMax="895" yMax="1068">
      <component glyphName="O" x="0" y="0" flags="0x204"/>
      <component glyphName="grave" x="20" y="205" flags="0x4"/>
    </TTGlyph>
    <TTGlyph name="Oslash" xMin="-31" yMin="-32" xMax="765" yMax="821">
      <contour>
        <pt x="765" y="748" on="1"/>
        <pt x="668" y="640" on="1"/>
        <pt x="673" y="571" on="0"/>
        <pt x="676" y="435" on="0"/>
        <pt x="676" y="366" on="1"/>
        <pt x="676" y="346" on="0"/>
        <pt x="674" y="278" on="0"/>
        <pt x="667" y="207" on="0"/>
        <pt x="652" y="144" on="0"/>
        <pt x="640" y="129" on="1"/>
        <pt x="600" y="79" on="0"/>
        <pt x="527" y="29" on="0"/>
        <pt x="448" y="7" on="0"/>
        <pt x="356" y="6" on="0"/>
        <pt x="296" y="6" on="1"/>
        <pt x="287" y="6" on="0"/>
        <pt x="254" y="6" on="0"/>
        <pt x="218" y="9" on="0"/>
        <pt x="187" y="13" on="0"/>
        <pt x="179" y="18" on="1"/>
        <pt x="165" y="27" on="0"/>
        <pt x="138" y="62" on="0"/>
        <pt x="133" y="77" on="1"/>
        <pt x="25" y="-32" on="1"/>
        <pt x="14" y="-23" on="0"/>
        <pt x="-2" y="-7" on="0"/>
        <pt x="-15" y="9" on="0"/>
        <pt x="-25" y="29" on="0"/>
        <pt x="-31" y="42" on="1"/>
        <pt x="101" y="176" on="1"/>
        <pt x="96" y="205" on="0"/>
        <pt x="88" y="272" on="0"/>
        <pt x="81" y="341" on="0"/>
        <pt x="77" y="408" on="0"/>
        <pt x="77" y="438" on="1"/>
        <pt x="77" y="456" on="0"/>
        <pt x="81" y="521" on="0"/>
        <pt x="90" y="591" on="0"/>
        <pt x="104" y="652" on="0"/>
        <pt x="115" y="667" on="1"/>
        <pt x="140" y="701" on="0"/>
        <pt x="204" y="740" on="0"/>
        <pt x="277" y="760" on="0"/>
        <pt x="356" y="765" on="0"/>
        <pt x="396" y="765" on="1"/>
        <pt x="414" y="765" on="0"/>
        <pt x="469" y="762" on="0"/>
        <pt x="526" y="753" on="0"/>
        <pt x="576" y="738" on="0"/>
        <pt x="588" y="726" on="1"/>
        <pt x="678" y="821" on="1"/>
        <pt x="709" y="808" on="0"/>
        <pt x="745" y="774" on="0"/>
      </contour>
      <contour>
        <pt x="475" y="595" on="1"/>
        <pt x="475" y="614" on="0"/>
        <pt x="463" y="636" on="0"/>
        <pt x="442" y="647" on="0"/>
        <pt x="415" y="649" on="0"/>
        <pt x="399" y="649" on="1"/>
        <pt x="386" y="649" on="0"/>
        <pt x="353" y="647" on="0"/>
        <pt x="320" y="641" on="0"/>
        <pt x="289" y="631" on="0"/>
        <pt x="278" y="622" on="1"/>
        <pt x="270" y="616" on="0"/>
        <pt x="261" y="570" on="0"/>
        <pt x="257" y="517" on="0"/>
        <pt x="255" y="470" on="0"/>
        <pt x="255" y="462" on="1"/>
        <pt x="255" y="428" on="0"/>
        <pt x="258" y="361" on="0"/>
        <pt x="260" y="328" on="1"/>
      </contour>
      <contour>
        <pt x="494" y="454" on="1"/>
        <pt x="266" y="178" on="1"/>
        <pt x="266" y="175" on="0"/>
        <pt x="267" y="159" on="0"/>
        <pt x="271" y="142" on="0"/>
        <pt x="278" y="128" on="0"/>
        <pt x="283" y="126" on="1"/>
        <pt x="288" y="124" on="0"/>
        <pt x="309" y="122" on="0"/>
        <pt x="333" y="120" on="0"/>
        <pt x="355" y="120" on="0"/>
        <pt x="361" y="120" on="1"/>
        <pt x="369" y="120" on="0"/>
        <pt x="392" y="120" on="0"/>
        <pt x="415" y="123" on="0"/>
        <pt x="437" y="127" on="0"/>
        <pt x="443" y="132" on="1"/>
        <pt x="452" y="139" on="0"/>
        <pt x="467" y="185" on="0"/>
        <pt x="478" y="248" on="0"/>
        <pt x="486" y="320" on="0"/>
        <pt x="491" y="387" on="0"/>
        <pt x="494" y="441" on="0"/>
      </contour>
    </TTGlyph>
    <TTGlyph name="Otilde" xMin="61" yMin="1" xMax="895" yMax="1014">
      <component glyphName="O" x="0" y="0" flags="0x204"/>
      <component glyphName="tilde" x="31" y="195" flags="0x4"/>
    </TTGlyph>
    <TTGlyph name="P" xMin="92" yMin="11" xMax="803" yMax="749">
      <contour>
        <pt x="803" y="502" on="1"/>
        <pt x="803" y="480" on="0"/>
        <pt x="798" y="418" on="0"/>
        <pt x="787" y="354" on="0"/>
        <pt x="767" y="298" on="0"/>
        <pt x="752" y="282" on="1"/>
        <pt x="746" y="275" on="0"/>
        <pt x="681" y="262" on="0"/>
        <pt x="590" y="249" on="0"/>
        <pt x="486" y="237" on="0"/>
        <pt x="393" y="228" on="0"/>
        <pt x="325" y="222" on="0"/>
        <pt x="316" y="222" on="1"/>
        <pt x="308" y="14" on="1"/>
        <pt x="277" y="12" on="0"/>
        <pt x="217" y="15" on="0"/>
        <pt x="186" y="15" on="1"/>
        <pt x="166" y="15" on="0"/>
        <pt x="126" y="13" on="0"/>
        <pt x="106" y="11" on="1"/>
        <pt x="106" y="105" on="0"/>
        <pt x="106" y="289" on="0"/>
        <pt x="102" y="383" on="1"/>
        <pt x="99" y="468" on="0"/>
        <pt x="94" y="636" on="0"/>
        <pt x="92" y="721" on="1"/>
        <pt x="195" y="728" on="0"/>
        <pt x="404" y="749" on="0"/>
        <pt x="508" y="749" on="1"/>
        <pt x="526" y="749" on="0"/>
        <pt x="604" y="742" on="0"/>
        <pt x="690" y="727" on="0"/>
        <pt x="763" y="705" on="0"/>
        <pt x="775" y="691" on="1"/>
        <pt x="783" y="682" on="0"/>
        <pt x="794" y="630" on="0"/>
        <pt x="800" y="571" on="0"/>
        <pt x="803" y="515" on="0"/>
      </contour>
      <contour>
        <pt x="523" y="509" on="1"/>
        <pt x="523" y="518" on="0"/>
        <pt x="521" y="546" on="0"/>
        <pt x="516" y="573" on="0"/>
        <pt x="506" y="596" on="0"/>
        <pt x="498" y="601" on="1"/>
        <pt x="493" y="604" on="0"/>
        <pt x="471" y="608" on="0"/>
        <pt x="447" y="610" on="0"/>
        <pt x="425" y="611" on="0"/>
        <pt x="420" y="611" on="1"/>
        <pt x="383" y="611" on="0"/>
        <pt x="309" y="603" on="0"/>
        <pt x="271" y="597" on="1"/>
        <pt x="274" y="567" on="0"/>
        <pt x="275" y="509" on="0"/>
        <pt x="275" y="480" on="1"/>
        <pt x="275" y="433" on="0"/>
        <pt x="278" y="385" on="1"/>
        <pt x="291" y="385" on="0"/>
        <pt x="355" y="388" on="0"/>
        <pt x="425" y="395" on="0"/>
        <pt x="487" y="408" on="0"/>
        <pt x="498" y="419" on="1"/>
        <pt x="516" y="436" on="0"/>
        <pt x="523" y="485" on="0"/>
      </contour>
    </TTGlyph>
    <TTGlyph name="Q" xMin="72" yMin="-160" xMax="902" yMax="751">
      <contour>
        <pt x="902" y="515" on="1"/>
        <pt x="902" y="498" on="0"/>
        <pt x="901" y="430" on="0"/>
        <pt x="897" y="345" on="0"/>
        <pt x="890" y="254" on="0"/>
        <pt x="878" y="174" on="0"/>
        <pt x="861" y="114" on="0"/>
        <pt x="849" y="104" on="1"/>
        <pt x="840" y="96" on="0"/>
        <pt x="811" y="80" on="0"/>
        <pt x="780" y="66" on="0"/>
        <pt x="750" y="55" on="0"/>
        <pt x="738" y="52" on="1"/>
        <pt x="757" y="7" on="0"/>
        <pt x="793" y="-80" on="0"/>
        <pt x="811" y="-125" on="1"/>
        <pt x="663" y="-160" on="1"/>
        <pt x="634" y="-118" on="0"/>
        <pt x="583" y="-34" on="0"/>
        <pt x="554" y="7" on="1"/>
        <pt x="546" y="6" on="0"/>
        <pt x="530" y="6" on="0"/>
        <pt x="522" y="6" on="1"/>
        <pt x="505" y="6" on="0"/>
        <pt x="438" y="10" on="0"/>
        <pt x="355" y="18" on="0"/>
        <pt x="265" y="30" on="0"/>
        <pt x="188" y="44" on="0"/>
        <pt x="132" y="62" on="0"/>
        <pt x="124" y="72" on="1"/>
        <pt x="110" y="89" on="0"/>
        <pt x="91" y="168" on="0"/>
        <pt x="79" y="259" on="0"/>
        <pt x="73" y="344" on="0"/>
        <pt x="73" y="366" on="1"/>
        <pt x="72" y="391" on="0"/>
        <pt x="72" y="440" on="0"/>
        <pt x="72" y="466" on="1"/>
        <pt x="72" y="485" on="0"/>
        <pt x="73" y="545" on="0"/>
        <pt x="79" y="609" on="0"/>
        <pt x="93" y="665" on="0"/>
        <pt x="107" y="680" on="1"/>
        <pt x="115" y="689" on="0"/>
        <pt x="170" y="706" on="0"/>
        <pt x="246" y="721" on="0"/>
        <pt x="334" y="733" on="0"/>
        <pt x="418" y="743" on="0"/>
        <pt x="489" y="748" on="0"/>
        <pt x="509" y="749" on="1"/>
        <pt x="538" y="750" on="0"/>
        <pt x="596" y="751" on="0"/>
        <pt x="625" y="751" on="1"/>
        <pt x="663" y="751" on="0"/>
        <pt x="748" y="748" on="0"/>
        <pt x="825" y="725" on="0"/>
        <pt x="884" y="675" on="0"/>
        <pt x="896" y="629" on="1"/>
        <pt x="898" y="620" on="0"/>
        <pt x="901" y="590" on="0"/>
        <pt x="902" y="556" on="0"/>
        <pt x="902" y="524" on="0"/>
      </contour>
      <contour>
        <pt x="686" y="457" on="1"/>
        <pt x="686" y="462" on="0"/>
        <pt x="686" y="478" on="0"/>
        <pt x="684" y="494" on="0"/>
        <pt x="679" y="508" on="0"/>
        <pt x="675" y="512" on="1"/>
        <pt x="670" y="516" on="0"/>
        <pt x="652" y="522" on="0"/>
        <pt x="631" y="524" on="0"/>
        <pt x="610" y="525" on="0"/>
        <pt x="604" y="525" on="1"/>
        <pt x="590" y="525" on="0"/>
        <pt x="531" y="521" on="0"/>
        <pt x="458" y="513" on="0"/>
        <pt x="378" y="502" on="0"/>
        <pt x="310" y="488" on="0"/>
        <pt x="261" y="472" on="0"/>
        <pt x="255" y="463" on="1"/>
        <pt x="251" y="457" on="0"/>
        <pt x="250" y="437" on="0"/>
        <pt x="250" y="429" on="1"/>
        <pt x="250" y="409" on="0"/>
        <pt x="256" y="349" on="0"/>
        <pt x="266" y="285" on="0"/>
        <pt x="277" y="225" on="0"/>
        <pt x="282" y="206" on="1"/>
        <pt x="306" y="197" on="0"/>
        <pt x="344" y="186" on="0"/>
        <pt x="380" y="180" on="0"/>
        <pt x="419" y="177" on="0"/>
        <pt x="445" y="176" on="1"/>
        <pt x="383" y="276" on="1"/>
        <pt x="409" y="289" on="0"/>
        <pt x="455" y="313" on="0"/>
        <pt x="501" y="333" on="0"/>
        <pt x="550" y="349" on="0"/>
        <pt x="579" y="356" on="1"/>
        <pt x="646" y="219" on="1"/>
        <pt x="667" y="276" on="0"/>
        <pt x="686" y="397" on="0"/>
      </contour>
    </TTGlyph>
    <TTGlyph name="R" xMin="72" yMin="-22" xMax="793" yMax="742">
      <contour>
        <pt x="793" y="503" on="1"/>
        <pt x="793" y="421" on="0"/>
        <pt x="693" y="327" on="0"/>
        <pt x="611" y="323" on="1"/>
        <pt x="710" y="158" on="0"/>
        <pt x="784" y="-15" on="1"/>
        <pt x="492" y="-22" on="1"/>
        <pt x="484" y="59" on="0"/>
        <pt x="452" y="195" on="0"/>
        <pt x="423" y="270" on="1"/>
        <pt x="390" y="268" on="0"/>
        <pt x="325" y="262" on="0"/>
        <pt x="293" y="260" on="1"/>
        <pt x="298" y="33" on="1"/>
        <pt x="241" y="30" on="0"/>
        <pt x="184" y="30" on="1"/>
        <pt x="155" y="30" on="0"/>
        <pt x="100" y="32" on="0"/>
        <pt x="72" y="35" on="1"/>
        <pt x="79" y="127" on="0"/>
        <pt x="91" y="310" on="0"/>
        <pt x="92" y="401" on="1"/>
        <pt x="95" y="563" on="0"/>
        <pt x="101" y="725" on="1"/>
        <pt x="195" y="730" on="0"/>
        <pt x="382" y="742" on="0"/>
        <pt x="476" y="742" on="1"/>
        <pt x="500" y="742" on="0"/>
        <pt x="556" y="740" on="0"/>
        <pt x="613" y="731" on="0"/>
        <pt x="666" y="715" on="0"/>
        <pt x="687" y="702" on="1"/>
        <pt x="738" y="670" on="0"/>
        <pt x="793" y="563" on="0"/>
      </contour>
      <contour>
        <pt x="561" y="519" on="1"/>
        <pt x="561" y="527" on="0"/>
        <pt x="560" y="555" on="0"/>
        <pt x="556" y="584" on="0"/>
        <pt x="548" y="609" on="0"/>
        <pt x="541" y="615" on="1"/>
        <pt x="536" y="619" on="0"/>
        <pt x="512" y="623" on="0"/>
        <pt x="485" y="626" on="0"/>
        <pt x="460" y="627" on="0"/>
        <pt x="455" y="627" on="1"/>
        <pt x="415" y="627" on="0"/>
        <pt x="338" y="619" on="0"/>
        <pt x="300" y="613" on="1"/>
        <pt x="327" y="419" on="1"/>
        <pt x="349" y="414" on="0"/>
        <pt x="397" y="410" on="0"/>
        <pt x="420" y="410" on="1"/>
        <pt x="430" y="410" on="0"/>
        <pt x="469" y="412" on="0"/>
        <pt x="510" y="418" on="0"/>
        <pt x="545" y="429" on="0"/>
        <pt x="552" y="438" on="1"/>
        <pt x="555" y="442" on="0"/>
        <pt x="559" y="465" on="0"/>
        <pt x="560" y="490" on="0"/>
        <pt x="561" y="514" on="0"/>
      </contour>
    </TTGlyph>
    <TTGlyph name="S" xMin="61" yMin="10" xMax="824" yMax="793">
      <contour>
        <pt x="824" y="176" on="1"/>
        <pt x="824" y="128" on="0"/>
        <pt x="778" y="69" on="0"/>
        <pt x="736" y="51" on="1"/>
        <pt x="701" y="36" on="0"/>
        <pt x="595" y="19" on="0"/>
        <pt x="481" y="12" on="0"/>
        <pt x="371" y="10" on="0"/>
        <pt x="334" y="10" on="1"/>
        <pt x="271" y="10" on="0"/>
        <pt x="148" y="14" on="0"/>
        <pt x="85" y="18" on="1"/>
        <pt x="88" y="120" on="0"/>
        <pt x="79" y="220" on="1"/>
        <pt x="154" y="218" on="0"/>
        <pt x="303" y="215" on="0"/>
        <pt x="378" y="213" on="1"/>
        <pt x="407" y="212" on="0"/>
        <pt x="466" y="210" on="0"/>
        <pt x="496" y="210" on="1"/>
        <pt x="501" y="210" on="0"/>
        <pt x="521" y="210" on="0"/>
        <pt x="543" y="212" on="0"/>
        <pt x="562" y="216" on="0"/>
        <pt x="567" y="220" on="1"/>
        <pt x="571" y="224" on="0"/>
        <pt x="573" y="239" on="0"/>
        <pt x="573" y="245" on="1"/>
        <pt x="573" y="256" on="0"/>
        <pt x="567" y="287" on="0"/>
        <pt x="561" y="297" on="1"/>
        <pt x="560" y="298" on="0"/>
        <pt x="549" y="300" on="0"/>
        <pt x="535" y="301" on="0"/>
        <pt x="523" y="302" on="0"/>
        <pt x="522" y="302" on="1"/>
        <pt x="458" y="307" on="0"/>
        <pt x="331" y="311" on="0"/>
        <pt x="267" y="316" on="1"/>
        <pt x="238" y="319" on="0"/>
        <pt x="177" y="325" on="0"/>
        <pt x="151" y="333" on="1"/>
        <pt x="126" y="340" on="0"/>
        <pt x="91" y="389" on="0"/>
        <pt x="70" y="452" on="0"/>
        <pt x="61" y="516" on="0"/>
        <pt x="61" y="538" on="1"/>
        <pt x="61" y="574" on="0"/>
        <pt x="75" y="639" on="0"/>
        <pt x="106" y="695" on="0"/>
        <pt x="154" y="738" on="0"/>
        <pt x="189" y="752" on="1"/>
        <pt x="249" y="775" on="0"/>
        <pt x="386" y="793" on="0"/>
        <pt x="449" y="793" on="1"/>
        <pt x="523" y="793" on="0"/>
        <pt x="667" y="775" on="0"/>
        <pt x="739" y="761" on="1"/>
        <pt x="738" y="732" on="0"/>
        <pt x="737" y="675" on="0"/>
        <pt x="737" y="646" on="1"/>
        <pt x="737" y="617" on="0"/>
        <pt x="743" y="558" on="0"/>
        <pt x="746" y="529" on="1"/>
        <pt x="651" y="527" on="0"/>
        <pt x="462" y="524" on="0"/>
        <pt x="366" y="520" on="1"/>
        <pt x="354" y="520" on="0"/>
        <pt x="313" y="518" on="0"/>
        <pt x="275" y="515" on="0"/>
        <pt x="247" y="513" on="0"/>
        <pt x="247" y="513" on="1"/>
        <pt x="242" y="502" on="0"/>
        <pt x="240" y="479" on="0"/>
        <pt x="240" y="467" on="1"/>
        <pt x="240" y="461" on="0"/>
        <pt x="241" y="443" on="0"/>
        <pt x="245" y="438" on="1"/>
        <pt x="246" y="437" on="0"/>
        <pt x="278" y="433" on="0"/>
        <pt x="317" y="429" on="0"/>
        <pt x="352" y="425" on="0"/>
        <pt x="356" y="425" on="1"/>
        <pt x="389" y="422" on="0"/>
        <pt x="478" y="414" on="0"/>
        <pt x="571" y="404" on="0"/>
        <pt x="657" y="389" on="0"/>
        <pt x="689" y="379" on="1"/>
        <pt x="718" y="369" on="0"/>
        <pt x="767" y="326" on="0"/>
        <pt x="803" y="269" on="0"/>
        <pt x="824" y="206" on="0"/>
      </contour>
    </TTGlyph>
    <TTGlyph name="Scaron" xMin="61" yMin="10" xMax="824" yMax="1074">
      <component glyphName="S" x="0" y="0" flags="0x204"/>
      <component glyphName="caron" x="-50" y="225" flags="0x4"/>
    </TTGlyph>
    <TTGlyph name="T" xMin="41" yMin="-10" xMax="644" yMax="766">
      <contour>
        <pt x="644" y="582" on="1"/>
        <pt x="644" y="512" on="1"/>
        <pt x="451" y="502" on="1"/>
        <pt x="447" y="444" on="0"/>
        <pt x="443" y="330" on="0"/>
        <pt x="443" y="273" on="1"/>
        <pt x="443" y="203" on="0"/>
        <pt x="436" y="64" on="0"/>
        <pt x="431" y="-5" on="1"/>
        <pt x="395" y="-7" on="0"/>
        <pt x="323" y="-10" on="0"/>
        <pt x="287" y="-10" on="1"/>
        <pt x="274" y="-10" on="0"/>
        <pt x="249" y="-9" on="0"/>
        <pt x="237" y="-9" on="1"/>
        <pt x="239" y="52" on="0"/>
        <pt x="242" y="173" on="0"/>
        <pt x="242" y="233" on="1"/>
        <pt x="242" y="293" on="0"/>
        <pt x="236" y="414" on="0"/>
        <pt x="232" y="475" on="1"/>
        <pt x="203" y="474" on="0"/>
        <pt x="144" y="472" on="0"/>
        <pt x="114" y="472" on="1"/>
        <pt x="97" y="472" on="0"/>
        <pt x="64" y="472" on="0"/>
        <pt x="47" y="473" on="1"/>
        <pt x="44" y="547" on="0"/>
        <pt x="42" y="693" on="0"/>
        <pt x="41" y="766" on="1"/>
        <pt x="191" y="763" on="0"/>
        <pt x="487" y="752" on="0"/>
        <pt x="636" y="748" on="1"/>
        <pt x="640" y="705" on="0"/>
        <pt x="644" y="624" on="0"/>
      </contour>
    </TTGlyph>
    <TTGlyph name="Thorn" xMin="92" yMin="-51" xMax="806" yMax="834">
      <contour>
        <pt x="806" y="364" on="1"/>
        <pt x="806" y="320" on="0"/>
        <pt x="791" y="248" on="0"/>
        <pt x="755" y="194" on="0"/>
        <pt x="693" y="158" on="0"/>
        <pt x="646" y="151" on="1"/>
        <pt x="614" y="146" on="0"/>
        <pt x="548" y="141" on="0"/>
        <pt x="515" y="141" on="1"/>
        <pt x="458" y="141" on="0"/>
        <pt x="342" y="153" on="0"/>
        <pt x="285" y="162" on="1"/>
        <pt x="279" y="-47" on="1"/>
        <pt x="250" y="-49" on="0"/>
        <pt x="195" y="-49" on="0"/>
        <pt x="166" y="-49" on="1"/>
        <pt x="149" y="-49" on="0"/>
        <pt x="118" y="-49" on="0"/>
        <pt x="101" y="-51" on="1"/>
        <pt x="104" y="35" on="0"/>
        <pt x="112" y="205" on="0"/>
        <pt x="112" y="292" on="1"/>
        <pt x="112" y="303" on="1"/>
        <pt x="112" y="352" on="0"/>
        <pt x="106" y="448" on="0"/>
        <pt x="104" y="497" on="1"/>
        <pt x="102" y="579" on="0"/>
        <pt x="95" y="743" on="0"/>
        <pt x="92" y="824" on="1"/>
        <pt x="137" y="828" on="0"/>
        <pt x="222" y="833" on="0"/>
        <pt x="266" y="834" on="1"/>
        <pt x="281" y="638" on="1"/>
        <pt x="356" y="646" on="0"/>
        <pt x="509" y="660" on="0"/>
        <pt x="586" y="660" on="1"/>
        <pt x="613" y="660" on="0"/>
        <pt x="674" y="648" on="0"/>
        <pt x="729" y="622" on="0"/>
        <pt x="772" y="582" on="0"/>
        <pt x="781" y="554" on="1"/>
        <pt x="788" y="534" on="0"/>
        <pt x="797" y="485" on="0"/>
        <pt x="803" y="434" on="0"/>
        <pt x="806" y="385" on="0"/>
      </contour>
      <contour>
        <pt x="608" y="382" on="1"/>
        <pt x="608" y="393" on="0"/>
        <pt x="604" y="421" on="0"/>
        <pt x="596" y="431" on="1"/>
        <pt x="576" y="454" on="0"/>
        <pt x="517" y="478" on="0"/>
        <pt x="487" y="478" on="1"/>
        <pt x="438" y="478" on="0"/>
        <pt x="327" y="462" on="0"/>
        <pt x="279" y="452" on="1"/>
        <pt x="284" y="293" on="1"/>
        <pt x="322" y="282" on="0"/>
        <pt x="406" y="263" on="0"/>
        <pt x="445" y="263" on="1"/>
        <pt x="455" y="263" on="0"/>
        <pt x="497" y="263" on="0"/>
        <pt x="542" y="265" on="0"/>
        <pt x="580" y="272" on="0"/>
        <pt x="586" y="280" on="1"/>
        <pt x="592" y="287" on="0"/>
        <pt x="600" y="314" on="0"/>
        <pt x="605" y="344" on="0"/>
        <pt x="608" y="373" on="0"/>
      </contour>
    </TTGlyph>
    <TTGlyph name="U" xMin="77" yMin="-23" xMax="818" yMax="766">
      <contour>
        <pt x="818" y="330" on="1"/>
        <pt x="818" y="273" on="0"/>
        <pt x="813" y="161" on="0"/>
        <pt x="805" y="104" on="1"/>
        <pt x="789" y="92" on="0"/>
        <pt x="757" y="71" on="0"/>
        <pt x="740" y="59" on="1"/>
        <pt x="726" y="50" on="0"/>
        <pt x="693" y="27" on="0"/>
        <pt x="657" y="5" on="0"/>
        <pt x="620" y="-12" on="0"/>
        <pt x="604" y="-15" on="1"/>
        <pt x="589" y="-19" on="0"/>
        <pt x="539" y="-18" on="0"/>
        <pt x="522" y="-18" on="1"/>
        <pt x="480" y="-20" on="0"/>
        <pt x="396" y="-22" on="0"/>
        <pt x="352" y="-22" on="1"/>
        <pt x="332" y="-22" on="0"/>
        <pt x="280" y="-23" on="0"/>
        <pt x="259" y="-18" on="1"/>
        <pt x="253" y="-17" on="0"/>
        <pt x="225" y="0" on="0"/>
        <pt x="190" y="25" on="0"/>
        <pt x="152" y="54" on="0"/>
        <pt x="117" y="81" on="0"/>
        <pt x="92" y="102" on="0"/>
        <pt x="87" y="106" on="1"/>
        <pt x="82" y="159" on="0"/>
        <pt x="77" y="264" on="0"/>
        <pt x="77" y="317" on="1"/>
        <pt x="77" y="420" on="0"/>
        <pt x="92" y="622" on="0"/>
        <pt x="101" y="724" on="1"/>
        <pt x="307" y="729" on="1"/>
        <pt x="297" y="665" on="0"/>
        <pt x="289" y="522" on="0"/>
        <pt x="289" y="456" on="1"/>
        <pt x="289" y="445" on="0"/>
        <pt x="291" y="390" on="0"/>
        <pt x="297" y="328" on="0"/>
        <pt x="306" y="276" on="0"/>
        <pt x="313" y="268" on="1"/>
        <pt x="316" y="265" on="0"/>
        <pt x="341" y="260" on="0"/>
        <pt x="376" y="256" on="0"/>
        <pt x="416" y="254" on="0"/>
        <pt x="452" y="253" on="0"/>
        <pt x="480" y="252" on="0"/>
        <pt x="486" y="252" on="1"/>
        <pt x="491" y="252" on="0"/>
        <pt x="515" y="252" on="0"/>
        <pt x="540" y="253" on="0"/>
        <pt x="562" y="255" on="0"/>
        <pt x="566" y="258" on="1"/>
        <pt x="578" y="266" on="0"/>
        <pt x="590" y="328" on="0"/>
        <pt x="596" y="402" on="0"/>
        <pt x="596" y="470" on="0"/>
        <pt x="596" y="485" on="1"/>
        <pt x="596" y="508" on="0"/>
        <pt x="597" y="554" on="0"/>
        <pt x="597" y="577" on="1"/>
        <pt x="597" y="624" on="0"/>
        <pt x="595" y="715" on="0"/>
        <pt x="593" y="762" on="1"/>
        <pt x="614" y="760" on="0"/>
        <pt x="655" y="759" on="0"/>
        <pt x="676" y="759" on="1"/>
        <pt x="701" y="759" on="0"/>
        <pt x="750" y="761" on="0"/>
        <pt x="774" y="766" on="1"/>
        <pt x="795" y="659" on="0"/>
        <pt x="818" y="440" on="0"/>
      </contour>
    </TTGlyph>
    <TTGlyph name="Uacute" xMin="77" yMin="-23" xMax="818" yMax="1017">
      <component glyphName="U" x="0" y="0" flags="0x204"/>
      <component glyphName="acute" x="31" y="154" flags="0x4"/>
    </TTGlyph>
    <TTGlyph name="Ucircumflex" xMin="77" yMin="-23" xMax="818" yMax="1054">
      <component glyphName="U" x="0" y="0" flags="0x204"/>
      <component glyphName="circumflex" x="-50" y="205" flags="0x4"/>
    </TTGlyph>
    <TTGlyph name="Udieresis" xMin="77" yMin="-23" xMax="818" yMax="1024">
      <component glyphName="U" x="0" y="0" flags="0x204"/>
      <component glyphName="dieresis" x="-30" y="205" flags="0x4"/>
    </TTGlyph>
    <TTGlyph name="Ugrave" xMin="77" yMin="-23" xMax="818" yMax="1027">
      <component glyphName="U" x="0" y="0" flags="0x204"/>
      <component glyphName="grave" x="-71" y="164" flags="0x4"/>
    </TTGlyph>
    <TTGlyph name="V" xMin="0" yMin="0" xMax="696" yMax="778">
      <contour>
        <pt x="696" y="775" on="1"/>
        <pt x="656" y="580" on="0"/>
        <pt x="571" y="198" on="0"/>
        <pt x="526" y="5" on="1"/>
        <pt x="206" y="0" on="1"/>
        <pt x="181" y="108" on="0"/>
        <pt x="130" y="323" on="0"/>
        <pt x="98" y="430" on="1"/>
        <pt x="75" y="511" on="0"/>
        <pt x="26" y="669" on="0"/>
        <pt x="0" y="749" on="1"/>
        <pt x="35" y="745" on="0"/>
        <pt x="106" y="739" on="0"/>
        <pt x="141" y="739" on="1"/>
        <pt x="149" y="739" on="0"/>
        <pt x="163" y="739" on="0"/>
        <pt x="171" y="741" on="1"/>
        <pt x="211" y="615" on="0"/>
        <pt x="297" y="372" on="0"/>
        <pt x="342" y="248" on="1"/>
        <pt x="372" y="320" on="0"/>
        <pt x="429" y="465" on="0"/>
        <pt x="458" y="538" on="1"/>
        <pt x="460" y="543" on="0"/>
        <pt x="474" y="583" on="0"/>
        <pt x="493" y="636" on="0"/>
        <pt x="514" y="695" on="0"/>
        <pt x="531" y="745" on="0"/>
        <pt x="542" y="778" on="0"/>
        <pt x="542" y="778" on="1"/>
        <pt x="553" y="776" on="0"/>
        <pt x="574" y="776" on="0"/>
        <pt x="585" y="776" on="1"/>
        <pt x="614" y="775" on="0"/>
        <pt x="668" y="775" on="0"/>
      </contour>
    </TTGlyph>
    <TTGlyph name="W" xMin="0" yMin="-12" xMax="930" yMax="790">
      <contour>
        <pt x="930" y="729" on="1"/>
        <pt x="909" y="542" on="0"/>
        <pt x="847" y="189" on="0"/>
        <pt x="805" y="5" on="1"/>
        <pt x="794" y="4" on="0"/>
        <pt x="770" y="4" on="0"/>
        <pt x="759" y="4" on="1"/>
        <pt x="733" y="4" on="0"/>
        <pt x="682" y="6" on="0"/>
        <pt x="656" y="11" on="1"/>
        <pt x="624" y="78" on="0"/>
        <pt x="554" y="209" on="0"/>
        <pt x="523" y="278" on="1"/>
        <pt x="509" y="244" on="0"/>
        <pt x="474" y="180" on="0"/>
        <pt x="454" y="148" on="1"/>
        <pt x="428" y="109" on="0"/>
        <pt x="380" y="29" on="0"/>
        <pt x="357" y="-12" on="1"/>
        <pt x="194" y="-8" on="1"/>
        <pt x="171" y="82" on="0"/>
        <pt x="130" y="258" on="0"/>
        <pt x="110" y="348" on="1"/>
        <pt x="84" y="460" on="0"/>
        <pt x="29" y="679" on="0"/>
        <pt x="0" y="790" on="1"/>
        <pt x="290" y="790" on="1"/>
        <pt x="294" y="757" on="0"/>
        <pt x="300" y="691" on="0"/>
        <pt x="303" y="659" on="1"/>
        <pt x="311" y="572" on="0"/>
        <pt x="331" y="401" on="0"/>
        <pt x="341" y="314" on="1"/>
        <pt x="358" y="375" on="0"/>
        <pt x="393" y="495" on="0"/>
        <pt x="414" y="555" on="1"/>
        <pt x="432" y="609" on="0"/>
        <pt x="466" y="714" on="0"/>
        <pt x="482" y="768" on="1"/>
        <pt x="531" y="768" on="1"/>
        <pt x="564" y="647" on="0"/>
        <pt x="646" y="414" on="0"/>
        <pt x="694" y="298" on="1"/>
        <pt x="719" y="407" on="0"/>
        <pt x="756" y="627" on="0"/>
        <pt x="776" y="737" on="1"/>
      </contour>
    </TTGlyph>
    <TTGlyph name="X" xMin="-26" yMin="-5" xMax="802" yMax="750">
      <contour>
        <pt x="802" y="750" on="1"/>
        <pt x="725" y="655" on="0"/>
        <pt x="574" y="468" on="0"/>
        <pt x="493" y="376" on="1"/>
        <pt x="550" y="283" on="0"/>
        <pt x="613" y="193" on="1"/>
        <pt x="647" y="145" on="0"/>
        <pt x="719" y="52" on="0"/>
        <pt x="756" y="5" on="1"/>
        <pt x="504" y="-3" on="1"/>
        <pt x="471" y="54" on="0"/>
        <pt x="401" y="163" on="0"/>
        <pt x="368" y="220" on="1"/>
        <pt x="330" y="164" on="0"/>
        <pt x="260" y="53" on="0"/>
        <pt x="226" y="-5" on="1"/>
        <pt x="204" y="-1" on="0"/>
        <pt x="158" y="0" on="0"/>
        <pt x="135" y="0" on="1"/>
        <pt x="97" y="0" on="0"/>
        <pt x="20" y="-3" on="0"/>
        <pt x="-18" y="-5" on="1"/>
        <pt x="244" y="333" on="1"/>
        <pt x="221" y="371" on="0"/>
        <pt x="176" y="445" on="0"/>
        <pt x="153" y="482" on="1"/>
        <pt x="110" y="548" on="0"/>
        <pt x="19" y="677" on="0"/>
        <pt x="-26" y="742" on="1"/>
        <pt x="46" y="738" on="0"/>
        <pt x="186" y="736" on="0"/>
        <pt x="257" y="732" on="1"/>
        <pt x="287" y="681" on="0"/>
        <pt x="352" y="582" on="0"/>
        <pt x="384" y="532" on="1"/>
        <pt x="421" y="585" on="0"/>
        <pt x="494" y="690" on="0"/>
        <pt x="527" y="745" on="1"/>
        <pt x="552" y="743" on="0"/>
        <pt x="601" y="744" on="0"/>
        <pt x="626" y="744" on="1"/>
        <pt x="713" y="744" on="0"/>
      </contour>
    </TTGlyph>
    <TTGlyph name="Y" xMin="72" yMin="-10" xMax="758" yMax="782">
      <contour>
        <pt x="758" y="249" on="1"/>
        <pt x="758" y="213" on="0"/>
        <pt x="736" y="134" on="0"/>
        <pt x="694" y="65" on="0"/>
        <pt x="633" y="14" on="0"/>
        <pt x="595" y="6" on="1"/>
        <pt x="580" y="3" on="0"/>
        <pt x="539" y="-1" on="0"/>
        <pt x="495" y="-3" on="0"/>
        <pt x="452" y="-5" on="0"/>
        <pt x="437" y="-5" on="1"/>
        <pt x="351" y="-9" on="0"/>
        <pt x="179" y="-10" on="0"/>
        <pt x="92" y="-10" on="1"/>
        <pt x="88" y="31" on="0"/>
        <pt x="81" y="111" on="0"/>
        <pt x="75" y="153" on="1"/>
        <pt x="144" y="156" on="0"/>
        <pt x="281" y="163" on="0"/>
        <pt x="350" y="168" on="1"/>
        <pt x="365" y="169" on="0"/>
        <pt x="402" y="169" on="0"/>
        <pt x="441" y="171" on="0"/>
        <pt x="478" y="174" on="0"/>
        <pt x="492" y="177" on="1"/>
        <pt x="498" y="178" on="0"/>
        <pt x="515" y="183" on="0"/>
        <pt x="529" y="192" on="0"/>
        <pt x="539" y="204" on="0"/>
        <pt x="539" y="213" on="1"/>
        <pt x="539" y="234" on="0"/>
        <pt x="530" y="285" on="0"/>
        <pt x="528" y="305" on="1"/>
        <pt x="453" y="298" on="0"/>
        <pt x="302" y="285" on="0"/>
        <pt x="226" y="285" on="1"/>
        <pt x="174" y="285" on="0"/>
        <pt x="112" y="344" on="0"/>
        <pt x="98" y="392" on="1"/>
        <pt x="95" y="403" on="0"/>
        <pt x="90" y="434" on="0"/>
        <pt x="87" y="467" on="0"/>
        <pt x="85" y="499" on="0"/>
        <pt x="84" y="510" on="1"/>
        <pt x="79" y="576" on="0"/>
        <pt x="74" y="704" on="0"/>
        <pt x="72" y="770" on="1"/>
        <pt x="120" y="765" on="0"/>
        <pt x="217" y="757" on="0"/>
        <pt x="265" y="754" on="1"/>
        <pt x="265" y="707" on="0"/>
        <pt x="270" y="602" on="0"/>
        <pt x="280" y="557" on="1"/>
        <pt x="285" y="533" on="0"/>
        <pt x="313" y="498" on="0"/>
        <pt x="352" y="475" on="0"/>
        <pt x="397" y="464" on="0"/>
        <pt x="420" y="464" on="1"/>
        <pt x="447" y="464" on="0"/>
        <pt x="501" y="475" on="0"/>
        <pt x="526" y="483" on="1"/>
        <pt x="522" y="558" on="0"/>
        <pt x="517" y="704" on="0"/>
        <pt x="510" y="778" on="1"/>
        <pt x="540" y="779" on="0"/>
        <pt x="600" y="782" on="0"/>
        <pt x="630" y="782" on="1"/>
        <pt x="677" y="782" on="0"/>
        <pt x="725" y="773" on="1"/>
        <pt x="725" y="730" on="0"/>
        <pt x="728" y="644" on="0"/>
        <pt x="730" y="601" on="1"/>
        <pt x="732" y="581" on="0"/>
        <pt x="735" y="540" on="0"/>
        <pt x="736" y="520" on="1"/>
        <pt x="740" y="452" on="0"/>
        <pt x="758" y="317" on="0"/>
      </contour>
    </TTGlyph>
    <TTGlyph name="Yacute" xMin="72" yMin="-10" xMax="758" yMax="1068">
      <component glyphName="Y" x="0" y="0" flags="0x204"/>
      <component glyphName="acute" x="-40" y="205" flags="0x4"/>
    </TTGlyph>
    <TTGlyph name="Ydieresis" xMin="72" yMin="-10" xMax="758" yMax="1044">
      <component glyphName="Y" x="0" y="0" flags="0x204"/>
      <component glyphName="dieresis" x="-81" y="225" flags="0x4"/>
    </TTGlyph>
    <TTGlyph name="Z" xMin="46" yMin="-18" xMax="731" yMax="733">
      <contour>
        <pt x="731" y="497" on="1"/>
        <pt x="682" y="455" on="0"/>
        <pt x="581" y="377" on="0"/>
        <pt x="527" y="342" on="1"/>
        <pt x="285" y="181" on="1"/>
        <pt x="391" y="185" on="0"/>
        <pt x="602" y="195" on="0"/>
        <pt x="709" y="195" on="1"/>
        <pt x="706" y="30" on="1"/>
        <pt x="565" y="13" on="0"/>
        <pt x="424" y="6" on="1"/>
        <pt x="336" y="1" on="0"/>
        <pt x="163" y="-11" on="0"/>
        <pt x="77" y="-18" on="1"/>
        <pt x="71" y="30" on="0"/>
        <pt x="65" y="125" on="0"/>
        <pt x="54" y="173" on="1"/>
        <pt x="166" y="279" on="0"/>
        <pt x="390" y="485" on="0"/>
        <pt x="508" y="586" on="1"/>
        <pt x="453" y="585" on="0"/>
        <pt x="346" y="586" on="0"/>
        <pt x="292" y="586" on="1"/>
        <pt x="232" y="586" on="0"/>
        <pt x="114" y="581" on="0"/>
        <pt x="54" y="578" on="1"/>
        <pt x="46" y="733" on="1"/>
        <pt x="392" y="733" on="1"/>
        <pt x="471" y="733" on="0"/>
        <pt x="627" y="730" on="0"/>
        <pt x="706" y="728" on="1"/>
        <pt x="717" y="670" on="0"/>
        <pt x="725" y="555" on="0"/>
      </contour>
    </TTGlyph>
    <TTGlyph name="Zcaron" xMin="46" yMin="-18" xMax="731" yMax="1033">
      <component glyphName="Z" x="0" y="0" flags="0x204"/>
      <component glyphName="caron" x="-81" y="184" flags="0x4"/>
    </TTGlyph>
    <TTGlyph name="a" xMin="31" yMin="94" xMax="755" yMax="663">
      <contour>
        <pt x="755" y="451" on="1"/>
        <pt x="755" y="367" on="0"/>
        <pt x="743" y="201" on="0"/>
        <pt x="737" y="118" on="1"/>
        <pt x="625" y="108" on="0"/>
        <pt x="403" y="94" on="0"/>
        <pt x="291" y="94" on="1"/>
        <pt x="281" y="94" on="0"/>
        <pt x="227" y="95" on="0"/>
        <pt x="167" y="98" on="0"/>
        <pt x="113" y="103" on="0"/>
        <pt x="104" y="108" on="1"/>
        <pt x="71" y="126" on="0"/>
        <pt x="45" y="181" on="0"/>
        <pt x="45" y="216" on="1"/>
        <pt x="45" y="228" on="0"/>
        <pt x="47" y="268" on="0"/>
        <pt x="53" y="312" on="0"/>
        <pt x="63" y="350" on="0"/>
        <pt x="70" y="359" on="1"/>
        <pt x="79" y="371" on="0"/>
        <pt x="143" y="388" on="0"/>
        <pt x="232" y="398" on="0"/>
        <pt x="335" y="404" on="0"/>
        <pt x="429" y="407" on="0"/>
        <pt x="503" y="407" on="0"/>
        <pt x="519" y="407" on="1"/>
        <pt x="522" y="429" on="0"/>
        <pt x="522" y="450" on="1"/>
        <pt x="522" y="452" on="0"/>
        <pt x="522" y="469" on="0"/>
        <pt x="521" y="471" on="1"/>
        <pt x="518" y="477" on="0"/>
        <pt x="486" y="485" on="0"/>
        <pt x="439" y="489" on="0"/>
        <pt x="384" y="492" on="0"/>
        <pt x="332" y="492" on="0"/>
        <pt x="292" y="492" on="0"/>
        <pt x="283" y="492" on="1"/>
        <pt x="220" y="492" on="0"/>
        <pt x="94" y="487" on="0"/>
        <pt x="31" y="485" on="1"/>
        <pt x="35" y="523" on="0"/>
        <pt x="40" y="601" on="0"/>
        <pt x="38" y="639" on="1"/>
        <pt x="111" y="652" on="0"/>
        <pt x="258" y="663" on="0"/>
        <pt x="333" y="663" on="1"/>
        <pt x="360" y="663" on="0"/>
        <pt x="424" y="662" on="0"/>
        <pt x="488" y="659" on="0"/>
        <pt x="551" y="653" on="0"/>
        <pt x="578" y="648" on="1"/>
        <pt x="606" y="643" on="0"/>
        <pt x="661" y="617" on="0"/>
        <pt x="709" y="579" on="0"/>
        <pt x="745" y="530" on="0"/>
        <pt x="753" y="502" on="1"/>
        <pt x="754" y="499" on="0"/>
        <pt x="755" y="485" on="0"/>
        <pt x="755" y="468" on="0"/>
        <pt x="755" y="454" on="0"/>
      </contour>
      <contour>
        <pt x="532" y="216" on="1"/>
        <pt x="532" y="344" on="1"/>
        <pt x="503" y="345" on="0"/>
        <pt x="445" y="346" on="0"/>
        <pt x="416" y="346" on="1"/>
        <pt x="410" y="346" on="0"/>
        <pt x="355" y="345" on="0"/>
        <pt x="292" y="341" on="0"/>
        <pt x="240" y="335" on="0"/>
        <pt x="236" y="329" on="1"/>
        <pt x="231" y="321" on="0"/>
        <pt x="228" y="304" on="0"/>
        <pt x="228" y="295" on="1"/>
        <pt x="228" y="288" on="0"/>
        <pt x="230" y="264" on="0"/>
        <pt x="235" y="238" on="0"/>
        <pt x="241" y="216" on="0"/>
        <pt x="246" y="211" on="1"/>
        <pt x="250" y="206" on="0"/>
        <pt x="269" y="201" on="0"/>
        <pt x="291" y="198" on="0"/>
        <pt x="313" y="197" on="0"/>
        <pt x="319" y="197" on="1"/>
        <pt x="343" y="197" on="0"/>
        <pt x="398" y="201" on="0"/>
        <pt x="455" y="206" on="0"/>
        <pt x="509" y="213" on="0"/>
      </contour>
    </TTGlyph>
    <TTGlyph name="aacute" xMin="31" yMin="94" xMax="755" yMax="955">
      <component glyphName="a" x="0" y="0" flags="0x204"/>
      <component glyphName="acute" x="-30" y="92" flags="0x4"/>
    </TTGlyph>
    <TTGlyph name="acircumflex" xMin="31" yMin="94" xMax="755" yMax="962">
      <component glyphName="a" x="0" y="0" flags="0x204"/>
      <component glyphName="circumflex" x="-81" y="113" flags="0x4"/>
    </TTGlyph>
    <TTGlyph name="acute" xMin="363" yMin="634" xMax="594" yMax="863">
      <contour>
        <pt x="594" y="764" on="1"/>
        <pt x="569" y="743" on="0"/>
        <pt x="524" y="708" on="0"/>
        <pt x="478" y="678" on="0"/>
        <pt x="429" y="650" on="0"/>
        <pt x="400" y="634" on="1"/>
        <pt x="363" y="690" on="1"/>
        <pt x="381" y="708" on="0"/>
        <pt x="414" y="744" on="0"/>
        <pt x="430" y="764" on="1"/>
        <pt x="451" y="791" on="0"/>
        <pt x="499" y="839" on="0"/>
        <pt x="523" y="863" on="1"/>
      </contour>
    </TTGlyph>
    <TTGlyph name="adieresis" xMin="31" yMin="94" xMax="755" yMax="921">
      <component glyphName="a" x="0" y="0" flags="0x204"/>
      <component glyphName="dieresis" x="-71" y="102" flags="0x4"/>
    </TTGlyph>
    <TTGlyph name="ae" xMin="31" yMin="-29" xMax="1320" yMax="587">
      <contour>
        <pt x="1320" y="368" on="1"/>
        <pt x="1320" y="346" on="0"/>
        <pt x="1318" y="302" on="0"/>
        <pt x="1316" y="281" on="1"/>
        <pt x="1263" y="279" on="0"/>
        <pt x="1159" y="275" on="0"/>
        <pt x="1106" y="273" on="1"/>
        <pt x="1031" y="270" on="0"/>
        <pt x="880" y="258" on="0"/>
        <pt x="805" y="253" on="1"/>
        <pt x="805" y="235" on="0"/>
        <pt x="820" y="202" on="0"/>
        <pt x="844" y="175" on="0"/>
        <pt x="874" y="156" on="0"/>
        <pt x="890" y="151" on="1"/>
        <pt x="905" y="146" on="0"/>
        <pt x="955" y="143" on="0"/>
        <pt x="972" y="143" on="1"/>
        <pt x="1038" y="143" on="0"/>
        <pt x="1168" y="161" on="0"/>
        <pt x="1233" y="174" on="1"/>
        <pt x="1249" y="0" on="1"/>
        <pt x="1188" y="-5" on="0"/>
        <pt x="1066" y="-12" on="0"/>
        <pt x="1006" y="-12" on="1"/>
        <pt x="992" y="-12" on="0"/>
        <pt x="940" y="-11" on="0"/>
        <pt x="883" y="-7" on="0"/>
        <pt x="831" y="-1" on="0"/>
        <pt x="818" y="5" on="1"/>
        <pt x="787" y="19" on="0"/>
        <pt x="735" y="54" on="0"/>
        <pt x="720" y="86" on="1"/>
        <pt x="718" y="88" on="0"/>
        <pt x="717" y="96" on="0"/>
        <pt x="715" y="101" on="1"/>
        <pt x="713" y="106" on="0"/>
        <pt x="712" y="112" on="1"/>
        <pt x="710" y="89" on="1"/>
        <pt x="708" y="66" on="0"/>
        <pt x="705" y="19" on="0"/>
        <pt x="702" y="-4" on="1"/>
        <pt x="596" y="-14" on="0"/>
        <pt x="386" y="-29" on="0"/>
        <pt x="280" y="-29" on="1"/>
        <pt x="270" y="-29" on="0"/>
        <pt x="230" y="-28" on="0"/>
        <pt x="186" y="-26" on="0"/>
        <pt x="147" y="-22" on="0"/>
        <pt x="138" y="-18" on="1"/>
        <pt x="109" y="-7" on="0"/>
        <pt x="73" y="16" on="0"/>
        <pt x="50" y="47" on="0"/>
        <pt x="38" y="90" on="0"/>
        <pt x="34" y="121" on="1"/>
        <pt x="31" y="139" on="0"/>
        <pt x="31" y="160" on="1"/>
        <pt x="31" y="220" on="0"/>
        <pt x="74" y="282" on="0"/>
        <pt x="144" y="308" on="0"/>
        <pt x="231" y="310" on="0"/>
        <pt x="276" y="310" on="1"/>
        <pt x="336" y="310" on="0"/>
        <pt x="455" y="306" on="0"/>
        <pt x="515" y="294" on="1"/>
        <pt x="516" y="297" on="0"/>
        <pt x="516" y="303" on="1"/>
        <pt x="516" y="314" on="0"/>
        <pt x="506" y="339" on="0"/>
        <pt x="491" y="361" on="0"/>
        <pt x="473" y="381" on="0"/>
        <pt x="464" y="387" on="1"/>
        <pt x="458" y="391" on="0"/>
        <pt x="435" y="397" on="0"/>
        <pt x="410" y="399" on="0"/>
        <pt x="386" y="400" on="0"/>
        <pt x="380" y="400" on="1"/>
        <pt x="304" y="400" on="0"/>
        <pt x="151" y="371" on="0"/>
        <pt x="78" y="352" on="1"/>
        <pt x="70" y="401" on="0"/>
        <pt x="61" y="492" on="0"/>
        <pt x="61" y="542" on="1"/>
        <pt x="128" y="552" on="0"/>
        <pt x="261" y="566" on="0"/>
        <pt x="329" y="566" on="1"/>
        <pt x="393" y="566" on="0"/>
        <pt x="523" y="546" on="0"/>
        <pt x="580" y="514" on="1"/>
        <pt x="597" y="504" on="0"/>
        <pt x="633" y="475" on="0"/>
        <pt x="665" y="440" on="0"/>
        <pt x="687" y="401" on="0"/>
        <pt x="691" y="382" on="1"/>
        <pt x="696" y="404" on="0"/>
        <pt x="718" y="455" on="0"/>
        <pt x="749" y="503" on="0"/>
        <pt x="787" y="542" on="0"/>
        <pt x="809" y="553" on="1"/>
        <pt x="829" y="563" on="0"/>
        <pt x="910" y="576" on="0"/>
        <pt x="1000" y="584" on="0"/>
        <pt x="1084" y="587" on="0"/>
        <pt x="1107" y="587" on="1"/>
        <pt x="1124" y="587" on="0"/>
        <pt x="1178" y="587" on="0"/>
        <pt x="1232" y="581" on="0"/>
        <pt x="1279" y="564" on="0"/>
        <pt x="1288" y="548" on="1"/>
        <pt x="1298" y="530" on="0"/>
        <pt x="1311" y="484" on="0"/>
        <pt x="1318" y="435" on="0"/>
        <pt x="1320" y="387" on="0"/>
      </contour>
      <contour>
        <pt x="1180" y="383" on="1"/>
        <pt x="1180" y="404" on="0"/>
        <pt x="1140" y="425" on="0"/>
        <pt x="1086" y="434" on="0"/>
        <pt x="1033" y="435" on="0"/>
        <pt x="1020" y="435" on="1"/>
        <pt x="1009" y="435" on="0"/>
        <pt x="975" y="435" on="0"/>
        <pt x="938" y="432" on="0"/>
        <pt x="906" y="427" on="0"/>
        <pt x="897" y="422" on="1"/>
        <pt x="882" y="414" on="0"/>
        <pt x="863" y="372" on="0"/>
        <pt x="860" y="356" on="1"/>
        <pt x="1178" y="369" on="1"/>
        <pt x="1180" y="377" on="0"/>
      </contour>
      <contour>
        <pt x="532" y="158" on="1"/>
        <pt x="532" y="190" on="0"/>
        <pt x="524" y="224" on="1"/>
        <pt x="511" y="233" on="0"/>
        <pt x="462" y="236" on="0"/>
        <pt x="446" y="236" on="1"/>
        <pt x="433" y="236" on="0"/>
        <pt x="371" y="232" on="0"/>
        <pt x="303" y="223" on="0"/>
        <pt x="246" y="211" on="0"/>
        <pt x="238" y="202" on="1"/>
        <pt x="229" y="192" on="0"/>
        <pt x="224" y="167" on="0"/>
        <pt x="224" y="156" on="1"/>
        <pt x="224" y="148" on="0"/>
        <pt x="227" y="124" on="0"/>
        <pt x="233" y="99" on="0"/>
        <pt x="242" y="78" on="0"/>
        <pt x="249" y="72" on="1"/>
        <pt x="253" y="69" on="0"/>
        <pt x="272" y="65" on="0"/>
        <pt x="295" y="63" on="0"/>
        <pt x="316" y="62" on="0"/>
        <pt x="321" y="62" on="1"/>
        <pt x="336" y="62" on="0"/>
        <pt x="391" y="65" on="0"/>
        <pt x="449" y="71" on="0"/>
        <pt x="501" y="82" on="0"/>
        <pt x="513" y="90" on="1"/>
        <pt x="519" y="94" on="0"/>
        <pt x="526" y="112" on="0"/>
        <pt x="531" y="132" on="0"/>
        <pt x="532" y="152" on="0"/>
      </contour>
    </TTGlyph>
    <TTGlyph name="agrave" xMin="31" yMin="94" xMax="755" yMax="965">
      <component glyphName="a" x="0" y="0" flags="0x204"/>
      <component glyphName="grave" x="-112" y="102" flags="0x4"/>
    </TTGlyph>
    <TTGlyph name="ampersand" xMin="31" yMin="-72" xMax="859" yMax="779">
      <contour>
        <pt x="859" y="11" on="1"/>
        <pt x="757" y="-66" on="1"/>
        <pt x="611" y="38" on="1"/>
        <pt x="592" y="27" on="0"/>
        <pt x="554" y="5" on="0"/>
        <pt x="535" y="-5" on="1"/>
        <pt x="475" y="-37" on="0"/>
        <pt x="356" y="-72" on="0"/>
        <pt x="287" y="-72" on="1"/>
        <pt x="254" y="-72" on="0"/>
        <pt x="187" y="-64" on="0"/>
        <pt x="154" y="-56" on="1"/>
        <pt x="134" y="-52" on="0"/>
        <pt x="106" y="-41" on="0"/>
        <pt x="83" y="-26" on="0"/>
        <pt x="62" y="-4" on="0"/>
        <pt x="50" y="11" on="1"/>
        <pt x="37" y="28" on="0"/>
        <pt x="31" y="72" on="0"/>
        <pt x="31" y="92" on="1"/>
        <pt x="31" y="121" on="0"/>
        <pt x="39" y="180" on="0"/>
        <pt x="47" y="208" on="1"/>
        <pt x="52" y="227" on="0"/>
        <pt x="92" y="286" on="0"/>
        <pt x="142" y="347" on="0"/>
        <pt x="189" y="401" on="0"/>
        <pt x="202" y="415" on="1"/>
        <pt x="194" y="421" on="0"/>
        <pt x="160" y="449" on="0"/>
        <pt x="122" y="482" on="0"/>
        <pt x="90" y="513" on="0"/>
        <pt x="86" y="521" on="1"/>
        <pt x="78" y="536" on="0"/>
        <pt x="78" y="558" on="1"/>
        <pt x="78" y="575" on="0"/>
        <pt x="87" y="628" on="0"/>
        <pt x="103" y="684" on="0"/>
        <pt x="124" y="732" on="0"/>
        <pt x="137" y="743" on="1"/>
        <pt x="151" y="756" on="0"/>
        <pt x="215" y="769" on="0"/>
        <pt x="288" y="775" on="0"/>
        <pt x="356" y="777" on="0"/>
        <pt x="376" y="778" on="1"/>
        <pt x="384" y="779" on="0"/>
        <pt x="402" y="779" on="0"/>
        <pt x="411" y="779" on="1"/>
        <pt x="436" y="779" on="0"/>
        <pt x="498" y="772" on="0"/>
        <pt x="560" y="755" on="0"/>
        <pt x="616" y="728" on="0"/>
        <pt x="634" y="708" on="1"/>
        <pt x="639" y="703" on="0"/>
        <pt x="641" y="680" on="0"/>
        <pt x="641" y="674" on="1"/>
        <pt x="641" y="649" on="0"/>
        <pt x="629" y="593" on="0"/>
        <pt x="621" y="569" on="1"/>
        <pt x="434" y="559" on="1"/>
        <pt x="435" y="574" on="0"/>
        <pt x="436" y="603" on="0"/>
        <pt x="436" y="617" on="1"/>
        <pt x="436" y="619" on="0"/>
        <pt x="435" y="640" on="0"/>
        <pt x="434" y="664" on="0"/>
        <pt x="431" y="684" on="0"/>
        <pt x="428" y="685" on="1"/>
        <pt x="420" y="688" on="0"/>
        <pt x="405" y="689" on="0"/>
        <pt x="396" y="689" on="1"/>
        <pt x="390" y="689" on="0"/>
        <pt x="362" y="688" on="0"/>
        <pt x="330" y="685" on="0"/>
        <pt x="303" y="681" on="0"/>
        <pt x="299" y="679" on="1"/>
        <pt x="289" y="674" on="0"/>
        <pt x="285" y="644" on="0"/>
        <pt x="285" y="635" on="1"/>
        <pt x="285" y="626" on="0"/>
        <pt x="287" y="607" on="0"/>
        <pt x="289" y="598" on="1"/>
        <pt x="293" y="578" on="0"/>
        <pt x="324" y="524" on="0"/>
        <pt x="363" y="470" on="0"/>
        <pt x="404" y="422" on="0"/>
        <pt x="418" y="408" on="1"/>
        <pt x="441" y="384" on="0"/>
        <pt x="497" y="336" on="0"/>
        <pt x="556" y="290" on="0"/>
        <pt x="616" y="246" on="0"/>
        <pt x="643" y="227" on="1"/>
        <pt x="658" y="236" on="0"/>
        <pt x="700" y="265" on="0"/>
        <pt x="711" y="280" on="1"/>
        <pt x="718" y="289" on="0"/>
        <pt x="732" y="306" on="0"/>
        <pt x="740" y="314" on="1"/>
        <pt x="847" y="218" on="1"/>
        <pt x="824" y="189" on="0"/>
        <pt x="775" y="142" on="0"/>
        <pt x="746" y="118" on="1"/>
      </contour>
      <contour>
        <pt x="521" y="151" on="1"/>
        <pt x="464" y="195" on="0"/>
        <pt x="353" y="283" on="0"/>
        <pt x="296" y="328" on="1"/>
        <pt x="288" y="319" on="0"/>
        <pt x="260" y="285" on="0"/>
        <pt x="233" y="248" on="0"/>
        <pt x="213" y="210" on="0"/>
        <pt x="213" y="197" on="1"/>
        <pt x="213" y="173" on="0"/>
        <pt x="250" y="127" on="0"/>
        <pt x="302" y="90" on="0"/>
        <pt x="360" y="67" on="0"/>
        <pt x="381" y="67" on="1"/>
        <pt x="386" y="67" on="0"/>
        <pt x="393" y="68" on="0"/>
        <pt x="398" y="70" on="1"/>
        <pt x="409" y="74" on="0"/>
        <pt x="444" y="95" on="0"/>
        <pt x="480" y="120" on="0"/>
        <pt x="512" y="143" on="0"/>
      </contour>
    </TTGlyph>
    <TTGlyph name="aring" xMin="31" yMin="94" xMax="755" yMax="867">
      <contour>
        <pt x="532" y="216" on="1"/>
        <pt x="532" y="344" on="1"/>
        <pt x="503" y="345" on="0"/>
        <pt x="445" y="346" on="0"/>
        <pt x="416" y="346" on="1"/>
        <pt x="410" y="346" on="0"/>
        <pt x="355" y="345" on="0"/>
        <pt x="292" y="341" on="0"/>
        <pt x="240" y="335" on="0"/>
        <pt x="236" y="329" on="1"/>
        <pt x="231" y="321" on="0"/>
        <pt x="228" y="304" on="0"/>
        <pt x="228" y="295" on="1"/>
        <pt x="228" y="288" on="0"/>
        <pt x="230" y="264" on="0"/>
        <pt x="235" y="238" on="0"/>
        <pt x="241" y="216" on="0"/>
        <pt x="246" y="211" on="1"/>
        <pt x="250" y="206" on="0"/>
        <pt x="269" y="201" on="0"/>
        <pt x="291" y="198" on="0"/>
        <pt x="313" y="197" on="0"/>
        <pt x="319" y="197" on="1"/>
        <pt x="343" y="197" on="0"/>
        <pt x="398" y="201" on="0"/>
        <pt x="455" y="206" on="0"/>
        <pt x="509" y="213" on="0"/>
      </contour>
      <contour>
        <pt x="533" y="763" on="1"/>
        <pt x="533" y="725" on="0"/>
        <pt x="489" y="674" on="0"/>
        <pt x="457" y="660" on="1"/>
        <pt x="489" y="658" on="0"/>
        <pt x="551" y="653" on="0"/>
        <pt x="578" y="648" on="1"/>
        <pt x="606" y="643" on="0"/>
        <pt x="661" y="617" on="0"/>
        <pt x="709" y="579" on="0"/>
        <pt x="745" y="530" on="0"/>
        <pt x="753" y="502" on="1"/>
        <pt x="754" y="499" on="0"/>
        <pt x="755" y="485" on="0"/>
        <pt x="755" y="468" on="0"/>
        <pt x="755" y="454" on="0"/>
        <pt x="755" y="451" on="1"/>
        <pt x="755" y="367" on="0"/>
        <pt x="743" y="201" on="0"/>
        <pt x="737" y="118" on="1"/>
        <pt x="625" y="108" on="0"/>
        <pt x="403" y="94" on="0"/>
        <pt x="291" y="94" on="1"/>
        <pt x="281" y="94" on="0"/>
        <pt x="227" y="95" on="0"/>
        <pt x="167" y="98" on="0"/>
        <pt x="113" y="103" on="0"/>
        <pt x="104" y="108" on="1"/>
        <pt x="71" y="126" on="0"/>
        <pt x="45" y="181" on="0"/>
        <pt x="45" y="216" on="1"/>
        <pt x="45" y="228" on="0"/>
        <pt x="47" y="268" on="0"/>
        <pt x="53" y="312" on="0"/>
        <pt x="63" y="350" on="0"/>
        <pt x="70" y="359" on="1"/>
        <pt x="79" y="371" on="0"/>
        <pt x="143" y="388" on="0"/>
        <pt x="232" y="398" on="0"/>
        <pt x="335" y="404" on="0"/>
        <pt x="429" y="407" on="0"/>
        <pt x="503" y="407" on="0"/>
        <pt x="519" y="407" on="1"/>
        <pt x="522" y="429" on="0"/>
        <pt x="522" y="450" on="1"/>
        <pt x="522" y="452" on="0"/>
        <pt x="522" y="469" on="0"/>
        <pt x="521" y="471" on="1"/>
        <pt x="518" y="477" on="0"/>
        <pt x="486" y="485" on="0"/>
        <pt x="439" y="489" on="0"/>
        <pt x="384" y="492" on="0"/>
        <pt x="332" y="492" on="0"/>
        <pt x="292" y="492" on="0"/>
        <pt x="283" y="492" on="1"/>
        <pt x="220" y="492" on="0"/>
        <pt x="94" y="487" on="0"/>
        <pt x="31" y="485" on="1"/>
        <pt x="35" y="523" on="0"/>
        <pt x="40" y="601" on="0"/>
        <pt x="38" y="639" on="1"/>
        <pt x="106" y="651" on="0"/>
        <pt x="243" y="662" on="0"/>
        <pt x="312" y="663" on="1"/>
        <pt x="283" y="676" on="0"/>
        <pt x="240" y="716" on="0"/>
        <pt x="240" y="744" on="1"/>
        <pt x="240" y="746" on="0"/>
        <pt x="240" y="750" on="0"/>
        <pt x="241" y="752" on="1"/>
        <pt x="246" y="779" on="0"/>
        <pt x="276" y="822" on="0"/>
        <pt x="319" y="851" on="0"/>
        <pt x="370" y="867" on="0"/>
        <pt x="397" y="867" on="1"/>
        <pt x="420" y="867" on="0"/>
        <pt x="468" y="854" on="0"/>
        <pt x="508" y="829" on="0"/>
        <pt x="533" y="790" on="0"/>
      </contour>
      <contour>
        <pt x="464" y="750" on="1"/>
        <pt x="464" y="771" on="0"/>
        <pt x="459" y="797" on="0"/>
        <pt x="445" y="810" on="0"/>
        <pt x="420" y="815" on="0"/>
        <pt x="399" y="815" on="1"/>
        <pt x="394" y="815" on="0"/>
        <pt x="378" y="814" on="0"/>
        <pt x="361" y="813" on="0"/>
        <pt x="346" y="810" on="0"/>
        <pt x="342" y="807" on="1"/>
        <pt x="337" y="804" on="0"/>
        <pt x="331" y="788" on="0"/>
        <pt x="327" y="769" on="0"/>
        <pt x="326" y="750" on="0"/>
        <pt x="326" y="745" on="1"/>
        <pt x="326" y="716" on="0"/>
        <pt x="345" y="701" on="0"/>
        <pt x="374" y="701" on="1"/>
        <pt x="380" y="701" on="0"/>
        <pt x="404" y="703" on="0"/>
        <pt x="429" y="706" on="0"/>
        <pt x="451" y="711" on="0"/>
        <pt x="455" y="714" on="1"/>
        <pt x="462" y="719" on="0"/>
        <pt x="464" y="742" on="0"/>
      </contour>
    </TTGlyph>
    <TTGlyph name="asciicircum" xMin="20" yMin="348" xMax="486" yMax="766">
      <contour>
        <pt x="486" y="375" on="1"/>
        <pt x="381" y="357" on="1"/>
        <pt x="352" y="420" on="0"/>
        <pt x="296" y="543" on="0"/>
        <pt x="262" y="604" on="1"/>
        <pt x="249" y="578" on="0"/>
        <pt x="222" y="528" on="0"/>
        <pt x="208" y="502" on="1"/>
        <pt x="187" y="466" on="0"/>
        <pt x="154" y="386" on="0"/>
        <pt x="137" y="348" on="1"/>
        <pt x="20" y="351" on="1"/>
        <pt x="80" y="456" on="0"/>
        <pt x="200" y="662" on="0"/>
        <pt x="260" y="766" on="1"/>
        <pt x="319" y="669" on="0"/>
        <pt x="429" y="473" on="0"/>
      </contour>
    </TTGlyph>
    <TTGlyph name="asciitilde" xMin="20" yMin="230" xMax="566" yMax="418">
      <contour>
        <pt x="566" y="329" on="1"/>
        <pt x="555" y="321" on="0"/>
        <pt x="505" y="288" on="0"/>
        <pt x="449" y="255" on="0"/>
        <pt x="395" y="230" on="0"/>
        <pt x="380" y="230" on="1"/>
        <pt x="361" y="230" on="0"/>
        <pt x="316" y="256" on="0"/>
        <pt x="270" y="287" on="0"/>
        <pt x="227" y="313" on="0"/>
        <pt x="211" y="313" on="1"/>
        <pt x="197" y="313" on="0"/>
        <pt x="163" y="294" on="0"/>
        <pt x="129" y="267" on="0"/>
        <pt x="99" y="239" on="0"/>
        <pt x="91" y="230" on="1"/>
        <pt x="20" y="310" on="1"/>
        <pt x="29" y="316" on="0"/>
        <pt x="79" y="352" on="0"/>
        <pt x="137" y="389" on="0"/>
        <pt x="190" y="418" on="0"/>
        <pt x="201" y="418" on="1"/>
        <pt x="215" y="418" on="0"/>
        <pt x="262" y="395" on="0"/>
        <pt x="313" y="367" on="0"/>
        <pt x="361" y="344" on="0"/>
        <pt x="377" y="344" on="1"/>
        <pt x="389" y="344" on="0"/>
        <pt x="422" y="359" on="0"/>
        <pt x="455" y="379" on="0"/>
        <pt x="484" y="401" on="0"/>
        <pt x="493" y="409" on="1"/>
      </contour>
    </TTGlyph>
    <TTGlyph name="asterisk" xMin="31" yMin="304" xMax="507" yMax="755">
      <contour>
        <pt x="507" y="515" on="1"/>
        <pt x="456" y="510" on="0"/>
        <pt x="358" y="508" on="0"/>
        <pt x="307" y="506" on="1"/>
        <pt x="351" y="477" on="0"/>
        <pt x="428" y="412" on="0"/>
        <pt x="468" y="380" on="1"/>
        <pt x="345" y="304" on="1"/>
        <pt x="334" y="325" on="0"/>
        <pt x="308" y="383" on="0"/>
        <pt x="296" y="410" on="1"/>
        <pt x="282" y="441" on="0"/>
        <pt x="268" y="474" on="1"/>
        <pt x="245" y="448" on="0"/>
        <pt x="221" y="422" on="1"/>
        <pt x="201" y="399" on="0"/>
        <pt x="155" y="345" on="0"/>
        <pt x="138" y="319" on="1"/>
        <pt x="44" y="410" on="1"/>
        <pt x="90" y="434" on="0"/>
        <pt x="167" y="476" on="0"/>
        <pt x="206" y="510" on="1"/>
        <pt x="164" y="541" on="0"/>
        <pt x="76" y="595" on="0"/>
        <pt x="31" y="621" on="1"/>
        <pt x="123" y="703" on="1"/>
        <pt x="152" y="667" on="0"/>
        <pt x="215" y="592" on="0"/>
        <pt x="255" y="566" on="1"/>
        <pt x="265" y="595" on="0"/>
        <pt x="279" y="639" on="0"/>
        <pt x="288" y="681" on="0"/>
        <pt x="296" y="726" on="0"/>
        <pt x="302" y="755" on="1"/>
        <pt x="335" y="746" on="0"/>
        <pt x="399" y="725" on="0"/>
        <pt x="432" y="719" on="1"/>
        <pt x="413" y="696" on="0"/>
        <pt x="383" y="658" on="0"/>
        <pt x="356" y="622" on="0"/>
        <pt x="329" y="582" on="0"/>
        <pt x="313" y="557" on="1"/>
        <pt x="486" y="627" on="1"/>
      </contour>
    </TTGlyph>
    <TTGlyph name="at" xMin="20" yMin="-39" xMax="826" yMax="767">
      <contour>
        <pt x="826" y="362" on="1"/>
        <pt x="826" y="310" on="0"/>
        <pt x="800" y="222" on="0"/>
        <pt x="749" y="157" on="0"/>
        <pt x="673" y="120" on="0"/>
        <pt x="624" y="120" on="1"/>
        <pt x="612" y="120" on="0"/>
        <pt x="598" y="122" on="0"/>
        <pt x="589" y="129" on="1"/>
        <pt x="585" y="132" on="0"/>
        <pt x="561" y="162" on="0"/>
        <pt x="534" y="198" on="0"/>
        <pt x="510" y="229" on="0"/>
        <pt x="507" y="234" on="1"/>
        <pt x="506" y="229" on="0"/>
        <pt x="500" y="210" on="0"/>
        <pt x="493" y="190" on="0"/>
        <pt x="485" y="172" on="0"/>
        <pt x="482" y="168" on="1"/>
        <pt x="474" y="158" on="0"/>
        <pt x="446" y="144" on="0"/>
        <pt x="414" y="135" on="0"/>
        <pt x="382" y="131" on="0"/>
        <pt x="371" y="131" on="1"/>
        <pt x="343" y="131" on="0"/>
        <pt x="322" y="138" on="1"/>
        <pt x="300" y="145" on="0"/>
        <pt x="266" y="191" on="0"/>
        <pt x="242" y="248" on="0"/>
        <pt x="230" y="307" on="0"/>
        <pt x="230" y="328" on="1"/>
        <pt x="230" y="336" on="0"/>
        <pt x="233" y="353" on="0"/>
        <pt x="239" y="361" on="1"/>
        <pt x="246" y="371" on="0"/>
        <pt x="308" y="388" on="0"/>
        <pt x="383" y="401" on="0"/>
        <pt x="453" y="408" on="0"/>
        <pt x="467" y="408" on="1"/>
        <pt x="475" y="408" on="0"/>
        <pt x="489" y="394" on="0"/>
        <pt x="499" y="375" on="0"/>
        <pt x="506" y="355" on="0"/>
        <pt x="507" y="349" on="1"/>
        <pt x="511" y="369" on="0"/>
        <pt x="511" y="392" on="1"/>
        <pt x="511" y="414" on="0"/>
        <pt x="507" y="442" on="0"/>
        <pt x="492" y="456" on="0"/>
        <pt x="465" y="461" on="0"/>
        <pt x="443" y="461" on="1"/>
        <pt x="399" y="461" on="0"/>
        <pt x="312" y="446" on="0"/>
        <pt x="269" y="436" on="1"/>
        <pt x="262" y="554" on="1"/>
        <pt x="299" y="559" on="0"/>
        <pt x="374" y="564" on="0"/>
        <pt x="412" y="564" on="1"/>
        <pt x="427" y="564" on="0"/>
        <pt x="481" y="561" on="0"/>
        <pt x="539" y="552" on="0"/>
        <pt x="589" y="535" on="0"/>
        <pt x="600" y="522" on="1"/>
        <pt x="606" y="514" on="0"/>
        <pt x="613" y="466" on="0"/>
        <pt x="617" y="410" on="0"/>
        <pt x="618" y="360" on="0"/>
        <pt x="618" y="350" on="1"/>
        <pt x="618" y="317" on="0"/>
        <pt x="616" y="251" on="0"/>
        <pt x="614" y="218" on="1"/>
        <pt x="678" y="212" on="1"/>
        <pt x="685" y="220" on="0"/>
        <pt x="700" y="238" on="0"/>
        <pt x="706" y="247" on="1"/>
        <pt x="713" y="258" on="0"/>
        <pt x="722" y="301" on="0"/>
        <pt x="728" y="350" on="0"/>
        <pt x="730" y="397" on="0"/>
        <pt x="730" y="412" on="1"/>
        <pt x="730" y="436" on="0"/>
        <pt x="722" y="496" on="0"/>
        <pt x="705" y="555" on="0"/>
        <pt x="678" y="608" on="0"/>
        <pt x="659" y="626" on="1"/>
        <pt x="619" y="664" on="0"/>
        <pt x="525" y="685" on="0"/>
        <pt x="471" y="685" on="1"/>
        <pt x="433" y="685" on="0"/>
        <pt x="371" y="673" on="0"/>
        <pt x="313" y="651" on="0"/>
        <pt x="258" y="616" on="0"/>
        <pt x="228" y="594" on="1"/>
        <pt x="177" y="555" on="0"/>
        <pt x="124" y="447" on="0"/>
        <pt x="124" y="382" on="1"/>
        <pt x="124" y="320" on="0"/>
        <pt x="161" y="203" on="0"/>
        <pt x="233" y="112" on="0"/>
        <pt x="338" y="57" on="0"/>
        <pt x="406" y="57" on="1"/>
        <pt x="418" y="57" on="0"/>
        <pt x="453" y="61" on="0"/>
        <pt x="489" y="68" on="0"/>
        <pt x="521" y="81" on="0"/>
        <pt x="530" y="90" on="1"/>
        <pt x="623" y="43" on="1"/>
        <pt x="604" y="16" on="0"/>
        <pt x="553" y="-16" on="0"/>
        <pt x="496" y="-34" on="0"/>
        <pt x="434" y="-39" on="0"/>
        <pt x="404" y="-39" on="1"/>
        <pt x="312" y="-39" on="0"/>
        <pt x="169" y="32" on="0"/>
        <pt x="71" y="151" on="0"/>
        <pt x="20" y="306" on="0"/>
        <pt x="20" y="391" on="1"/>
        <pt x="20" y="445" on="0"/>
        <pt x="52" y="539" on="0"/>
        <pt x="107" y="621" on="0"/>
        <pt x="181" y="690" on="0"/>
        <pt x="223" y="719" on="1"/>
        <pt x="266" y="748" on="0"/>
        <pt x="359" y="767" on="0"/>
        <pt x="411" y="767" on="1"/>
        <pt x="449" y="767" on="0"/>
        <pt x="547" y="754" on="0"/>
        <pt x="643" y="726" on="0"/>
        <pt x="723" y="681" on="0"/>
        <pt x="744" y="649" on="1"/>
        <pt x="760" y="625" on="0"/>
        <pt x="789" y="551" on="0"/>
        <pt x="812" y="470" on="0"/>
        <pt x="826" y="391" on="0"/>
      </contour>
      <contour>
        <pt x="464" y="257" on="1"/>
        <pt x="464" y="281" on="0"/>
        <pt x="429" y="317" on="0"/>
        <pt x="404" y="317" on="1"/>
        <pt x="372" y="317" on="0"/>
        <pt x="332" y="278" on="0"/>
        <pt x="332" y="245" on="1"/>
        <pt x="332" y="218" on="0"/>
        <pt x="368" y="178" on="0"/>
        <pt x="396" y="178" on="1"/>
        <pt x="412" y="178" on="0"/>
        <pt x="437" y="192" on="0"/>
        <pt x="455" y="214" on="0"/>
        <pt x="464" y="242" on="0"/>
      </contour>
    </TTGlyph>
    <TTGlyph name="atilde" xMin="31" yMin="94" xMax="755" yMax="891">
      <component glyphName="a" x="0" y="0" flags="0x204"/>
      <component glyphName="tilde" x="-71" y="72" flags="0x4"/>
    </TTGlyph>
    <TTGlyph name="b" xMin="46" yMin="-3" xMax="826" yMax="739">
      <contour>
        <pt x="826" y="208" on="1"/>
        <pt x="826" y="154" on="0"/>
        <pt x="778" y="66" on="0"/>
        <pt x="724" y="49" on="1"/>
        <pt x="716" y="47" on="0"/>
        <pt x="666" y="44" on="0"/>
        <pt x="608" y="43" on="0"/>
        <pt x="556" y="43" on="0"/>
        <pt x="548" y="43" on="1"/>
        <pt x="477" y="43" on="0"/>
        <pt x="336" y="45" on="0"/>
        <pt x="266" y="47" on="1"/>
        <pt x="261" y="4" on="1"/>
        <pt x="210" y="4" on="0"/>
        <pt x="106" y="0" on="0"/>
        <pt x="54" y="-3" on="1"/>
        <pt x="55" y="74" on="0"/>
        <pt x="56" y="226" on="0"/>
        <pt x="56" y="303" on="1"/>
        <pt x="56" y="413" on="0"/>
        <pt x="49" y="630" on="0"/>
        <pt x="46" y="739" on="1"/>
        <pt x="216" y="732" on="1"/>
        <pt x="215" y="719" on="0"/>
        <pt x="215" y="692" on="0"/>
        <pt x="215" y="678" on="1"/>
        <pt x="215" y="612" on="0"/>
        <pt x="220" y="481" on="0"/>
        <pt x="220" y="415" on="1"/>
        <pt x="236" y="444" on="0"/>
        <pt x="292" y="496" on="0"/>
        <pt x="323" y="504" on="1"/>
        <pt x="351" y="511" on="0"/>
        <pt x="423" y="523" on="0"/>
        <pt x="498" y="532" on="0"/>
        <pt x="572" y="536" on="0"/>
        <pt x="601" y="536" on="1"/>
        <pt x="622" y="536" on="0"/>
        <pt x="673" y="525" on="0"/>
        <pt x="723" y="505" on="0"/>
        <pt x="764" y="476" on="0"/>
        <pt x="776" y="457" on="1"/>
        <pt x="786" y="440" on="0"/>
        <pt x="805" y="373" on="0"/>
        <pt x="818" y="298" on="0"/>
        <pt x="826" y="228" on="0"/>
      </contour>
      <contour>
        <pt x="616" y="271" on="1"/>
        <pt x="616" y="281" on="0"/>
        <pt x="611" y="313" on="0"/>
        <pt x="602" y="346" on="0"/>
        <pt x="590" y="375" on="0"/>
        <pt x="582" y="382" on="1"/>
        <pt x="578" y="386" on="0"/>
        <pt x="560" y="389" on="0"/>
        <pt x="541" y="391" on="0"/>
        <pt x="522" y="391" on="0"/>
        <pt x="517" y="391" on="1"/>
        <pt x="508" y="391" on="0"/>
        <pt x="470" y="389" on="0"/>
        <pt x="422" y="386" on="0"/>
        <pt x="369" y="381" on="0"/>
        <pt x="323" y="375" on="0"/>
        <pt x="289" y="368" on="0"/>
        <pt x="283" y="364" on="1"/>
        <pt x="295" y="197" on="1"/>
        <pt x="321" y="197" on="0"/>
        <pt x="402" y="198" on="0"/>
        <pt x="489" y="203" on="0"/>
        <pt x="570" y="213" on="0"/>
        <pt x="594" y="223" on="1"/>
        <pt x="611" y="230" on="0"/>
        <pt x="616" y="254" on="0"/>
      </contour>
    </TTGlyph>
    <TTGlyph name="backslash" xMin="-20" yMin="-27" xMax="524" yMax="753">
      <contour>
        <pt x="524" y="-27" on="1"/>
        <pt x="402" y="-17" on="1"/>
        <pt x="346" y="90" on="0"/>
        <pt x="234" y="301" on="0"/>
        <pt x="173" y="406" on="1"/>
        <pt x="122" y="492" on="0"/>
        <pt x="28" y="665" on="0"/>
        <pt x="-20" y="753" on="1"/>
        <pt x="96" y="753" on="1"/>
        <pt x="153" y="656" on="0"/>
        <pt x="265" y="463" on="0"/>
        <pt x="321" y="366" on="1"/>
        <pt x="376" y="269" on="0"/>
        <pt x="476" y="72" on="0"/>
      </contour>
    </TTGlyph>
    <TTGlyph name="bar" xMin="51" yMin="-27" xMax="173" yMax="758">
      <contour>
        <pt x="173" y="-23" on="1"/>
        <pt x="51" y="-27" on="1"/>
        <pt x="53" y="75" on="0"/>
        <pt x="58" y="275" on="0"/>
        <pt x="61" y="376" on="1"/>
        <pt x="62" y="402" on="0"/>
        <pt x="62" y="451" on="0"/>
        <pt x="62" y="477" on="1"/>
        <pt x="62" y="617" on="0"/>
        <pt x="56" y="758" on="1"/>
        <pt x="163" y="748" on="1"/>
        <pt x="159" y="646" on="0"/>
        <pt x="154" y="446" on="0"/>
        <pt x="154" y="345" on="1"/>
        <pt x="154" y="252" on="0"/>
        <pt x="164" y="69" on="0"/>
      </contour>
    </TTGlyph>
    <TTGlyph name="braceleft" xMin="41" yMin="-89" xMax="407" yMax="841">
      <contour>
        <pt x="407" y="841" on="1"/>
        <pt x="399" y="738" on="1"/>
        <pt x="394" y="739" on="0"/>
        <pt x="385" y="739" on="0"/>
        <pt x="380" y="739" on="1"/>
        <pt x="348" y="739" on="0"/>
        <pt x="307" y="714" on="0"/>
        <pt x="283" y="673" on="0"/>
        <pt x="273" y="622" on="0"/>
        <pt x="273" y="595" on="1"/>
        <pt x="273" y="566" on="0"/>
        <pt x="282" y="511" on="0"/>
        <pt x="282" y="483" on="1"/>
        <pt x="282" y="464" on="0"/>
        <pt x="263" y="433" on="0"/>
        <pt x="234" y="409" on="0"/>
        <pt x="200" y="392" on="0"/>
        <pt x="185" y="386" on="1"/>
        <pt x="200" y="377" on="0"/>
        <pt x="229" y="351" on="0"/>
        <pt x="252" y="320" on="0"/>
        <pt x="266" y="284" on="0"/>
        <pt x="266" y="266" on="1"/>
        <pt x="266" y="248" on="0"/>
        <pt x="258" y="214" on="0"/>
        <pt x="249" y="181" on="0"/>
        <pt x="241" y="148" on="0"/>
        <pt x="241" y="132" on="1"/>
        <pt x="241" y="103" on="0"/>
        <pt x="269" y="64" on="0"/>
        <pt x="312" y="40" on="0"/>
        <pt x="364" y="28" on="0"/>
        <pt x="388" y="27" on="1"/>
        <pt x="399" y="-89" on="1"/>
        <pt x="373" y="-88" on="0"/>
        <pt x="313" y="-80" on="0"/>
        <pt x="254" y="-63" on="0"/>
        <pt x="201" y="-35" on="0"/>
        <pt x="182" y="-13" on="1"/>
        <pt x="164" y="7" on="0"/>
        <pt x="155" y="60" on="0"/>
        <pt x="155" y="88" on="1"/>
        <pt x="155" y="122" on="0"/>
        <pt x="168" y="187" on="0"/>
        <pt x="168" y="220" on="1"/>
        <pt x="168" y="232" on="0"/>
        <pt x="166" y="250" on="0"/>
        <pt x="158" y="259" on="1"/>
        <pt x="149" y="271" on="0"/>
        <pt x="120" y="287" on="0"/>
        <pt x="88" y="297" on="0"/>
        <pt x="55" y="302" on="0"/>
        <pt x="41" y="304" on="1"/>
        <pt x="41" y="444" on="1"/>
        <pt x="73" y="448" on="0"/>
        <pt x="138" y="473" on="0"/>
        <pt x="159" y="500" on="1"/>
        <pt x="169" y="512" on="0"/>
        <pt x="175" y="537" on="0"/>
        <pt x="175" y="553" on="1"/>
        <pt x="175" y="582" on="0"/>
        <pt x="165" y="636" on="0"/>
        <pt x="165" y="664" on="1"/>
        <pt x="165" y="702" on="0"/>
        <pt x="192" y="756" on="0"/>
        <pt x="221" y="778" on="1"/>
        <pt x="261" y="808" on="0"/>
        <pt x="357" y="839" on="0"/>
      </contour>
    </TTGlyph>
    <TTGlyph name="braceright" xMin="0" yMin="-92" xMax="367" yMax="839">
      <contour>
        <pt x="367" y="310" on="1"/>
        <pt x="344" y="307" on="0"/>
        <pt x="296" y="292" on="0"/>
        <pt x="257" y="266" on="0"/>
        <pt x="233" y="227" on="0"/>
        <pt x="233" y="201" on="1"/>
        <pt x="233" y="172" on="0"/>
        <pt x="247" y="114" on="0"/>
        <pt x="247" y="85" on="1"/>
        <pt x="247" y="48" on="0"/>
        <pt x="219" y="-4" on="0"/>
        <pt x="190" y="-27" on="1"/>
        <pt x="152" y="-57" on="0"/>
        <pt x="57" y="-89" on="0"/>
        <pt x="7" y="-92" on="1"/>
        <pt x="13" y="11" on="1"/>
        <pt x="17" y="10" on="0"/>
        <pt x="26" y="10" on="0"/>
        <pt x="30" y="10" on="1"/>
        <pt x="62" y="10" on="0"/>
        <pt x="103" y="34" on="0"/>
        <pt x="127" y="74" on="0"/>
        <pt x="137" y="125" on="0"/>
        <pt x="137" y="152" on="1"/>
        <pt x="137" y="181" on="0"/>
        <pt x="126" y="240" on="0"/>
        <pt x="126" y="269" on="1"/>
        <pt x="126" y="287" on="0"/>
        <pt x="145" y="318" on="0"/>
        <pt x="173" y="342" on="0"/>
        <pt x="206" y="360" on="0"/>
        <pt x="221" y="366" on="1"/>
        <pt x="206" y="374" on="0"/>
        <pt x="177" y="400" on="0"/>
        <pt x="153" y="431" on="0"/>
        <pt x="138" y="466" on="0"/>
        <pt x="138" y="484" on="1"/>
        <pt x="138" y="503" on="0"/>
        <pt x="145" y="538" on="0"/>
        <pt x="154" y="570" on="0"/>
        <pt x="162" y="601" on="0"/>
        <pt x="162" y="617" on="1"/>
        <pt x="162" y="647" on="0"/>
        <pt x="134" y="686" on="0"/>
        <pt x="90" y="710" on="0"/>
        <pt x="38" y="721" on="0"/>
        <pt x="13" y="722" on="1"/>
        <pt x="0" y="839" on="1"/>
        <pt x="27" y="838" on="0"/>
        <pt x="87" y="831" on="0"/>
        <pt x="146" y="814" on="0"/>
        <pt x="199" y="787" on="0"/>
        <pt x="218" y="766" on="1"/>
        <pt x="238" y="744" on="0"/>
        <pt x="247" y="688" on="0"/>
        <pt x="247" y="659" on="1"/>
        <pt x="247" y="627" on="0"/>
        <pt x="237" y="567" on="0"/>
        <pt x="237" y="536" on="1"/>
        <pt x="237" y="524" on="0"/>
        <pt x="238" y="504" on="0"/>
        <pt x="246" y="495" on="1"/>
        <pt x="255" y="483" on="0"/>
        <pt x="284" y="466" on="0"/>
        <pt x="317" y="456" on="0"/>
        <pt x="351" y="451" on="0"/>
        <pt x="365" y="450" on="1"/>
      </contour>
    </TTGlyph>
    <TTGlyph name="bracketleft" xMin="61" yMin="-52" xMax="290" yMax="838">
      <contour>
        <pt x="290" y="731" on="1"/>
        <pt x="176" y="714" on="1"/>
        <pt x="178" y="639" on="0"/>
        <pt x="182" y="492" on="0"/>
        <pt x="182" y="417" on="1"/>
        <pt x="182" y="61" on="1"/>
        <pt x="278" y="44" on="1"/>
        <pt x="281" y="-38" on="1"/>
        <pt x="258" y="-43" on="0"/>
        <pt x="211" y="-52" on="0"/>
        <pt x="188" y="-52" on="1"/>
        <pt x="162" y="-52" on="0"/>
        <pt x="109" y="-47" on="0"/>
        <pt x="83" y="-45" on="1"/>
        <pt x="75" y="83" on="0"/>
        <pt x="61" y="335" on="0"/>
        <pt x="61" y="463" on="1"/>
        <pt x="61" y="554" on="0"/>
        <pt x="75" y="747" on="0"/>
        <pt x="83" y="838" on="1"/>
        <pt x="284" y="820" on="1"/>
      </contour>
    </TTGlyph>
    <TTGlyph name="bracketright" xMin="20" yMin="-54" xMax="246" yMax="833">
      <contour>
        <pt x="246" y="304" on="1"/>
        <pt x="246" y="214" on="0"/>
        <pt x="236" y="36" on="0"/>
        <pt x="228" y="-54" on="1"/>
        <pt x="28" y="-41" on="1"/>
        <pt x="20" y="48" on="1"/>
        <pt x="134" y="68" on="1"/>
        <pt x="132" y="142" on="0"/>
        <pt x="126" y="290" on="0"/>
        <pt x="125" y="365" on="1"/>
        <pt x="121" y="720" on="1"/>
        <pt x="25" y="736" on="1"/>
        <pt x="20" y="818" on="1"/>
        <pt x="42" y="823" on="0"/>
        <pt x="90" y="833" on="0"/>
        <pt x="113" y="833" on="1"/>
        <pt x="139" y="833" on="0"/>
        <pt x="192" y="829" on="0"/>
        <pt x="218" y="827" on="1"/>
        <pt x="230" y="669" on="0"/>
        <pt x="239" y="507" on="1"/>
        <pt x="241" y="456" on="0"/>
        <pt x="246" y="355" on="0"/>
      </contour>
    </TTGlyph>
    <TTGlyph name="breve" xMin="272" yMin="643" xMax="686" yMax="809">
      <contour>
        <pt x="686" y="807" on="1"/>
        <pt x="664" y="746" on="0"/>
        <pt x="574" y="670" on="0"/>
        <pt x="514" y="653" on="1"/>
        <pt x="498" y="648" on="0"/>
        <pt x="467" y="643" on="0"/>
        <pt x="451" y="643" on="1"/>
        <pt x="415" y="643" on="0"/>
        <pt x="350" y="664" on="0"/>
        <pt x="301" y="704" on="0"/>
        <pt x="272" y="763" on="0"/>
        <pt x="272" y="802" on="1"/>
        <pt x="396" y="799" on="1"/>
        <pt x="393" y="790" on="0"/>
        <pt x="393" y="779" on="1"/>
        <pt x="393" y="763" on="0"/>
        <pt x="408" y="741" on="0"/>
        <pt x="431" y="728" on="0"/>
        <pt x="459" y="723" on="0"/>
        <pt x="473" y="723" on="1"/>
        <pt x="491" y="723" on="0"/>
        <pt x="527" y="734" on="0"/>
        <pt x="555" y="756" on="0"/>
        <pt x="570" y="788" on="0"/>
        <pt x="567" y="809" on="1"/>
      </contour>
    </TTGlyph>
    <TTGlyph name="brokenbar" xMin="72" yMin="-34" xMax="195" yMax="754">
      <contour>
        <pt x="195" y="441" on="1"/>
        <pt x="89" y="450" on="1"/>
        <pt x="86" y="525" on="0"/>
        <pt x="81" y="676" on="0"/>
        <pt x="79" y="752" on="1"/>
        <pt x="195" y="754" on="1"/>
        <pt x="195" y="701" on="0"/>
        <pt x="193" y="597" on="0"/>
        <pt x="193" y="545" on="1"/>
        <pt x="193" y="519" on="0"/>
        <pt x="193" y="467" on="0"/>
      </contour>
      <contour>
        <pt x="185" y="278" on="1"/>
        <pt x="180" y="200" on="0"/>
        <pt x="179" y="44" on="0"/>
        <pt x="175" y="-34" on="1"/>
        <pt x="72" y="-29" on="1"/>
        <pt x="77" y="49" on="0"/>
        <pt x="81" y="200" on="0"/>
        <pt x="84" y="278" on="1"/>
      </contour>
    </TTGlyph>
    <TTGlyph name="bullet" xMin="41" yMin="234" xMax="249" yMax="443">
      <contour>
        <pt x="249" y="341" on="1"/>
        <pt x="249" y="321" on="0"/>
        <pt x="228" y="283" on="0"/>
        <pt x="195" y="253" on="0"/>
        <pt x="154" y="234" on="0"/>
        <pt x="135" y="234" on="1"/>
        <pt x="116" y="234" on="0"/>
        <pt x="82" y="253" on="0"/>
        <pt x="56" y="282" on="0"/>
        <pt x="41" y="319" on="0"/>
        <pt x="41" y="337" on="1"/>
        <pt x="41" y="359" on="0"/>
        <pt x="61" y="394" on="0"/>
        <pt x="93" y="420" on="0"/>
        <pt x="132" y="437" on="0"/>
        <pt x="151" y="442" on="1"/>
        <pt x="154" y="442" on="0"/>
        <pt x="159" y="443" on="0"/>
        <pt x="162" y="443" on="1"/>
        <pt x="180" y="443" on="0"/>
        <pt x="212" y="423" on="0"/>
        <pt x="235" y="393" on="0"/>
        <pt x="249" y="357" on="0"/>
      </contour>
    </TTGlyph>
    <TTGlyph name="c" xMin="26" yMin="100" xMax="696" yMax="636">
      <contour>
        <pt x="696" y="527" on="1"/>
        <pt x="696" y="481" on="0"/>
        <pt x="684" y="438" on="1"/>
        <pt x="677" y="437" on="0"/>
        <pt x="608" y="434" on="0"/>
        <pt x="513" y="429" on="0"/>
        <pt x="404" y="422" on="0"/>
        <pt x="311" y="414" on="0"/>
        <pt x="246" y="405" on="0"/>
        <pt x="242" y="401" on="1"/>
        <pt x="226" y="387" on="0"/>
        <pt x="210" y="347" on="0"/>
        <pt x="210" y="327" on="1"/>
        <pt x="210" y="315" on="0"/>
        <pt x="215" y="302" on="0"/>
        <pt x="221" y="294" on="1"/>
        <pt x="224" y="291" on="0"/>
        <pt x="260" y="287" on="0"/>
        <pt x="304" y="285" on="0"/>
        <pt x="342" y="284" on="0"/>
        <pt x="345" y="284" on="1"/>
        <pt x="417" y="284" on="0"/>
        <pt x="561" y="290" on="0"/>
        <pt x="633" y="295" on="1"/>
        <pt x="641" y="123" on="1"/>
        <pt x="541" y="115" on="0"/>
        <pt x="340" y="100" on="0"/>
        <pt x="239" y="100" on="1"/>
        <pt x="234" y="100" on="0"/>
        <pt x="215" y="100" on="0"/>
        <pt x="193" y="101" on="0"/>
        <pt x="173" y="103" on="0"/>
        <pt x="169" y="104" on="1"/>
        <pt x="148" y="110" on="0"/>
        <pt x="107" y="125" on="0"/>
        <pt x="71" y="148" on="0"/>
        <pt x="44" y="180" on="0"/>
        <pt x="38" y="203" on="1"/>
        <pt x="34" y="218" on="0"/>
        <pt x="29" y="267" on="0"/>
        <pt x="27" y="319" on="0"/>
        <pt x="26" y="369" on="0"/>
        <pt x="26" y="386" on="1"/>
        <pt x="26" y="425" on="0"/>
        <pt x="28" y="493" on="0"/>
        <pt x="48" y="550" on="0"/>
        <pt x="93" y="595" on="0"/>
        <pt x="135" y="612" on="1"/>
        <pt x="154" y="620" on="0"/>
        <pt x="230" y="629" on="0"/>
        <pt x="313" y="634" on="0"/>
        <pt x="389" y="636" on="0"/>
        <pt x="410" y="636" on="1"/>
        <pt x="480" y="636" on="0"/>
        <pt x="619" y="630" on="0"/>
        <pt x="689" y="625" on="1"/>
        <pt x="692" y="600" on="0"/>
        <pt x="696" y="551" on="0"/>
      </contour>
    </TTGlyph>
    <TTGlyph name="caron" xMin="281" yMin="635" xMax="677" yMax="849">
      <contour>
        <pt x="677" y="837" on="1"/>
        <pt x="628" y="786" on="0"/>
        <pt x="533" y="684" on="0"/>
        <pt x="482" y="635" on="1"/>
        <pt x="430" y="688" on="0"/>
        <pt x="331" y="795" on="0"/>
        <pt x="281" y="849" on="1"/>
        <pt x="386" y="847" on="1"/>
        <pt x="484" y="731" on="1"/>
        <pt x="583" y="842" on="1"/>
      </contour>
    </TTGlyph>
    <TTGlyph name="ccedilla" xMin="26" yMin="-239" xMax="696" yMax="636">
      <contour>
        <pt x="536" y="-92" on="1"/>
        <pt x="536" y="-104" on="0"/>
        <pt x="531" y="-137" on="0"/>
        <pt x="520" y="-170" on="0"/>
        <pt x="504" y="-197" on="0"/>
        <pt x="493" y="-203" on="1"/>
        <pt x="482" y="-209" on="0"/>
        <pt x="432" y="-220" on="0"/>
        <pt x="375" y="-229" on="0"/>
        <pt x="322" y="-237" on="0"/>
        <pt x="307" y="-239" on="1"/>
        <pt x="303" y="-145" on="1"/>
        <pt x="311" y="-144" on="0"/>
        <pt x="349" y="-137" on="0"/>
        <pt x="390" y="-129" on="0"/>
        <pt x="425" y="-121" on="0"/>
        <pt x="429" y="-119" on="1"/>
        <pt x="440" y="-113" on="0"/>
        <pt x="446" y="-97" on="0"/>
        <pt x="446" y="-86" on="1"/>
        <pt x="446" y="-60" on="0"/>
        <pt x="425" y="-45" on="1"/>
        <pt x="420" y="-42" on="0"/>
        <pt x="386" y="-39" on="0"/>
        <pt x="345" y="-38" on="0"/>
        <pt x="307" y="-39" on="0"/>
        <pt x="299" y="-39" on="1"/>
        <pt x="299" y="51" on="1"/>
        <pt x="299" y="64" on="0"/>
        <pt x="300" y="89" on="0"/>
        <pt x="300" y="101" on="1"/>
        <pt x="285" y="101" on="0"/>
        <pt x="254" y="100" on="0"/>
        <pt x="239" y="100" on="1"/>
        <pt x="234" y="100" on="0"/>
        <pt x="215" y="100" on="0"/>
        <pt x="193" y="101" on="0"/>
        <pt x="173" y="103" on="0"/>
        <pt x="169" y="104" on="1"/>
        <pt x="148" y="110" on="0"/>
        <pt x="107" y="125" on="0"/>
        <pt x="71" y="148" on="0"/>
        <pt x="44" y="180" on="0"/>
        <pt x="38" y="203" on="1"/>
        <pt x="34" y="218" on="0"/>
        <pt x="29" y="267" on="0"/>
        <pt x="27" y="319" on="0"/>
        <pt x="26" y="369" on="0"/>
        <pt x="26" y="386" on="1"/>
        <pt x="26" y="425" on="0"/>
        <pt x="28" y="493" on="0"/>
        <pt x="48" y="550" on="0"/>
        <pt x="93" y="595" on="0"/>
        <pt x="135" y="612" on="1"/>
        <pt x="154" y="620" on="0"/>
        <pt x="230" y="629" on="0"/>
        <pt x="313" y="634" on="0"/>
        <pt x="389" y="636" on="0"/>
        <pt x="410" y="636" on="1"/>
        <pt x="480" y="636" on="0"/>
        <pt x="619" y="630" on="0"/>
        <pt x="689" y="625" on="1"/>
        <pt x="692" y="600" on="0"/>
        <pt x="696" y="551" on="0"/>
        <pt x="696" y="527" on="1"/>
        <pt x="696" y="481" on="0"/>
        <pt x="684" y="438" on="1"/>
        <pt x="677" y="437" on="0"/>
        <pt x="608" y="434" on="0"/>
        <pt x="513" y="429" on="0"/>
        <pt x="404" y="422" on="0"/>
        <pt x="311" y="414" on="0"/>
        <pt x="246" y="405" on="0"/>
        <pt x="242" y="401" on="1"/>
        <pt x="226" y="387" on="0"/>
        <pt x="210" y="347" on="0"/>
        <pt x="210" y="327" on="1"/>
        <pt x="210" y="315" on="0"/>
        <pt x="215" y="302" on="0"/>
        <pt x="221" y="294" on="1"/>
        <pt x="224" y="291" on="0"/>
        <pt x="260" y="287" on="0"/>
        <pt x="304" y="285" on="0"/>
        <pt x="342" y="284" on="0"/>
        <pt x="345" y="284" on="1"/>
        <pt x="417" y="284" on="0"/>
        <pt x="561" y="290" on="0"/>
        <pt x="633" y="295" on="1"/>
        <pt x="641" y="123" on="1"/>
        <pt x="585" y="118" on="0"/>
        <pt x="474" y="109" on="0"/>
        <pt x="417" y="106" on="1"/>
        <pt x="417" y="20" on="1"/>
        <pt x="442" y="17" on="0"/>
        <pt x="482" y="5" on="0"/>
        <pt x="512" y="-18" on="0"/>
        <pt x="530" y="-54" on="0"/>
        <pt x="535" y="-81" on="1"/>
        <pt x="535" y="-84" on="0"/>
        <pt x="536" y="-89" on="0"/>
      </contour>
    </TTGlyph>
    <TTGlyph name="cedilla" xMin="360" yMin="-351" xMax="597" yMax="32">
      <contour>
        <pt x="597" y="-205" on="1"/>
        <pt x="597" y="-217" on="0"/>
        <pt x="592" y="-250" on="0"/>
        <pt x="581" y="-282" on="0"/>
        <pt x="565" y="-309" on="0"/>
        <pt x="554" y="-315" on="1"/>
        <pt x="543" y="-321" on="0"/>
        <pt x="494" y="-332" on="0"/>
        <pt x="437" y="-342" on="0"/>
        <pt x="384" y="-349" on="0"/>
        <pt x="369" y="-351" on="1"/>
        <pt x="365" y="-258" on="1"/>
        <pt x="372" y="-257" on="0"/>
        <pt x="410" y="-250" on="0"/>
        <pt x="451" y="-242" on="0"/>
        <pt x="486" y="-234" on="0"/>
        <pt x="490" y="-231" on="1"/>
        <pt x="501" y="-226" on="0"/>
        <pt x="508" y="-210" on="0"/>
        <pt x="508" y="-199" on="1"/>
        <pt x="508" y="-172" on="0"/>
        <pt x="486" y="-158" on="1"/>
        <pt x="481" y="-155" on="0"/>
        <pt x="447" y="-152" on="0"/>
        <pt x="406" y="-151" on="0"/>
        <pt x="368" y="-152" on="0"/>
        <pt x="360" y="-152" on="1"/>
        <pt x="360" y="-61" on="1"/>
        <pt x="360" y="-44" on="0"/>
        <pt x="361" y="-9" on="0"/>
        <pt x="362" y="8" on="1"/>
        <pt x="478" y="32" on="1"/>
        <pt x="478" y="-92" on="1"/>
        <pt x="504" y="-95" on="0"/>
        <pt x="544" y="-108" on="0"/>
        <pt x="573" y="-130" on="0"/>
        <pt x="592" y="-167" on="0"/>
        <pt x="596" y="-194" on="1"/>
        <pt x="596" y="-197" on="0"/>
        <pt x="597" y="-202" on="0"/>
      </contour>
    </TTGlyph>
    <TTGlyph name="cent" xMin="20" yMin="58" xMax="535" yMax="696">
      <contour>
        <pt x="535" y="161" on="1"/>
        <pt x="518" y="157" on="0"/>
        <pt x="484" y="155" on="0"/>
        <pt x="467" y="155" on="1"/>
        <pt x="440" y="155" on="0"/>
        <pt x="386" y="161" on="0"/>
        <pt x="360" y="165" on="1"/>
        <pt x="365" y="58" on="1"/>
        <pt x="232" y="61" on="1"/>
        <pt x="232" y="161" on="1"/>
        <pt x="224" y="162" on="0"/>
        <pt x="171" y="173" on="0"/>
        <pt x="111" y="186" on="0"/>
        <pt x="60" y="202" on="0"/>
        <pt x="55" y="210" on="1"/>
        <pt x="46" y="224" on="0"/>
        <pt x="33" y="265" on="0"/>
        <pt x="24" y="310" on="0"/>
        <pt x="20" y="353" on="0"/>
        <pt x="20" y="369" on="1"/>
        <pt x="20" y="435" on="0"/>
        <pt x="62" y="538" on="0"/>
        <pt x="106" y="587" on="1"/>
        <pt x="116" y="598" on="0"/>
        <pt x="156" y="613" on="0"/>
        <pt x="201" y="623" on="0"/>
        <pt x="244" y="628" on="0"/>
        <pt x="258" y="629" on="1"/>
        <pt x="270" y="696" on="1"/>
        <pt x="387" y="696" on="1"/>
        <pt x="390" y="612" on="1"/>
        <pt x="512" y="606" on="1"/>
        <pt x="514" y="589" on="0"/>
        <pt x="519" y="552" on="0"/>
        <pt x="519" y="535" on="1"/>
        <pt x="519" y="519" on="0"/>
        <pt x="514" y="487" on="0"/>
        <pt x="512" y="471" on="1"/>
        <pt x="481" y="476" on="0"/>
        <pt x="410" y="488" on="0"/>
        <pt x="337" y="499" on="0"/>
        <pt x="265" y="506" on="0"/>
        <pt x="233" y="506" on="1"/>
        <pt x="232" y="506" on="0"/>
        <pt x="209" y="505" on="0"/>
        <pt x="206" y="503" on="1"/>
        <pt x="198" y="498" on="0"/>
        <pt x="188" y="466" on="0"/>
        <pt x="182" y="429" on="0"/>
        <pt x="180" y="395" on="0"/>
        <pt x="180" y="386" on="1"/>
        <pt x="180" y="380" on="0"/>
        <pt x="181" y="361" on="0"/>
        <pt x="184" y="342" on="0"/>
        <pt x="189" y="324" on="0"/>
        <pt x="194" y="319" on="1"/>
        <pt x="204" y="308" on="0"/>
        <pt x="243" y="296" on="0"/>
        <pt x="288" y="291" on="0"/>
        <pt x="331" y="290" on="0"/>
        <pt x="345" y="290" on="1"/>
        <pt x="391" y="290" on="0"/>
        <pt x="483" y="301" on="0"/>
        <pt x="528" y="312" on="1"/>
        <pt x="528" y="274" on="0"/>
        <pt x="535" y="199" on="0"/>
      </contour>
    </TTGlyph>
    <TTGlyph name="circumflex" xMin="281" yMin="635" xMax="677" yMax="849">
      <contour>
        <pt x="677" y="647" on="1"/>
        <pt x="583" y="643" on="1"/>
        <pt x="484" y="754" on="1"/>
        <pt x="386" y="638" on="1"/>
        <pt x="281" y="635" on="1"/>
        <pt x="331" y="690" on="0"/>
        <pt x="430" y="797" on="0"/>
        <pt x="482" y="849" on="1"/>
        <pt x="533" y="800" on="0"/>
        <pt x="628" y="699" on="0"/>
      </contour>
    </TTGlyph>
    <TTGlyph name="colon" xMin="41" yMin="-22" xMax="210" yMax="412">
      <contour>
        <pt x="209" y="322" on="1"/>
        <pt x="209" y="317" on="0"/>
        <pt x="209" y="301" on="0"/>
        <pt x="207" y="284" on="0"/>
        <pt x="203" y="270" on="0"/>
        <pt x="200" y="267" on="1"/>
        <pt x="196" y="264" on="0"/>
        <pt x="172" y="259" on="0"/>
        <pt x="144" y="257" on="0"/>
        <pt x="119" y="256" on="0"/>
        <pt x="113" y="256" on="1"/>
        <pt x="107" y="256" on="0"/>
        <pt x="90" y="256" on="0"/>
        <pt x="72" y="258" on="0"/>
        <pt x="57" y="263" on="0"/>
        <pt x="54" y="267" on="1"/>
        <pt x="50" y="272" on="0"/>
        <pt x="45" y="293" on="0"/>
        <pt x="42" y="316" on="0"/>
        <pt x="41" y="339" on="0"/>
        <pt x="41" y="345" on="1"/>
        <pt x="41" y="351" on="0"/>
        <pt x="42" y="367" on="0"/>
        <pt x="44" y="383" on="0"/>
        <pt x="49" y="397" on="0"/>
        <pt x="54" y="401" on="1"/>
        <pt x="57" y="404" on="0"/>
        <pt x="80" y="409" on="0"/>
        <pt x="107" y="411" on="0"/>
        <pt x="133" y="412" on="0"/>
        <pt x="138" y="412" on="1"/>
        <pt x="149" y="412" on="0"/>
        <pt x="190" y="409" on="0"/>
        <pt x="198" y="401" on="1"/>
        <pt x="201" y="397" on="0"/>
        <pt x="206" y="376" on="0"/>
        <pt x="208" y="351" on="0"/>
        <pt x="209" y="328" on="0"/>
      </contour>
      <contour>
        <pt x="210" y="44" on="1"/>
        <pt x="210" y="39" on="0"/>
        <pt x="210" y="24" on="0"/>
        <pt x="208" y="7" on="0"/>
        <pt x="204" y="-7" on="0"/>
        <pt x="201" y="-10" on="1"/>
        <pt x="197" y="-13" on="0"/>
        <pt x="173" y="-18" on="0"/>
        <pt x="145" y="-21" on="0"/>
        <pt x="120" y="-22" on="0"/>
        <pt x="114" y="-22" on="1"/>
        <pt x="109" y="-22" on="0"/>
        <pt x="92" y="-22" on="0"/>
        <pt x="74" y="-19" on="0"/>
        <pt x="58" y="-15" on="0"/>
        <pt x="55" y="-10" on="1"/>
        <pt x="52" y="-6" on="0"/>
        <pt x="47" y="15" on="0"/>
        <pt x="44" y="39" on="0"/>
        <pt x="42" y="62" on="0"/>
        <pt x="42" y="68" on="1"/>
        <pt x="42" y="74" on="0"/>
        <pt x="43" y="90" on="0"/>
        <pt x="45" y="106" on="0"/>
        <pt x="50" y="120" on="0"/>
        <pt x="55" y="124" on="1"/>
        <pt x="58" y="127" on="0"/>
        <pt x="81" y="131" on="0"/>
        <pt x="109" y="133" on="0"/>
        <pt x="135" y="134" on="0"/>
        <pt x="140" y="134" on="1"/>
        <pt x="151" y="134" on="0"/>
        <pt x="191" y="132" on="0"/>
        <pt x="199" y="124" on="1"/>
        <pt x="202" y="120" on="0"/>
        <pt x="207" y="99" on="0"/>
        <pt x="209" y="74" on="0"/>
        <pt x="210" y="50" on="0"/>
      </contour>
    </TTGlyph>
    <TTGlyph name="comma" xMin="41" yMin="-127" xMax="248" yMax="151">
      <contour>
        <pt x="248" y="2" on="1"/>
        <pt x="248" y="-33" on="0"/>
        <pt x="221" y="-97" on="0"/>
        <pt x="204" y="-127" on="1"/>
        <pt x="94" y="-127" on="1"/>
        <pt x="115" y="-103" on="0"/>
        <pt x="155" y="-51" on="0"/>
        <pt x="155" y="-16" on="1"/>
        <pt x="155" y="-5" on="1"/>
        <pt x="60" y="-3" on="1"/>
        <pt x="54" y="11" on="0"/>
        <pt x="41" y="58" on="0"/>
        <pt x="41" y="73" on="1"/>
        <pt x="41" y="93" on="0"/>
        <pt x="61" y="135" on="0"/>
        <pt x="75" y="151" on="1"/>
        <pt x="225" y="138" on="1"/>
        <pt x="248" y="71" on="0"/>
      </contour>
    </TTGlyph>
    <TTGlyph name="copyright" xMin="31" yMin="95" xMax="772" yMax="761">
      <contour>
        <pt x="772" y="408" on="1"/>
        <pt x="772" y="397" on="0"/>
        <pt x="772" y="379" on="0"/>
        <pt x="771" y="370" on="1"/>
        <pt x="769" y="349" on="0"/>
        <pt x="766" y="282" on="0"/>
        <pt x="756" y="214" on="0"/>
        <pt x="734" y="157" on="0"/>
        <pt x="713" y="146" on="1"/>
        <pt x="692" y="135" on="0"/>
        <pt x="603" y="116" on="0"/>
        <pt x="504" y="103" on="0"/>
        <pt x="413" y="95" on="0"/>
        <pt x="390" y="95" on="1"/>
        <pt x="373" y="95" on="0"/>
        <pt x="318" y="98" on="0"/>
        <pt x="253" y="105" on="0"/>
        <pt x="185" y="115" on="0"/>
        <pt x="127" y="129" on="0"/>
        <pt x="84" y="146" on="0"/>
        <pt x="77" y="156" on="1"/>
        <pt x="66" y="171" on="0"/>
        <pt x="49" y="246" on="0"/>
        <pt x="37" y="331" on="0"/>
        <pt x="31" y="411" on="0"/>
        <pt x="31" y="431" on="1"/>
        <pt x="31" y="452" on="0"/>
        <pt x="40" y="523" on="0"/>
        <pt x="56" y="596" on="0"/>
        <pt x="80" y="661" on="0"/>
        <pt x="94" y="678" on="1"/>
        <pt x="105" y="690" on="0"/>
        <pt x="149" y="713" on="0"/>
        <pt x="204" y="731" on="0"/>
        <pt x="268" y="746" on="0"/>
        <pt x="329" y="756" on="0"/>
        <pt x="383" y="761" on="0"/>
        <pt x="402" y="761" on="1"/>
        <pt x="422" y="761" on="1"/>
        <pt x="442" y="760" on="0"/>
        <pt x="502" y="750" on="0"/>
        <pt x="571" y="734" on="0"/>
        <pt x="642" y="712" on="0"/>
        <pt x="701" y="686" on="0"/>
        <pt x="743" y="656" on="0"/>
        <pt x="749" y="640" on="1"/>
        <pt x="755" y="623" on="0"/>
        <pt x="764" y="560" on="0"/>
        <pt x="769" y="491" on="0"/>
        <pt x="772" y="427" on="0"/>
      </contour>
      <contour>
        <pt x="687" y="319" on="1"/>
        <pt x="687" y="340" on="0"/>
        <pt x="685" y="425" on="0"/>
        <pt x="681" y="515" on="0"/>
        <pt x="671" y="591" on="0"/>
        <pt x="664" y="602" on="1"/>
        <pt x="658" y="611" on="0"/>
        <pt x="622" y="628" on="0"/>
        <pt x="575" y="643" on="0"/>
        <pt x="520" y="656" on="0"/>
        <pt x="470" y="665" on="0"/>
        <pt x="428" y="671" on="0"/>
        <pt x="417" y="671" on="1"/>
        <pt x="407" y="671" on="0"/>
        <pt x="389" y="672" on="0"/>
        <pt x="381" y="672" on="1"/>
        <pt x="366" y="672" on="0"/>
        <pt x="304" y="668" on="0"/>
        <pt x="238" y="659" on="0"/>
        <pt x="181" y="644" on="0"/>
        <pt x="170" y="634" on="1"/>
        <pt x="159" y="623" on="0"/>
        <pt x="142" y="563" on="0"/>
        <pt x="130" y="492" on="0"/>
        <pt x="122" y="427" on="0"/>
        <pt x="121" y="412" on="1"/>
        <pt x="120" y="402" on="0"/>
        <pt x="119" y="384" on="0"/>
        <pt x="119" y="375" on="1"/>
        <pt x="119" y="360" on="0"/>
        <pt x="123" y="311" on="0"/>
        <pt x="132" y="259" on="0"/>
        <pt x="147" y="214" on="0"/>
        <pt x="158" y="203" on="1"/>
        <pt x="169" y="192" on="0"/>
        <pt x="235" y="176" on="0"/>
        <pt x="315" y="166" on="0"/>
        <pt x="391" y="162" on="0"/>
        <pt x="412" y="162" on="1"/>
        <pt x="433" y="162" on="0"/>
        <pt x="508" y="172" on="0"/>
        <pt x="587" y="190" on="0"/>
        <pt x="656" y="216" on="0"/>
        <pt x="671" y="232" on="1"/>
        <pt x="677" y="239" on="0"/>
        <pt x="683" y="261" on="0"/>
        <pt x="686" y="287" on="0"/>
        <pt x="687" y="311" on="0"/>
      </contour>
      <contour>
        <pt x="574" y="377" on="1"/>
        <pt x="573" y="370" on="0"/>
        <pt x="568" y="332" on="0"/>
        <pt x="559" y="290" on="0"/>
        <pt x="548" y="255" on="0"/>
        <pt x="542" y="251" on="1"/>
        <pt x="532" y="245" on="0"/>
        <pt x="493" y="235" on="0"/>
        <pt x="449" y="228" on="0"/>
        <pt x="408" y="224" on="0"/>
        <pt x="396" y="224" on="1"/>
        <pt x="382" y="224" on="0"/>
        <pt x="340" y="230" on="0"/>
        <pt x="298" y="241" on="0"/>
        <pt x="261" y="256" on="0"/>
        <pt x="251" y="265" on="1"/>
        <pt x="244" y="271" on="0"/>
        <pt x="235" y="310" on="0"/>
        <pt x="230" y="356" on="0"/>
        <pt x="228" y="399" on="0"/>
        <pt x="228" y="408" on="1"/>
        <pt x="228" y="422" on="0"/>
        <pt x="231" y="472" on="0"/>
        <pt x="242" y="523" on="0"/>
        <pt x="261" y="564" on="0"/>
        <pt x="278" y="569" on="1"/>
        <pt x="294" y="574" on="0"/>
        <pt x="334" y="584" on="0"/>
        <pt x="375" y="590" on="0"/>
        <pt x="415" y="592" on="0"/>
        <pt x="433" y="590" on="1"/>
        <pt x="442" y="589" on="0"/>
        <pt x="481" y="585" on="0"/>
        <pt x="521" y="578" on="0"/>
        <pt x="556" y="568" on="0"/>
        <pt x="561" y="560" on="1"/>
        <pt x="565" y="555" on="0"/>
        <pt x="569" y="533" on="0"/>
        <pt x="572" y="509" on="0"/>
        <pt x="573" y="485" on="0"/>
        <pt x="573" y="478" on="1"/>
        <pt x="573" y="474" on="0"/>
        <pt x="572" y="451" on="0"/>
        <pt x="569" y="449" on="1"/>
        <pt x="565" y="449" on="1"/>
        <pt x="534" y="449" on="0"/>
        <pt x="472" y="446" on="0"/>
        <pt x="441" y="444" on="1"/>
        <pt x="441" y="456" on="1"/>
        <pt x="441" y="459" on="0"/>
        <pt x="440" y="475" on="0"/>
        <pt x="438" y="493" on="0"/>
        <pt x="434" y="508" on="0"/>
        <pt x="431" y="510" on="1"/>
        <pt x="423" y="515" on="0"/>
        <pt x="387" y="518" on="0"/>
        <pt x="377" y="518" on="1"/>
        <pt x="373" y="518" on="0"/>
        <pt x="359" y="518" on="0"/>
        <pt x="345" y="516" on="0"/>
        <pt x="333" y="511" on="0"/>
        <pt x="330" y="507" on="1"/>
        <pt x="327" y="502" on="0"/>
        <pt x="321" y="465" on="0"/>
        <pt x="318" y="423" on="0"/>
        <pt x="316" y="385" on="0"/>
        <pt x="316" y="378" on="1"/>
        <pt x="316" y="373" on="0"/>
        <pt x="317" y="354" on="0"/>
        <pt x="319" y="333" on="0"/>
        <pt x="323" y="315" on="0"/>
        <pt x="327" y="311" on="1"/>
        <pt x="335" y="303" on="0"/>
        <pt x="368" y="300" on="0"/>
        <pt x="378" y="300" on="1"/>
        <pt x="383" y="300" on="0"/>
        <pt x="404" y="301" on="0"/>
        <pt x="426" y="303" on="0"/>
        <pt x="446" y="306" on="0"/>
        <pt x="450" y="308" on="1"/>
        <pt x="458" y="313" on="0"/>
        <pt x="464" y="339" on="0"/>
        <pt x="464" y="347" on="1"/>
        <pt x="464" y="354" on="0"/>
        <pt x="462" y="369" on="0"/>
        <pt x="460" y="375" on="1"/>
      </contour>
    </TTGlyph>
    <TTGlyph name="currency" xMin="10" yMin="89" xMax="590" yMax="610">
      <contour>
        <pt x="590" y="200" on="1"/>
        <pt x="534" y="130" on="1"/>
        <pt x="504" y="158" on="0"/>
        <pt x="450" y="197" on="0"/>
        <pt x="417" y="220" on="1"/>
        <pt x="411" y="212" on="0"/>
        <pt x="387" y="200" on="0"/>
        <pt x="358" y="192" on="0"/>
        <pt x="329" y="188" on="0"/>
        <pt x="319" y="188" on="1"/>
        <pt x="301" y="188" on="0"/>
        <pt x="262" y="196" on="0"/>
        <pt x="247" y="206" on="1"/>
        <pt x="217" y="175" on="0"/>
        <pt x="170" y="124" on="0"/>
        <pt x="143" y="89" on="1"/>
        <pt x="59" y="153" on="1"/>
        <pt x="182" y="250" on="1"/>
        <pt x="167" y="267" on="0"/>
        <pt x="146" y="312" on="0"/>
        <pt x="146" y="336" on="1"/>
        <pt x="146" y="353" on="0"/>
        <pt x="154" y="389" on="0"/>
        <pt x="160" y="406" on="1"/>
        <pt x="127" y="435" on="0"/>
        <pt x="52" y="481" on="0"/>
        <pt x="10" y="500" on="1"/>
        <pt x="76" y="573" on="1"/>
        <pt x="114" y="547" on="0"/>
        <pt x="177" y="502" on="0"/>
        <pt x="220" y="481" on="1"/>
        <pt x="237" y="495" on="0"/>
        <pt x="288" y="516" on="0"/>
        <pt x="310" y="516" on="1"/>
        <pt x="330" y="516" on="0"/>
        <pt x="376" y="506" on="0"/>
        <pt x="394" y="498" on="1"/>
        <pt x="426" y="525" on="0"/>
        <pt x="486" y="582" on="0"/>
        <pt x="517" y="610" on="1"/>
        <pt x="575" y="547" on="1"/>
        <pt x="546" y="521" on="0"/>
        <pt x="489" y="467" on="0"/>
        <pt x="460" y="440" on="1"/>
        <pt x="474" y="424" on="0"/>
        <pt x="488" y="382" on="0"/>
        <pt x="488" y="361" on="1"/>
        <pt x="488" y="342" on="0"/>
        <pt x="483" y="305" on="0"/>
        <pt x="478" y="287" on="1"/>
        <pt x="504" y="261" on="0"/>
        <pt x="558" y="219" on="0"/>
      </contour>
      <contour>
        <pt x="402" y="358" on="1"/>
        <pt x="402" y="373" on="0"/>
        <pt x="388" y="400" on="0"/>
        <pt x="366" y="419" on="0"/>
        <pt x="338" y="430" on="0"/>
        <pt x="324" y="430" on="1"/>
        <pt x="309" y="430" on="0"/>
        <pt x="279" y="419" on="0"/>
        <pt x="255" y="400" on="0"/>
        <pt x="240" y="374" on="0"/>
        <pt x="240" y="358" on="1"/>
        <pt x="240" y="343" on="0"/>
        <pt x="254" y="314" on="0"/>
        <pt x="276" y="291" on="0"/>
        <pt x="306" y="278" on="0"/>
        <pt x="321" y="278" on="1"/>
        <pt x="336" y="278" on="0"/>
        <pt x="366" y="291" on="0"/>
        <pt x="388" y="313" on="0"/>
        <pt x="402" y="342" on="0"/>
      </contour>
    </TTGlyph>
    <TTGlyph name="d" xMin="15" yMin="12" xMax="737" yMax="763">
      <contour>
        <pt x="737" y="556" on="1"/>
        <pt x="737" y="514" on="0"/>
        <pt x="737" y="432" on="0"/>
        <pt x="735" y="390" on="1"/>
        <pt x="733" y="298" on="0"/>
        <pt x="721" y="117" on="0"/>
        <pt x="714" y="26" on="1"/>
        <pt x="623" y="20" on="0"/>
        <pt x="445" y="12" on="0"/>
        <pt x="354" y="12" on="1"/>
        <pt x="342" y="12" on="0"/>
        <pt x="290" y="13" on="0"/>
        <pt x="231" y="15" on="0"/>
        <pt x="179" y="20" on="0"/>
        <pt x="167" y="25" on="1"/>
        <pt x="90" y="53" on="0"/>
        <pt x="15" y="148" on="0"/>
        <pt x="15" y="232" on="1"/>
        <pt x="15" y="248" on="1"/>
        <pt x="17" y="285" on="0"/>
        <pt x="25" y="343" on="0"/>
        <pt x="46" y="391" on="0"/>
        <pt x="83" y="432" on="0"/>
        <pt x="115" y="453" on="1"/>
        <pt x="137" y="468" on="0"/>
        <pt x="197" y="488" on="0"/>
        <pt x="262" y="502" on="0"/>
        <pt x="325" y="508" on="0"/>
        <pt x="351" y="508" on="1"/>
        <pt x="399" y="508" on="0"/>
        <pt x="494" y="494" on="0"/>
        <pt x="541" y="480" on="1"/>
        <pt x="536" y="546" on="0"/>
        <pt x="529" y="675" on="0"/>
        <pt x="522" y="740" on="1"/>
        <pt x="576" y="745" on="0"/>
        <pt x="682" y="757" on="0"/>
        <pt x="735" y="763" on="1"/>
        <pt x="736" y="711" on="0"/>
        <pt x="737" y="608" on="0"/>
      </contour>
      <contour>
        <pt x="584" y="254" on="1"/>
        <pt x="584" y="277" on="0"/>
        <pt x="584" y="323" on="0"/>
        <pt x="583" y="346" on="1"/>
        <pt x="520" y="349" on="0"/>
        <pt x="457" y="349" on="1"/>
        <pt x="448" y="349" on="0"/>
        <pt x="390" y="348" on="0"/>
        <pt x="325" y="345" on="0"/>
        <pt x="269" y="338" on="0"/>
        <pt x="261" y="333" on="1"/>
        <pt x="246" y="322" on="0"/>
        <pt x="239" y="282" on="0"/>
        <pt x="239" y="265" on="1"/>
        <pt x="239" y="257" on="0"/>
        <pt x="241" y="230" on="0"/>
        <pt x="246" y="201" on="0"/>
        <pt x="254" y="176" on="0"/>
        <pt x="259" y="170" on="1"/>
        <pt x="262" y="167" on="0"/>
        <pt x="277" y="163" on="0"/>
        <pt x="295" y="161" on="0"/>
        <pt x="312" y="161" on="0"/>
        <pt x="317" y="161" on="1"/>
        <pt x="374" y="161" on="0"/>
        <pt x="486" y="171" on="0"/>
        <pt x="543" y="179" on="1"/>
        <pt x="551" y="181" on="0"/>
        <pt x="573" y="182" on="0"/>
        <pt x="582" y="185" on="1"/>
        <pt x="582" y="187" on="1"/>
        <pt x="582" y="188" on="0"/>
        <pt x="583" y="189" on="1"/>
        <pt x="585" y="205" on="0"/>
        <pt x="584" y="237" on="0"/>
      </contour>
    </TTGlyph>
    <TTGlyph name="degree" xMin="15" yMin="503" xMax="308" yMax="724">
      <contour>
        <pt x="308" y="620" on="1"/>
        <pt x="308" y="591" on="0"/>
        <pt x="282" y="548" on="0"/>
        <pt x="240" y="518" on="0"/>
        <pt x="188" y="503" on="0"/>
        <pt x="163" y="503" on="1"/>
        <pt x="143" y="503" on="0"/>
        <pt x="92" y="516" on="0"/>
        <pt x="47" y="541" on="0"/>
        <pt x="15" y="578" on="0"/>
        <pt x="15" y="601" on="1"/>
        <pt x="15" y="606" on="0"/>
        <pt x="16" y="608" on="1"/>
        <pt x="21" y="635" on="0"/>
        <pt x="51" y="678" on="0"/>
        <pt x="94" y="708" on="0"/>
        <pt x="145" y="724" on="0"/>
        <pt x="172" y="724" on="1"/>
        <pt x="195" y="724" on="0"/>
        <pt x="243" y="711" on="0"/>
        <pt x="283" y="685" on="0"/>
        <pt x="308" y="646" on="0"/>
      </contour>
      <contour>
        <pt x="240" y="606" on="1"/>
        <pt x="240" y="627" on="0"/>
        <pt x="235" y="653" on="0"/>
        <pt x="220" y="667" on="0"/>
        <pt x="195" y="672" on="0"/>
        <pt x="174" y="672" on="1"/>
        <pt x="169" y="672" on="0"/>
        <pt x="153" y="671" on="0"/>
        <pt x="136" y="669" on="0"/>
        <pt x="121" y="666" on="0"/>
        <pt x="117" y="664" on="1"/>
        <pt x="112" y="661" on="0"/>
        <pt x="106" y="645" on="0"/>
        <pt x="103" y="625" on="0"/>
        <pt x="101" y="607" on="0"/>
        <pt x="101" y="602" on="1"/>
        <pt x="101" y="572" on="0"/>
        <pt x="121" y="558" on="0"/>
        <pt x="150" y="558" on="1"/>
        <pt x="155" y="558" on="0"/>
        <pt x="179" y="559" on="0"/>
        <pt x="204" y="562" on="0"/>
        <pt x="226" y="567" on="0"/>
        <pt x="230" y="570" on="1"/>
        <pt x="238" y="576" on="0"/>
        <pt x="240" y="598" on="0"/>
      </contour>
    </TTGlyph>
    <TTGlyph name="dieresis" xMin="267" yMin="633" xMax="691" yMax="819">
      <contour>
        <pt x="691" y="724" on="1"/>
        <pt x="691" y="705" on="0"/>
        <pt x="676" y="672" on="0"/>
        <pt x="650" y="647" on="0"/>
        <pt x="617" y="633" on="0"/>
        <pt x="598" y="633" on="1"/>
        <pt x="581" y="633" on="0"/>
        <pt x="549" y="645" on="0"/>
        <pt x="523" y="666" on="0"/>
        <pt x="507" y="696" on="0"/>
        <pt x="507" y="713" on="1"/>
        <pt x="507" y="734" on="0"/>
        <pt x="522" y="771" on="0"/>
        <pt x="549" y="800" on="0"/>
        <pt x="586" y="816" on="0"/>
        <pt x="608" y="816" on="1"/>
        <pt x="626" y="816" on="0"/>
        <pt x="657" y="800" on="0"/>
        <pt x="679" y="774" on="0"/>
        <pt x="691" y="741" on="0"/>
      </contour>
      <contour>
        <pt x="450" y="726" on="1"/>
        <pt x="450" y="688" on="0"/>
        <pt x="395" y="636" on="0"/>
        <pt x="357" y="636" on="1"/>
        <pt x="341" y="636" on="0"/>
        <pt x="309" y="648" on="0"/>
        <pt x="283" y="669" on="0"/>
        <pt x="267" y="698" on="0"/>
        <pt x="267" y="715" on="1"/>
        <pt x="267" y="736" on="0"/>
        <pt x="283" y="774" on="0"/>
        <pt x="310" y="803" on="0"/>
        <pt x="347" y="819" on="0"/>
        <pt x="368" y="819" on="1"/>
        <pt x="386" y="819" on="0"/>
        <pt x="416" y="803" on="0"/>
        <pt x="438" y="777" on="0"/>
        <pt x="450" y="743" on="0"/>
      </contour>
    </TTGlyph>
    <TTGlyph name="divide" xMin="31" yMin="138" xMax="421" yMax="607">
      <contour>
        <pt x="310" y="535" on="1"/>
        <pt x="310" y="521" on="0"/>
        <pt x="295" y="493" on="0"/>
        <pt x="271" y="471" on="0"/>
        <pt x="242" y="458" on="0"/>
        <pt x="229" y="458" on="1"/>
        <pt x="216" y="458" on="0"/>
        <pt x="192" y="471" on="0"/>
        <pt x="173" y="492" on="0"/>
        <pt x="162" y="518" on="0"/>
        <pt x="162" y="531" on="1"/>
        <pt x="162" y="546" on="0"/>
        <pt x="178" y="573" on="0"/>
        <pt x="204" y="594" on="0"/>
        <pt x="234" y="607" on="0"/>
        <pt x="248" y="607" on="1"/>
        <pt x="261" y="607" on="0"/>
        <pt x="283" y="593" on="0"/>
        <pt x="300" y="572" on="0"/>
        <pt x="310" y="546" on="0"/>
      </contour>
      <contour>
        <pt x="421" y="341" on="1"/>
        <pt x="324" y="339" on="0"/>
        <pt x="134" y="332" on="0"/>
        <pt x="37" y="324" on="1"/>
        <pt x="31" y="412" on="1"/>
        <pt x="50" y="411" on="0"/>
        <pt x="89" y="411" on="0"/>
        <pt x="109" y="411" on="1"/>
        <pt x="185" y="411" on="0"/>
        <pt x="335" y="422" on="0"/>
        <pt x="412" y="427" on="1"/>
      </contour>
      <contour>
        <pt x="307" y="215" on="1"/>
        <pt x="307" y="201" on="0"/>
        <pt x="292" y="173" on="0"/>
        <pt x="269" y="151" on="0"/>
        <pt x="240" y="138" on="0"/>
        <pt x="226" y="138" on="1"/>
        <pt x="212" y="138" on="0"/>
        <pt x="188" y="151" on="0"/>
        <pt x="170" y="172" on="0"/>
        <pt x="159" y="198" on="0"/>
        <pt x="159" y="211" on="1"/>
        <pt x="159" y="226" on="0"/>
        <pt x="175" y="254" on="0"/>
        <pt x="201" y="275" on="0"/>
        <pt x="232" y="288" on="0"/>
        <pt x="246" y="288" on="1"/>
        <pt x="259" y="288" on="0"/>
        <pt x="281" y="274" on="0"/>
        <pt x="297" y="252" on="0"/>
        <pt x="307" y="227" on="0"/>
      </contour>
    </TTGlyph>
    <TTGlyph name="dollar" xMin="41" yMin="-53" xMax="707" yMax="772">
      <contour>
        <pt x="707" y="247" on="1"/>
        <pt x="707" y="225" on="0"/>
        <pt x="703" y="208" on="1"/>
        <pt x="696" y="172" on="0"/>
        <pt x="652" y="120" on="0"/>
        <pt x="594" y="84" on="0"/>
        <pt x="530" y="62" on="0"/>
        <pt x="476" y="48" on="0"/>
        <pt x="439" y="40" on="0"/>
        <pt x="437" y="36" on="1"/>
        <pt x="438" y="35" on="0"/>
        <pt x="438" y="36" on="0"/>
        <pt x="438" y="23" on="0"/>
        <pt x="436" y="-14" on="0"/>
        <pt x="435" y="-53" on="1"/>
        <pt x="297" y="-49" on="1"/>
        <pt x="300" y="31" on="1"/>
        <pt x="241" y="39" on="0"/>
        <pt x="126" y="56" on="0"/>
        <pt x="69" y="73" on="1"/>
        <pt x="67" y="111" on="0"/>
        <pt x="57" y="186" on="0"/>
        <pt x="55" y="224" on="1"/>
        <pt x="90" y="216" on="0"/>
        <pt x="164" y="200" on="0"/>
        <pt x="240" y="185" on="0"/>
        <pt x="316" y="176" on="0"/>
        <pt x="352" y="176" on="1"/>
        <pt x="362" y="176" on="0"/>
        <pt x="408" y="178" on="0"/>
        <pt x="458" y="183" on="0"/>
        <pt x="502" y="191" on="0"/>
        <pt x="510" y="196" on="1"/>
        <pt x="532" y="210" on="0"/>
        <pt x="532" y="241" on="1"/>
        <pt x="532" y="250" on="0"/>
        <pt x="527" y="272" on="0"/>
        <pt x="519" y="280" on="1"/>
        <pt x="515" y="283" on="0"/>
        <pt x="458" y="290" on="0"/>
        <pt x="376" y="299" on="0"/>
        <pt x="280" y="308" on="0"/>
        <pt x="193" y="319" on="0"/>
        <pt x="127" y="332" on="0"/>
        <pt x="117" y="340" on="1"/>
        <pt x="102" y="351" on="0"/>
        <pt x="75" y="387" on="0"/>
        <pt x="54" y="430" on="0"/>
        <pt x="41" y="474" on="0"/>
        <pt x="41" y="492" on="1"/>
        <pt x="41" y="533" on="0"/>
        <pt x="95" y="595" on="0"/>
        <pt x="172" y="637" on="0"/>
        <pt x="258" y="660" on="0"/>
        <pt x="291" y="663" on="1"/>
        <pt x="291" y="772" on="1"/>
        <pt x="435" y="756" on="1"/>
        <pt x="432" y="663" on="1"/>
        <pt x="445" y="664" on="0"/>
        <pt x="470" y="664" on="0"/>
        <pt x="482" y="664" on="1"/>
        <pt x="527" y="664" on="0"/>
        <pt x="613" y="654" on="0"/>
        <pt x="658" y="643" on="1"/>
        <pt x="652" y="610" on="0"/>
        <pt x="638" y="544" on="0"/>
        <pt x="632" y="511" on="1"/>
        <pt x="586" y="514" on="0"/>
        <pt x="495" y="518" on="0"/>
        <pt x="450" y="518" on="1"/>
        <pt x="439" y="518" on="0"/>
        <pt x="388" y="517" on="0"/>
        <pt x="331" y="514" on="0"/>
        <pt x="281" y="509" on="0"/>
        <pt x="271" y="505" on="1"/>
        <pt x="247" y="494" on="0"/>
        <pt x="247" y="466" on="1"/>
        <pt x="247" y="446" on="0"/>
        <pt x="261" y="430" on="1"/>
        <pt x="266" y="425" on="0"/>
        <pt x="324" y="419" on="0"/>
        <pt x="406" y="413" on="0"/>
        <pt x="500" y="406" on="0"/>
        <pt x="585" y="397" on="0"/>
        <pt x="648" y="383" on="0"/>
        <pt x="658" y="373" on="1"/>
        <pt x="682" y="348" on="0"/>
        <pt x="707" y="281" on="0"/>
      </contour>
    </TTGlyph>
    <TTGlyph name="dotaccent" xMin="387" yMin="636" xMax="570" yMax="819">
      <contour>
        <pt x="570" y="726" on="1"/>
        <pt x="570" y="688" on="0"/>
        <pt x="515" y="636" on="0"/>
        <pt x="477" y="636" on="1"/>
        <pt x="461" y="636" on="0"/>
        <pt x="429" y="648" on="0"/>
        <pt x="403" y="669" on="0"/>
        <pt x="387" y="698" on="0"/>
        <pt x="387" y="715" on="1"/>
        <pt x="387" y="736" on="0"/>
        <pt x="403" y="774" on="0"/>
        <pt x="430" y="802" on="0"/>
        <pt x="467" y="819" on="0"/>
        <pt x="488" y="819" on="1"/>
        <pt x="506" y="819" on="0"/>
        <pt x="537" y="803" on="0"/>
        <pt x="558" y="777" on="0"/>
        <pt x="570" y="743" on="0"/>
      </contour>
    </TTGlyph>
    <TTGlyph name="dotlessi" xMin="52" yMin="33" xMax="262" yMax="499">
      <contour>
        <pt x="262" y="499" on="1"/>
        <pt x="257" y="446" on="0"/>
        <pt x="251" y="342" on="0"/>
        <pt x="248" y="290" on="1"/>
        <pt x="244" y="229" on="0"/>
        <pt x="225" y="109" on="0"/>
        <pt x="213" y="49" on="1"/>
        <pt x="60" y="33" on="1"/>
        <pt x="60" y="65" on="0"/>
        <pt x="61" y="127" on="0"/>
        <pt x="61" y="159" on="1"/>
        <pt x="61" y="241" on="0"/>
        <pt x="55" y="405" on="0"/>
        <pt x="52" y="487" on="1"/>
        <pt x="105" y="489" on="0"/>
        <pt x="208" y="497" on="0"/>
      </contour>
    </TTGlyph>
    <TTGlyph name="e" xMin="25" yMin="95" xMax="731" yMax="667">
      <contour>
        <pt x="731" y="371" on="1"/>
        <pt x="600" y="364" on="0"/>
        <pt x="340" y="355" on="0"/>
        <pt x="209" y="350" on="1"/>
        <pt x="208" y="346" on="0"/>
        <pt x="208" y="338" on="0"/>
        <pt x="208" y="334" on="1"/>
        <pt x="208" y="300" on="0"/>
        <pt x="239" y="264" on="0"/>
        <pt x="285" y="249" on="0"/>
        <pt x="341" y="247" on="0"/>
        <pt x="365" y="247" on="1"/>
        <pt x="432" y="247" on="0"/>
        <pt x="566" y="256" on="0"/>
        <pt x="634" y="261" on="1"/>
        <pt x="642" y="102" on="1"/>
        <pt x="576" y="99" on="0"/>
        <pt x="445" y="95" on="0"/>
        <pt x="379" y="95" on="1"/>
        <pt x="365" y="95" on="0"/>
        <pt x="290" y="96" on="0"/>
        <pt x="205" y="101" on="0"/>
        <pt x="131" y="109" on="0"/>
        <pt x="119" y="116" on="1"/>
        <pt x="88" y="134" on="0"/>
        <pt x="53" y="190" on="0"/>
        <pt x="34" y="256" on="0"/>
        <pt x="27" y="325" on="0"/>
        <pt x="26" y="357" on="1"/>
        <pt x="25" y="362" on="0"/>
        <pt x="26" y="373" on="0"/>
        <pt x="26" y="378" on="1"/>
        <pt x="26" y="431" on="0"/>
        <pt x="49" y="522" on="0"/>
        <pt x="80" y="565" on="1"/>
        <pt x="101" y="595" on="0"/>
        <pt x="183" y="635" on="0"/>
        <pt x="279" y="658" on="0"/>
        <pt x="375" y="667" on="0"/>
        <pt x="410" y="667" on="1"/>
        <pt x="441" y="667" on="0"/>
        <pt x="531" y="656" on="0"/>
        <pt x="620" y="630" on="0"/>
        <pt x="692" y="589" on="0"/>
        <pt x="705" y="559" on="1"/>
        <pt x="707" y="553" on="0"/>
        <pt x="712" y="524" on="0"/>
        <pt x="718" y="487" on="0"/>
        <pt x="723" y="445" on="0"/>
        <pt x="727" y="407" on="0"/>
        <pt x="730" y="377" on="0"/>
      </contour>
      <contour>
        <pt x="595" y="444" on="1"/>
        <pt x="589" y="488" on="0"/>
        <pt x="556" y="539" on="0"/>
        <pt x="507" y="564" on="0"/>
        <pt x="444" y="571" on="0"/>
        <pt x="408" y="571" on="1"/>
        <pt x="396" y="571" on="0"/>
        <pt x="360" y="570" on="0"/>
        <pt x="324" y="565" on="0"/>
        <pt x="292" y="555" on="0"/>
        <pt x="283" y="546" on="1"/>
        <pt x="276" y="540" on="0"/>
        <pt x="267" y="519" on="0"/>
        <pt x="261" y="495" on="0"/>
        <pt x="258" y="472" on="0"/>
        <pt x="258" y="464" on="1"/>
        <pt x="258" y="448" on="0"/>
        <pt x="261" y="433" on="1"/>
      </contour>
    </TTGlyph>
    <TTGlyph name="eacute" xMin="25" yMin="95" xMax="731" yMax="955">
      <component glyphName="e" x="0" y="0" flags="0x204"/>
      <component glyphName="acute" x="-71" y="92" flags="0x4"/>
    </TTGlyph>
    <TTGlyph name="ecircumflex" xMin="25" yMin="95" xMax="731" yMax="962">
      <component glyphName="e" x="0" y="0" flags="0x204"/>
      <component glyphName="circumflex" x="-81" y="113" flags="0x4"/>
    </TTGlyph>
    <TTGlyph name="edieresis" xMin="25" yMin="95" xMax="731" yMax="921">
      <component glyphName="e" x="0" y="0" flags="0x204"/>
      <component glyphName="dieresis" x="-81" y="102" flags="0x4"/>
    </TTGlyph>
    <TTGlyph name="egrave" xMin="25" yMin="95" xMax="731" yMax="955">
      <component glyphName="e" x="0" y="0" flags="0x204"/>
      <component glyphName="grave" x="-91" y="92" flags="0x4"/>
    </TTGlyph>
    <TTGlyph name="eight" xMin="67" yMin="-33" xMax="658" yMax="759">
      <contour>
        <pt x="658" y="116" on="1"/>
        <pt x="658" y="100" on="0"/>
        <pt x="655" y="56" on="0"/>
        <pt x="647" y="42" on="1"/>
        <pt x="642" y="34" on="0"/>
        <pt x="625" y="12" on="0"/>
        <pt x="603" y="-9" on="0"/>
        <pt x="581" y="-25" on="0"/>
        <pt x="572" y="-28" on="1"/>
        <pt x="568" y="-29" on="0"/>
        <pt x="543" y="-31" on="0"/>
        <pt x="506" y="-32" on="0"/>
        <pt x="461" y="-32" on="0"/>
        <pt x="439" y="-32" on="1"/>
        <pt x="321" y="-32" on="1"/>
        <pt x="291" y="-33" on="0"/>
        <pt x="262" y="-33" on="1"/>
        <pt x="237" y="-33" on="0"/>
        <pt x="181" y="-33" on="0"/>
        <pt x="160" y="-31" on="1"/>
        <pt x="143" y="-30" on="0"/>
        <pt x="114" y="8" on="0"/>
        <pt x="92" y="58" on="0"/>
        <pt x="77" y="108" on="0"/>
        <pt x="74" y="122" on="1"/>
        <pt x="69" y="140" on="0"/>
        <pt x="67" y="172" on="0"/>
        <pt x="67" y="190" on="1"/>
        <pt x="67" y="205" on="0"/>
        <pt x="69" y="245" on="0"/>
        <pt x="76" y="285" on="0"/>
        <pt x="90" y="321" on="0"/>
        <pt x="102" y="332" on="1"/>
        <pt x="107" y="336" on="0"/>
        <pt x="128" y="345" on="0"/>
        <pt x="152" y="354" on="0"/>
        <pt x="173" y="362" on="0"/>
        <pt x="179" y="364" on="1"/>
        <pt x="171" y="366" on="0"/>
        <pt x="147" y="375" on="0"/>
        <pt x="123" y="387" on="0"/>
        <pt x="103" y="403" on="0"/>
        <pt x="100" y="412" on="1"/>
        <pt x="95" y="426" on="0"/>
        <pt x="86" y="464" on="0"/>
        <pt x="78" y="505" on="0"/>
        <pt x="74" y="544" on="0"/>
        <pt x="74" y="559" on="1"/>
        <pt x="74" y="569" on="0"/>
        <pt x="74" y="609" on="0"/>
        <pt x="77" y="651" on="0"/>
        <pt x="82" y="687" on="0"/>
        <pt x="88" y="695" on="1"/>
        <pt x="103" y="715" on="0"/>
        <pt x="138" y="739" on="0"/>
        <pt x="177" y="752" on="0"/>
        <pt x="220" y="756" on="0"/>
        <pt x="243" y="757" on="1"/>
        <pt x="280" y="758" on="0"/>
        <pt x="352" y="759" on="0"/>
        <pt x="389" y="759" on="1"/>
        <pt x="400" y="759" on="0"/>
        <pt x="439" y="759" on="0"/>
        <pt x="481" y="759" on="0"/>
        <pt x="519" y="757" on="0"/>
        <pt x="528" y="755" on="1"/>
        <pt x="545" y="751" on="0"/>
        <pt x="582" y="713" on="0"/>
        <pt x="615" y="665" on="0"/>
        <pt x="638" y="616" on="0"/>
        <pt x="640" y="600" on="1"/>
        <pt x="644" y="576" on="0"/>
        <pt x="644" y="527" on="0"/>
        <pt x="644" y="503" on="1"/>
        <pt x="644" y="497" on="0"/>
        <pt x="644" y="475" on="0"/>
        <pt x="643" y="452" on="0"/>
        <pt x="641" y="431" on="0"/>
        <pt x="639" y="426" on="1"/>
        <pt x="637" y="422" on="0"/>
        <pt x="612" y="402" on="0"/>
        <pt x="581" y="380" on="0"/>
        <pt x="554" y="361" on="0"/>
        <pt x="551" y="359" on="1"/>
        <pt x="561" y="354" on="0"/>
        <pt x="589" y="338" on="0"/>
        <pt x="617" y="317" on="0"/>
        <pt x="639" y="293" on="0"/>
        <pt x="642" y="281" on="1"/>
        <pt x="646" y="264" on="0"/>
        <pt x="652" y="222" on="0"/>
        <pt x="656" y="177" on="0"/>
        <pt x="658" y="133" on="0"/>
      </contour>
      <contour>
        <pt x="464" y="512" on="1"/>
        <pt x="464" y="521" on="0"/>
        <pt x="462" y="567" on="0"/>
        <pt x="456" y="616" on="0"/>
        <pt x="447" y="658" on="0"/>
        <pt x="440" y="664" on="1"/>
        <pt x="437" y="667" on="0"/>
        <pt x="421" y="670" on="0"/>
        <pt x="404" y="671" on="0"/>
        <pt x="387" y="672" on="0"/>
        <pt x="383" y="672" on="1"/>
        <pt x="376" y="672" on="0"/>
        <pt x="331" y="670" on="0"/>
        <pt x="281" y="666" on="0"/>
        <pt x="239" y="660" on="0"/>
        <pt x="234" y="656" on="1"/>
        <pt x="228" y="651" on="0"/>
        <pt x="219" y="626" on="0"/>
        <pt x="212" y="596" on="0"/>
        <pt x="208" y="567" on="0"/>
        <pt x="208" y="560" on="1"/>
        <pt x="208" y="552" on="0"/>
        <pt x="210" y="514" on="0"/>
        <pt x="214" y="474" on="0"/>
        <pt x="221" y="439" on="0"/>
        <pt x="226" y="434" on="1"/>
        <pt x="231" y="429" on="0"/>
        <pt x="250" y="424" on="0"/>
        <pt x="272" y="421" on="0"/>
        <pt x="292" y="421" on="0"/>
        <pt x="299" y="421" on="1"/>
        <pt x="313" y="421" on="0"/>
        <pt x="358" y="420" on="0"/>
        <pt x="404" y="423" on="0"/>
        <pt x="445" y="433" on="0"/>
        <pt x="454" y="443" on="1"/>
        <pt x="457" y="447" on="0"/>
        <pt x="461" y="466" on="0"/>
        <pt x="463" y="487" on="0"/>
        <pt x="464" y="507" on="0"/>
      </contour>
      <contour>
        <pt x="475" y="217" on="1"/>
        <pt x="475" y="227" on="0"/>
        <pt x="473" y="252" on="0"/>
        <pt x="467" y="276" on="0"/>
        <pt x="456" y="297" on="0"/>
        <pt x="447" y="303" on="1"/>
        <pt x="440" y="308" on="0"/>
        <pt x="405" y="309" on="0"/>
        <pt x="395" y="309" on="1"/>
        <pt x="385" y="309" on="0"/>
        <pt x="337" y="307" on="0"/>
        <pt x="284" y="302" on="0"/>
        <pt x="238" y="294" on="0"/>
        <pt x="231" y="288" on="1"/>
        <pt x="225" y="283" on="0"/>
        <pt x="216" y="260" on="0"/>
        <pt x="210" y="233" on="0"/>
        <pt x="206" y="207" on="0"/>
        <pt x="206" y="200" on="1"/>
        <pt x="206" y="191" on="0"/>
        <pt x="212" y="154" on="0"/>
        <pt x="222" y="115" on="0"/>
        <pt x="236" y="84" on="0"/>
        <pt x="245" y="80" on="1"/>
        <pt x="247" y="79" on="0"/>
        <pt x="257" y="78" on="0"/>
        <pt x="269" y="78" on="0"/>
        <pt x="279" y="78" on="0"/>
        <pt x="282" y="78" on="1"/>
        <pt x="289" y="78" on="0"/>
        <pt x="339" y="79" on="0"/>
        <pt x="393" y="81" on="0"/>
        <pt x="439" y="85" on="0"/>
        <pt x="443" y="87" on="1"/>
        <pt x="451" y="91" on="0"/>
        <pt x="463" y="127" on="0"/>
        <pt x="471" y="169" on="0"/>
        <pt x="475" y="209" on="0"/>
      </contour>
    </TTGlyph>
    <TTGlyph name="ellipsis" xMin="41" yMin="-30" xMax="762" yMax="127">
      <component glyphName="period" x="0" y="0" flags="0x4"/>
      <component glyphName="period" x="276" y="0" flags="0x4"/>
      <component glyphName="period" x="553" y="0" flags="0x4"/>
    </TTGlyph>
    <TTGlyph name="emdash" xMin="31" yMin="318" xMax="610" yMax="402">
      <contour>
        <pt x="610" y="318" on="1"/>
        <pt x="31" y="318" on="1"/>
        <pt x="35" y="399" on="1"/>
        <pt x="126" y="402" on="0"/>
        <pt x="221" y="402" on="1"/>
        <pt x="602" y="402" on="1"/>
      </contour>
    </TTGlyph>
    <TTGlyph name="endash" xMin="31" yMin="318" xMax="313" yMax="402">
      <contour>
        <pt x="313" y="318" on="1"/>
        <pt x="31" y="318" on="1"/>
        <pt x="35" y="399" on="1"/>
        <pt x="126" y="402" on="0"/>
        <pt x="221" y="402" on="1"/>
        <pt x="305" y="402" on="1"/>
      </contour>
    </TTGlyph>
    <TTGlyph name="equal" xMin="31" yMin="230" xMax="423" yMax="472">
      <contour>
        <pt x="416" y="388" on="1"/>
        <pt x="31" y="388" on="1"/>
        <pt x="35" y="469" on="1"/>
        <pt x="126" y="472" on="0"/>
        <pt x="221" y="472" on="1"/>
        <pt x="408" y="472" on="1"/>
      </contour>
      <contour>
        <pt x="423" y="317" on="1"/>
        <pt x="420" y="237" on="1"/>
        <pt x="326" y="232" on="0"/>
        <pt x="140" y="231" on="0"/>
        <pt x="46" y="230" on="1"/>
        <pt x="38" y="314" on="1"/>
      </contour>
    </TTGlyph>
    <TTGlyph name="eth" xMin="41" yMin="7" xMax="785" yMax="737">
      <contour>
        <pt x="572" y="255" on="1"/>
        <pt x="572" y="267" on="0"/>
        <pt x="570" y="299" on="0"/>
        <pt x="566" y="333" on="0"/>
        <pt x="558" y="363" on="0"/>
        <pt x="552" y="374" on="1"/>
        <pt x="544" y="387" on="0"/>
        <pt x="498" y="401" on="0"/>
        <pt x="443" y="408" on="0"/>
        <pt x="390" y="410" on="0"/>
        <pt x="377" y="410" on="1"/>
        <pt x="370" y="410" on="0"/>
        <pt x="334" y="409" on="0"/>
        <pt x="295" y="406" on="0"/>
        <pt x="261" y="401" on="0"/>
        <pt x="256" y="398" on="1"/>
        <pt x="247" y="393" on="0"/>
        <pt x="237" y="368" on="0"/>
        <pt x="232" y="338" on="0"/>
        <pt x="231" y="309" on="0"/>
        <pt x="231" y="299" on="1"/>
        <pt x="231" y="290" on="0"/>
        <pt x="234" y="243" on="0"/>
        <pt x="239" y="190" on="0"/>
        <pt x="247" y="146" on="0"/>
        <pt x="253" y="140" on="1"/>
        <pt x="260" y="133" on="0"/>
        <pt x="299" y="123" on="0"/>
        <pt x="344" y="116" on="0"/>
        <pt x="386" y="113" on="0"/>
        <pt x="395" y="113" on="1"/>
        <pt x="411" y="113" on="0"/>
        <pt x="455" y="115" on="0"/>
        <pt x="500" y="123" on="0"/>
        <pt x="540" y="136" on="0"/>
        <pt x="552" y="148" on="1"/>
        <pt x="559" y="155" on="0"/>
        <pt x="567" y="183" on="0"/>
        <pt x="571" y="215" on="0"/>
        <pt x="572" y="246" on="0"/>
      </contour>
      <contour>
        <pt x="754" y="622" on="1"/>
        <pt x="693" y="614" on="1"/>
        <pt x="715" y="581" on="0"/>
        <pt x="753" y="495" on="0"/>
        <pt x="766" y="440" on="1"/>
        <pt x="784" y="363" on="0"/>
        <pt x="784" y="282" on="1"/>
        <pt x="785" y="273" on="0"/>
        <pt x="784" y="255" on="0"/>
        <pt x="783" y="246" on="1"/>
        <pt x="782" y="232" on="0"/>
        <pt x="774" y="168" on="0"/>
        <pt x="760" y="99" on="0"/>
        <pt x="740" y="41" on="0"/>
        <pt x="728" y="33" on="1"/>
        <pt x="722" y="29" on="0"/>
        <pt x="653" y="22" on="0"/>
        <pt x="554" y="16" on="0"/>
        <pt x="438" y="12" on="0"/>
        <pt x="333" y="9" on="0"/>
        <pt x="254" y="7" on="0"/>
        <pt x="241" y="7" on="1"/>
        <pt x="235" y="7" on="0"/>
        <pt x="206" y="7" on="0"/>
        <pt x="174" y="8" on="0"/>
        <pt x="146" y="10" on="0"/>
        <pt x="140" y="12" on="1"/>
        <pt x="126" y="17" on="0"/>
        <pt x="98" y="40" on="0"/>
        <pt x="74" y="69" on="0"/>
        <pt x="55" y="101" on="0"/>
        <pt x="51" y="115" on="1"/>
        <pt x="48" y="125" on="0"/>
        <pt x="44" y="170" on="0"/>
        <pt x="42" y="220" on="0"/>
        <pt x="41" y="266" on="0"/>
        <pt x="41" y="278" on="1"/>
        <pt x="41" y="297" on="0"/>
        <pt x="43" y="364" on="0"/>
        <pt x="53" y="434" on="0"/>
        <pt x="72" y="494" on="0"/>
        <pt x="90" y="506" on="1"/>
        <pt x="98" y="511" on="0"/>
        <pt x="142" y="519" on="0"/>
        <pt x="202" y="525" on="0"/>
        <pt x="270" y="528" on="0"/>
        <pt x="335" y="529" on="0"/>
        <pt x="391" y="529" on="0"/>
        <pt x="408" y="528" on="1"/>
        <pt x="419" y="528" on="0"/>
        <pt x="458" y="527" on="0"/>
        <pt x="481" y="526" on="1"/>
        <pt x="470" y="540" on="0"/>
        <pt x="447" y="568" on="0"/>
        <pt x="433" y="583" on="1"/>
        <pt x="303" y="567" on="1"/>
        <pt x="297" y="647" on="1"/>
        <pt x="357" y="656" on="1"/>
        <pt x="339" y="674" on="0"/>
        <pt x="315" y="690" on="1"/>
        <pt x="570" y="737" on="1"/>
        <pt x="577" y="732" on="0"/>
        <pt x="587" y="726" on="1"/>
        <pt x="602" y="717" on="0"/>
        <pt x="629" y="691" on="1"/>
        <pt x="736" y="705" on="1"/>
      </contour>
    </TTGlyph>
    <TTGlyph name="exclam" xMin="61" yMin="-11" xMax="294" yMax="769">
      <contour>
        <pt x="294" y="769" on="1"/>
        <pt x="293" y="743" on="0"/>
        <pt x="290" y="681" on="0"/>
        <pt x="286" y="617" on="0"/>
        <pt x="279" y="556" on="0"/>
        <pt x="274" y="530" on="1"/>
        <pt x="259" y="455" on="0"/>
        <pt x="228" y="309" on="0"/>
        <pt x="213" y="234" on="1"/>
        <pt x="103" y="224" on="1"/>
        <pt x="78" y="476" on="1"/>
        <pt x="71" y="544" on="0"/>
        <pt x="65" y="681" on="0"/>
        <pt x="61" y="750" on="1"/>
      </contour>
      <contour>
        <pt x="276" y="80" on="1"/>
        <pt x="276" y="63" on="0"/>
        <pt x="255" y="30" on="0"/>
        <pt x="223" y="4" on="0"/>
        <pt x="185" y="-11" on="0"/>
        <pt x="169" y="-11" on="1"/>
        <pt x="154" y="-11" on="0"/>
        <pt x="121" y="0" on="0"/>
        <pt x="94" y="19" on="0"/>
        <pt x="77" y="47" on="0"/>
        <pt x="77" y="65" on="1"/>
        <pt x="77" y="84" on="0"/>
        <pt x="100" y="115" on="0"/>
        <pt x="133" y="136" on="0"/>
        <pt x="172" y="147" on="0"/>
        <pt x="189" y="147" on="1"/>
        <pt x="217" y="147" on="0"/>
        <pt x="262" y="121" on="0"/>
        <pt x="273" y="95" on="1"/>
        <pt x="275" y="91" on="0"/>
        <pt x="276" y="84" on="0"/>
      </contour>
    </TTGlyph>
    <TTGlyph name="exclamdown" xMin="31" yMin="-197" xMax="263" yMax="584">
      <contour>
        <pt x="31" y="-197" on="1"/>
        <pt x="32" y="-171" on="0"/>
        <pt x="34" y="-109" on="0"/>
        <pt x="38" y="-45" on="0"/>
        <pt x="45" y="16" on="0"/>
        <pt x="50" y="42" on="1"/>
        <pt x="65" y="117" on="0"/>
        <pt x="96" y="264" on="0"/>
        <pt x="112" y="338" on="1"/>
        <pt x="221" y="348" on="1"/>
        <pt x="247" y="96" on="1"/>
        <pt x="254" y="28" on="0"/>
        <pt x="260" y="-108" on="0"/>
        <pt x="263" y="-177" on="1"/>
      </contour>
      <contour>
        <pt x="48" y="493" on="1"/>
        <pt x="48" y="510" on="0"/>
        <pt x="70" y="543" on="0"/>
        <pt x="102" y="568" on="0"/>
        <pt x="140" y="584" on="0"/>
        <pt x="156" y="584" on="1"/>
        <pt x="171" y="584" on="0"/>
        <pt x="204" y="573" on="0"/>
        <pt x="231" y="553" on="0"/>
        <pt x="248" y="525" on="0"/>
        <pt x="248" y="508" on="1"/>
        <pt x="248" y="488" on="0"/>
        <pt x="225" y="458" on="0"/>
        <pt x="191" y="436" on="0"/>
        <pt x="151" y="425" on="0"/>
        <pt x="135" y="425" on="1"/>
        <pt x="107" y="425" on="0"/>
        <pt x="62" y="451" on="0"/>
        <pt x="51" y="477" on="1"/>
        <pt x="48" y="484" on="0"/>
      </contour>
    </TTGlyph>
    <TTGlyph name="f" xMin="20" yMin="-23" xMax="470" yMax="765">
      <contour>
        <pt x="470" y="709" on="1"/>
        <pt x="470" y="680" on="0"/>
        <pt x="465" y="625" on="0"/>
        <pt x="461" y="596" on="1"/>
        <pt x="456" y="597" on="0"/>
        <pt x="445" y="597" on="1"/>
        <pt x="431" y="597" on="0"/>
        <pt x="396" y="593" on="0"/>
        <pt x="361" y="584" on="0"/>
        <pt x="329" y="569" on="0"/>
        <pt x="319" y="558" on="1"/>
        <pt x="308" y="545" on="0"/>
        <pt x="287" y="507" on="0"/>
        <pt x="287" y="489" on="1"/>
        <pt x="287" y="481" on="0"/>
        <pt x="288" y="477" on="1"/>
        <pt x="400" y="472" on="1"/>
        <pt x="402" y="456" on="0"/>
        <pt x="406" y="422" on="0"/>
        <pt x="406" y="406" on="1"/>
        <pt x="406" y="390" on="0"/>
        <pt x="404" y="360" on="0"/>
        <pt x="403" y="345" on="1"/>
        <pt x="306" y="325" on="1"/>
        <pt x="314" y="239" on="0"/>
        <pt x="332" y="70" on="0"/>
        <pt x="337" y="-16" on="1"/>
        <pt x="325" y="-16" on="0"/>
        <pt x="301" y="-15" on="0"/>
        <pt x="290" y="-15" on="1"/>
        <pt x="238" y="-15" on="0"/>
        <pt x="137" y="-22" on="0"/>
        <pt x="86" y="-23" on="1"/>
        <pt x="95" y="308" on="1"/>
        <pt x="20" y="304" on="1"/>
        <pt x="20" y="331" on="1"/>
        <pt x="20" y="366" on="0"/>
        <pt x="28" y="434" on="0"/>
        <pt x="30" y="469" on="1"/>
        <pt x="62" y="470" on="0"/>
        <pt x="92" y="473" on="0"/>
        <pt x="97" y="475" on="1"/>
        <pt x="103" y="477" on="0"/>
        <pt x="101" y="480" on="1"/>
        <pt x="103" y="514" on="0"/>
        <pt x="107" y="545" on="1"/>
        <pt x="110" y="571" on="0"/>
        <pt x="120" y="625" on="0"/>
        <pt x="128" y="640" on="1"/>
        <pt x="153" y="688" on="0"/>
        <pt x="220" y="739" on="0"/>
        <pt x="299" y="762" on="0"/>
        <pt x="388" y="765" on="0"/>
        <pt x="436" y="765" on="1"/>
        <pt x="444" y="765" on="0"/>
        <pt x="459" y="765" on="0"/>
        <pt x="467" y="764" on="1"/>
        <pt x="470" y="735" on="0"/>
      </contour>
    </TTGlyph>
    <TTGlyph name="fi" xMin="20" yMin="-23" xMax="698" yMax="765">
      <contour>
        <pt x="698" y="485" on="1"/>
        <pt x="694" y="436" on="0"/>
        <pt x="687" y="338" on="0"/>
        <pt x="685" y="290" on="1"/>
        <pt x="682" y="229" on="0"/>
        <pt x="663" y="109" on="0"/>
        <pt x="650" y="49" on="1"/>
        <pt x="497" y="33" on="1"/>
        <pt x="498" y="110" on="0"/>
        <pt x="498" y="263" on="0"/>
        <pt x="495" y="341" on="1"/>
        <pt x="306" y="325" on="1"/>
        <pt x="314" y="239" on="0"/>
        <pt x="332" y="70" on="0"/>
        <pt x="337" y="-16" on="1"/>
        <pt x="274" y="-14" on="0"/>
        <pt x="149" y="-22" on="0"/>
        <pt x="86" y="-23" on="1"/>
        <pt x="95" y="308" on="1"/>
        <pt x="20" y="304" on="1"/>
        <pt x="20" y="331" on="1"/>
        <pt x="20" y="366" on="0"/>
        <pt x="28" y="434" on="0"/>
        <pt x="30" y="469" on="1"/>
        <pt x="101" y="471" on="1"/>
        <pt x="101" y="488" on="0"/>
        <pt x="103" y="533" on="0"/>
        <pt x="109" y="581" on="0"/>
        <pt x="120" y="625" on="0"/>
        <pt x="128" y="640" on="1"/>
        <pt x="147" y="676" on="0"/>
        <pt x="200" y="730" on="0"/>
        <pt x="240" y="744" on="1"/>
        <pt x="257" y="751" on="0"/>
        <pt x="309" y="759" on="0"/>
        <pt x="365" y="763" on="0"/>
        <pt x="418" y="765" on="0"/>
        <pt x="436" y="765" on="1"/>
        <pt x="444" y="765" on="0"/>
        <pt x="459" y="765" on="0"/>
        <pt x="467" y="764" on="1"/>
        <pt x="470" y="735" on="0"/>
        <pt x="470" y="709" on="1"/>
        <pt x="470" y="680" on="0"/>
        <pt x="465" y="625" on="0"/>
        <pt x="461" y="596" on="1"/>
        <pt x="446" y="597" on="0"/>
        <pt x="406" y="595" on="0"/>
        <pt x="366" y="586" on="0"/>
        <pt x="331" y="570" on="0"/>
        <pt x="319" y="558" on="1"/>
        <pt x="308" y="545" on="0"/>
        <pt x="287" y="507" on="0"/>
        <pt x="287" y="489" on="1"/>
        <pt x="287" y="481" on="0"/>
        <pt x="288" y="477" on="1"/>
        <pt x="488" y="473" on="1"/>
        <pt x="542" y="475" on="0"/>
        <pt x="646" y="483" on="0"/>
      </contour>
    </TTGlyph>
    <TTGlyph name="five" xMin="61" yMin="-39" xMax="674" yMax="749">
      <contour>
        <pt x="674" y="611" on="1"/>
        <pt x="574" y="602" on="0"/>
        <pt x="375" y="584" on="0"/>
        <pt x="274" y="570" on="1"/>
        <pt x="278" y="446" on="1"/>
        <pt x="300" y="446" on="0"/>
        <pt x="379" y="441" on="0"/>
        <pt x="464" y="431" on="0"/>
        <pt x="540" y="414" on="0"/>
        <pt x="561" y="402" on="1"/>
        <pt x="596" y="381" on="0"/>
        <pt x="633" y="331" on="0"/>
        <pt x="648" y="273" on="0"/>
        <pt x="649" y="207" on="0"/>
        <pt x="649" y="170" on="1"/>
        <pt x="649" y="164" on="0"/>
        <pt x="649" y="143" on="0"/>
        <pt x="647" y="121" on="0"/>
        <pt x="645" y="101" on="0"/>
        <pt x="642" y="95" on="1"/>
        <pt x="634" y="78" on="0"/>
        <pt x="594" y="39" on="0"/>
        <pt x="546" y="5" on="0"/>
        <pt x="497" y="-21" on="0"/>
        <pt x="478" y="-25" on="1"/>
        <pt x="457" y="-30" on="0"/>
        <pt x="412" y="-32" on="0"/>
        <pt x="390" y="-34" on="1"/>
        <pt x="352" y="-36" on="0"/>
        <pt x="277" y="-39" on="0"/>
        <pt x="239" y="-39" on="1"/>
        <pt x="232" y="-39" on="0"/>
        <pt x="210" y="-39" on="0"/>
        <pt x="186" y="-38" on="0"/>
        <pt x="165" y="-36" on="0"/>
        <pt x="159" y="-34" on="1"/>
        <pt x="127" y="-23" on="0"/>
        <pt x="87" y="26" on="0"/>
        <pt x="76" y="58" on="1"/>
        <pt x="73" y="67" on="0"/>
        <pt x="68" y="109" on="0"/>
        <pt x="64" y="157" on="0"/>
        <pt x="61" y="201" on="0"/>
        <pt x="61" y="210" on="1"/>
        <pt x="292" y="216" on="1"/>
        <pt x="287" y="188" on="0"/>
        <pt x="287" y="164" on="1"/>
        <pt x="287" y="147" on="0"/>
        <pt x="301" y="130" on="0"/>
        <pt x="324" y="123" on="0"/>
        <pt x="352" y="123" on="0"/>
        <pt x="366" y="123" on="1"/>
        <pt x="389" y="123" on="0"/>
        <pt x="421" y="130" on="0"/>
        <pt x="442" y="148" on="0"/>
        <pt x="452" y="180" on="0"/>
        <pt x="452" y="205" on="1"/>
        <pt x="452" y="225" on="0"/>
        <pt x="438" y="266" on="0"/>
        <pt x="418" y="274" on="1"/>
        <pt x="397" y="284" on="0"/>
        <pt x="337" y="295" on="0"/>
        <pt x="272" y="301" on="0"/>
        <pt x="209" y="302" on="0"/>
        <pt x="187" y="302" on="1"/>
        <pt x="163" y="302" on="0"/>
        <pt x="114" y="301" on="0"/>
        <pt x="89" y="300" on="1"/>
        <pt x="72" y="738" on="1"/>
        <pt x="142" y="738" on="1"/>
        <pt x="273" y="738" on="0"/>
        <pt x="529" y="745" on="0"/>
        <pt x="659" y="749" on="1"/>
      </contour>
    </TTGlyph>
    <TTGlyph name="fl" xMin="20" yMin="-23" xMax="697" yMax="765">
      <contour>
        <pt x="697" y="765" on="1"/>
        <pt x="683" y="573" on="0"/>
        <pt x="661" y="194" on="0"/>
        <pt x="649" y="2" on="1"/>
        <pt x="496" y="-6" on="1"/>
        <pt x="496" y="85" on="0"/>
        <pt x="496" y="263" on="0"/>
        <pt x="495" y="354" on="1"/>
        <pt x="494" y="415" on="0"/>
        <pt x="485" y="536" on="0"/>
        <pt x="481" y="597" on="1"/>
        <pt x="463" y="597" on="0"/>
        <pt x="418" y="594" on="0"/>
        <pt x="373" y="585" on="0"/>
        <pt x="332" y="570" on="0"/>
        <pt x="319" y="558" on="1"/>
        <pt x="308" y="547" on="0"/>
        <pt x="287" y="506" on="0"/>
        <pt x="287" y="489" on="1"/>
        <pt x="287" y="481" on="0"/>
        <pt x="288" y="477" on="1"/>
        <pt x="400" y="472" on="1"/>
        <pt x="402" y="456" on="0"/>
        <pt x="406" y="422" on="0"/>
        <pt x="406" y="406" on="1"/>
        <pt x="406" y="390" on="0"/>
        <pt x="404" y="360" on="0"/>
        <pt x="403" y="345" on="1"/>
        <pt x="306" y="325" on="1"/>
        <pt x="314" y="239" on="0"/>
        <pt x="332" y="70" on="0"/>
        <pt x="337" y="-16" on="1"/>
        <pt x="274" y="-14" on="0"/>
        <pt x="149" y="-22" on="0"/>
        <pt x="86" y="-23" on="1"/>
        <pt x="95" y="308" on="1"/>
        <pt x="20" y="304" on="1"/>
        <pt x="20" y="331" on="1"/>
        <pt x="20" y="366" on="0"/>
        <pt x="28" y="434" on="0"/>
        <pt x="30" y="469" on="1"/>
        <pt x="101" y="471" on="1"/>
        <pt x="101" y="513" on="0"/>
        <pt x="111" y="596" on="0"/>
        <pt x="141" y="669" on="0"/>
        <pt x="196" y="727" on="0"/>
        <pt x="240" y="744" on="1"/>
        <pt x="253" y="749" on="0"/>
        <pt x="314" y="756" on="0"/>
        <pt x="394" y="761" on="0"/>
        <pt x="483" y="763" on="0"/>
        <pt x="564" y="765" on="0"/>
        <pt x="627" y="765" on="0"/>
        <pt x="641" y="765" on="1"/>
      </contour>
    </TTGlyph>
</ttFont>
